<svg width="968" height="196" viewBox="0 0 968 196" fill="none" xmlns="http://www.w3.org/2000/svg">
<mask id="mask0_234_2439" style="mask-type:alpha" maskUnits="userSpaceOnUse" x="0" y="0" width="968" height="196">
<path d="M1.23944 0H968L966.761 193.421L725.69 194.711L604.845 196H533.577L513.592 194.025L483.38 194.066L0 196L1.23944 0Z" fill="white" fill-opacity="0.3"/>
</mask>
<g mask="url(#mask0_234_2439)">
<path d="M129.622 158.6C118.27 165.406 102.172 169.943 88.9621 169.943H43.1425V13.4119C43.1425 10.316 45.2059 8.04697 48.3009 8.04697H48.5092V5.57388H1.44965V8.04697H1.86214C10.9439 8.04697 16.9298 14.2362 16.9298 23.3107V170.56C16.9298 179.635 10.9439 185.616 1.86214 185.616H1.24219V188.297H121.366L144.895 149.113L129.622 158.6ZM277.196 158.6C265.844 165.406 249.745 169.943 236.535 169.943H190.716V93.0161H241.902C245.413 93.0161 250.159 96.9339 253.666 98.3785L258.619 100.854L261.098 64.351L257.794 67.6493C255.112 70.3297 250.779 74.6621 247.063 74.6621H190.716V23.723H236.535C249.745 23.723 266.464 27.6407 277.816 34.034L283.182 36.9201L268.94 5.57388H148.816V8.04697H149.436C158.518 8.04697 164.504 14.2362 164.504 23.3107V170.56C164.504 179.635 158.518 185.616 149.436 185.616H148.816V188.297H268.94L292.469 149.113L277.196 158.6ZM395.667 97.1412L377.298 115.495H426.213V167.674C417.338 171.592 406.811 173.653 395.667 173.653C354.389 173.653 326.938 146.224 326.938 97.1412C326.938 48.058 354.389 20.6295 395.667 20.6295C424.149 20.6295 440.248 32.178 451.187 56.1009V19.1857C435.502 7.42992 419.403 2.48047 395.667 2.48047C338.703 2.48047 300.726 40.2208 300.726 97.1412C300.726 154.062 338.703 192.01 386.38 192.01C406.606 192.01 421.879 185.204 426.213 182.523V188.297H452.22V97.1412H395.667ZM600.414 158.6C589.062 165.406 572.964 169.943 559.754 169.943H513.935V93.0161H565.12C568.63 93.0161 573.376 96.9339 576.885 98.3785L581.838 100.854L584.316 64.351L581.013 67.6493C578.33 70.3297 573.996 74.6621 570.281 74.6621H513.935V23.723H559.754C572.964 23.723 589.682 27.6407 601.034 34.034L606.4 36.9201L592.157 5.57388H472.034V8.04697H472.654C481.736 8.04697 487.722 14.2362 487.722 23.3107V170.56C487.722 179.635 481.736 185.616 472.654 185.616H472.034V188.297H592.157L615.687 149.113L600.414 158.6ZM750.879 5.57388V8.04697H752.529C760.166 8.04697 765.117 12.9964 765.117 20.6295V145.812L657.998 5.57388H615.687C621.261 8.46241 624.149 9.90382 624.561 10.316C637.566 17.3296 639.837 30.9414 639.837 40.2208V173.241C639.837 180.666 634.676 185.616 627.244 185.616H625.389V188.297H672.446V185.616H670.587C662.951 185.616 657.998 180.666 657.998 173.241V48.6751L764.703 188.297H783.487V20.6295C783.487 12.9964 788.441 8.04697 796.078 8.04697H797.728V5.57388H750.879ZM875.128 5.57388H810.938V8.04697C818.574 8.04697 826.418 7.84211 826.418 18.154L826.623 175.717C826.623 181.698 822.702 185.616 816.716 185.616H816.096V188.297H870.174C928.17 188.297 966.973 151.999 966.973 95.9046C966.973 41.2525 930.028 5.57388 875.128 5.57388ZM870.999 168.498H852.836V25.3717H865.221C915.168 25.3717 940.761 53.2123 940.761 96.3168C940.761 141.07 913.31 168.498 870.999 168.498Z" fill="white" fill-opacity="0.3"/>
</g>
</svg>
