<svg width="16" height="14" viewBox="0 0 16 14" fill="none" xmlns="http://www.w3.org/2000/svg">
<path d="M14.7692 0H1.23077C0.904349 0 0.591298 0.13409 0.360484 0.372773C0.12967 0.611456 0 0.935179 0 1.27273V12.7273C0 13.0648 0.12967 13.3885 0.360484 13.6272C0.591298 13.8659 0.904349 14 1.23077 14H14.7692C15.0957 14 15.4087 13.8659 15.6395 13.6272C15.8703 13.3885 16 13.0648 16 12.7273V1.27273C16 0.935179 15.8703 0.611456 15.6395 0.372773C15.4087 0.13409 15.0957 0 14.7692 0ZM8 7.63636C7.02105 7.63531 6.08249 7.2327 5.39027 6.51688C4.69805 5.80106 4.30871 4.8305 4.30769 3.81818C4.30769 3.64941 4.37253 3.48755 4.48793 3.3682C4.60334 3.24886 4.75987 3.18182 4.92308 3.18182C5.08629 3.18182 5.24281 3.24886 5.35822 3.3682C5.47363 3.48755 5.53846 3.64941 5.53846 3.81818C5.53846 4.49328 5.7978 5.14072 6.25943 5.61809C6.72106 6.09546 7.34716 6.36364 8 6.36364C8.65284 6.36364 9.27894 6.09546 9.74057 5.61809C10.2022 5.14072 10.4615 4.49328 10.4615 3.81818C10.4615 3.64941 10.5264 3.48755 10.6418 3.3682C10.7572 3.24886 10.9137 3.18182 11.0769 3.18182C11.2401 3.18182 11.3967 3.24886 11.5121 3.3682C11.6275 3.48755 11.6923 3.64941 11.6923 3.81818C11.6913 4.8305 11.302 5.80106 10.6097 6.51688C9.91751 7.2327 8.97895 7.63531 8 7.63636Z" fill="white"/>
</svg>
