<svg width="463" height="87" viewBox="0 0 463 87" fill="none" xmlns="http://www.w3.org/2000/svg">
<rect x="0.5" y="0.558594" width="461.16" height="85.06" rx="5.5" stroke="white"/>
<path d="M1 6.05859C1 3.29717 3.23858 1.05859 6 1.05859H97.97V52.0586H1V6.05859Z" fill="white"/>
<path d="M10.9855 26V13.733H12.4709V19.1956H19.0118V13.733H20.4972V26H19.0118V20.5134H12.4709V26H10.9855ZM33.3423 17.5664H31.8568C31.769 17.1391 31.6152 16.7638 31.3956 16.4403C31.18 16.1169 30.9164 15.8453 30.6049 15.6257C30.2975 15.4021 29.9561 15.2344 29.5807 15.1226C29.2053 15.0108 28.814 14.9549 28.4067 14.9549C27.664 14.9549 26.9911 15.1425 26.3882 15.5179C25.7892 15.8933 25.312 16.4463 24.9566 17.1771C24.6052 17.9078 24.4295 18.8043 24.4295 19.8665C24.4295 20.9287 24.6052 21.8251 24.9566 22.5559C25.312 23.2866 25.7892 23.8397 26.3882 24.215C26.9911 24.5904 27.664 24.7781 28.4067 24.7781C28.814 24.7781 29.2053 24.7222 29.5807 24.6104C29.9561 24.4986 30.2975 24.3328 30.6049 24.1132C30.9164 23.8896 31.18 23.6161 31.3956 23.2926C31.6152 22.9652 31.769 22.5898 31.8568 22.1665H33.3423C33.2305 22.7935 33.0268 23.3545 32.7313 23.8497C32.4358 24.3448 32.0684 24.7661 31.6292 25.1135C31.1899 25.4569 30.6968 25.7185 30.1497 25.8982C29.6067 26.0779 29.0256 26.1677 28.4067 26.1677C27.3605 26.1677 26.4301 25.9122 25.6155 25.401C24.8009 24.8899 24.16 24.1631 23.6928 23.2207C23.2256 22.2784 22.992 21.1603 22.992 19.8665C22.992 18.5727 23.2256 17.4546 23.6928 16.5122C24.16 15.5698 24.8009 14.8431 25.6155 14.3319C26.4301 13.8208 27.3605 13.5652 28.4067 13.5652C29.0256 13.5652 29.6067 13.6551 30.1497 13.8348C30.6968 14.0145 31.1899 14.278 31.6292 14.6254C32.0684 14.9688 32.4358 15.3881 32.7313 15.8833C33.0268 16.3744 33.2305 16.9355 33.3423 17.5664ZM46.093 19.8665C46.093 21.1603 45.8594 22.2784 45.3922 23.2207C44.925 24.1631 44.2841 24.8899 43.4695 25.401C42.6549 25.9122 41.7245 26.1677 40.6782 26.1677C39.632 26.1677 38.7016 25.9122 37.887 25.401C37.0724 24.8899 36.4315 24.1631 35.9643 23.2207C35.4971 22.2784 35.2635 21.1603 35.2635 19.8665C35.2635 18.5727 35.4971 17.4546 35.9643 16.5122C36.4315 15.5698 37.0724 14.8431 37.887 14.3319C38.7016 13.8208 39.632 13.5652 40.6782 13.5652C41.7245 13.5652 42.6549 13.8208 43.4695 14.3319C44.2841 14.8431 44.925 15.5698 45.3922 16.5122C45.8594 17.4546 46.093 18.5727 46.093 19.8665ZM44.6554 19.8665C44.6554 18.8043 44.4778 17.9078 44.1224 17.1771C43.771 16.4463 43.2938 15.8933 42.6908 15.5179C42.0918 15.1425 41.421 14.9549 40.6782 14.9549C39.9355 14.9549 39.2627 15.1425 38.6597 15.5179C38.0607 15.8933 37.5835 16.4463 37.2281 17.1771C36.8767 17.9078 36.701 18.8043 36.701 19.8665C36.701 20.9287 36.8767 21.8251 37.2281 22.5559C37.5835 23.2866 38.0607 23.8397 38.6597 24.215C39.2627 24.5904 39.9355 24.7781 40.6782 24.7781C41.421 24.7781 42.0918 24.5904 42.6908 24.215C43.2938 23.8397 43.771 23.2866 44.1224 22.5559C44.4778 21.8251 44.6554 20.9287 44.6554 19.8665Z" fill="#246677"/>
<path d="M13.8724 38.0245V38.6727H10.9614V44.0586H10.2307V38.0245H13.8724ZM15.1341 43.0333L17.3144 39.533H18.1158V44.0586H17.4205V40.5583L15.252 44.0586H14.4388V39.533H15.1341V43.0333ZM18.9062 45.355V43.4104H19.2833C19.3756 43.3142 19.4552 43.21 19.522 43.0981C19.5887 42.9861 19.6467 42.8535 19.6958 42.7003C19.7469 42.5452 19.7901 42.3566 19.8254 42.1346C19.8608 41.9107 19.8922 41.6406 19.9197 41.3244L20.0729 39.533H22.9485V43.4104H23.6439V45.355H22.9485V44.0586H19.6015V45.355H18.9062ZM20.0729 43.4104H22.2532V40.1812H20.7211L20.6033 41.3244C20.5542 41.7978 20.4933 42.2112 20.4206 42.5648C20.3479 42.9184 20.232 43.2002 20.0729 43.4104ZM24.5668 45.7557V39.533H25.2386V40.2519H25.3211C25.3721 40.1734 25.4429 40.0732 25.5332 39.9514C25.6255 39.8277 25.7571 39.7177 25.928 39.6214C26.1009 39.5232 26.3346 39.4741 26.6292 39.4741C27.0103 39.4741 27.3462 39.5694 27.6369 39.7599C27.9276 39.9504 28.1545 40.2205 28.3175 40.5701C28.4805 40.9198 28.562 41.3323 28.562 41.8076C28.562 42.2869 28.4805 42.7023 28.3175 43.0539C28.1545 43.4035 27.9286 43.6746 27.6398 43.8671C27.3511 44.0576 27.0182 44.1529 26.641 44.1529C26.3503 44.1529 26.1176 44.1048 25.9428 44.0085C25.7679 43.9103 25.6334 43.7993 25.5391 43.6756C25.4448 43.5499 25.3721 43.4458 25.3211 43.3633H25.2621V45.7557H24.5668ZM25.2504 41.7958C25.2504 42.1376 25.3004 42.4391 25.4006 42.7003C25.5008 42.9596 25.6471 43.1629 25.8396 43.3102C26.0321 43.4556 26.2678 43.5283 26.5467 43.5283C26.8375 43.5283 27.08 43.4516 27.2745 43.2984C27.4709 43.1433 27.6182 42.9351 27.7164 42.6738C27.8166 42.4106 27.8667 42.1179 27.8667 41.7958C27.8667 41.4776 27.8176 41.1908 27.7194 40.9355C27.6231 40.6782 27.4768 40.4749 27.2804 40.3256C27.0859 40.1743 26.8414 40.0987 26.5467 40.0987C26.2639 40.0987 26.0262 40.1704 25.8337 40.3138C25.6412 40.4552 25.4959 40.6536 25.3977 40.909C25.2995 41.1623 25.2504 41.458 25.2504 41.7958ZM31.4612 44.1529C31.0527 44.1529 30.6942 44.0556 30.3858 43.8612C30.0794 43.6667 29.8398 43.3947 29.6669 43.0451C29.496 42.6954 29.4106 42.2869 29.4106 41.8194C29.4106 41.348 29.496 40.9365 29.6669 40.5849C29.8398 40.2333 30.0794 39.9602 30.3858 39.7658C30.6942 39.5713 31.0527 39.4741 31.4612 39.4741C31.8698 39.4741 32.2273 39.5713 32.5337 39.7658C32.8421 39.9602 33.0817 40.2333 33.2526 40.5849C33.4255 40.9365 33.5119 41.348 33.5119 41.8194C33.5119 42.2869 33.4255 42.6954 33.2526 43.0451C33.0817 43.3947 32.8421 43.6667 32.5337 43.8612C32.2273 44.0556 31.8698 44.1529 31.4612 44.1529ZM31.4612 43.5283C31.7716 43.5283 32.0269 43.4487 32.2273 43.2896C32.4276 43.1305 32.5759 42.9213 32.6722 42.662C32.7684 42.4028 32.8165 42.1219 32.8165 41.8194C32.8165 41.5169 32.7684 41.235 32.6722 40.9738C32.5759 40.7125 32.4276 40.5014 32.2273 40.3403C32.0269 40.1793 31.7716 40.0987 31.4612 40.0987C31.1509 40.0987 30.8955 40.1793 30.6952 40.3403C30.4948 40.5014 30.3465 40.7125 30.2503 40.9738C30.154 41.235 30.1059 41.5169 30.1059 41.8194C30.1059 42.1219 30.154 42.4028 30.2503 42.662C30.3465 42.9213 30.4948 43.1305 30.6952 43.2896C30.8955 43.4487 31.1509 43.5283 31.4612 43.5283ZM34.5733 44.0586V39.533H35.2686V41.5012H35.7283L37.3546 39.533H38.2503L36.4236 41.7133L38.2739 44.0586H37.3782L35.8933 42.1494H35.2686V44.0586H34.5733ZM40.3614 44.1647C40.0746 44.1647 39.8143 44.1106 39.5806 44.0026C39.3468 43.8926 39.1612 43.7345 39.0237 43.5283C38.8862 43.32 38.8175 43.0686 38.8175 42.774C38.8175 42.5147 38.8686 42.3045 38.9707 42.1435C39.0728 41.9804 39.2094 41.8528 39.3802 41.7605C39.5511 41.6681 39.7397 41.5994 39.9459 41.5542C40.1541 41.5071 40.3633 41.4697 40.5735 41.4422C40.8485 41.4069 41.0714 41.3804 41.2423 41.3627C41.4152 41.3431 41.5409 41.3106 41.6195 41.2655C41.7 41.2203 41.7403 41.1417 41.7403 41.0298V41.0062C41.7403 40.7155 41.6607 40.4896 41.5016 40.3285C41.3445 40.1675 41.1058 40.0869 40.7856 40.0869C40.4537 40.0869 40.1934 40.1596 40.0049 40.305C39.8163 40.4503 39.6837 40.6055 39.6071 40.7705L38.9471 40.5348C39.065 40.2598 39.2221 40.0457 39.4185 39.8925C39.6169 39.7373 39.833 39.6293 40.0667 39.5684C40.3024 39.5055 40.5342 39.4741 40.7621 39.4741C40.9074 39.4741 41.0744 39.4918 41.2629 39.5271C41.4535 39.5605 41.6371 39.6303 41.8139 39.7363C41.9927 39.8424 42.141 40.0025 42.2588 40.2166C42.3767 40.4307 42.4356 40.7175 42.4356 41.0769V44.0586H41.7403V43.4458H41.7049C41.6578 43.544 41.5792 43.6491 41.4692 43.761C41.3592 43.873 41.2129 43.9682 41.0302 44.0468C40.8475 44.1254 40.6246 44.1647 40.3614 44.1647ZM40.4674 43.54C40.7424 43.54 40.9742 43.486 41.1628 43.378C41.3533 43.27 41.4967 43.1305 41.5929 42.9596C41.6911 42.7887 41.7403 42.609 41.7403 42.4204V41.784C41.7108 41.8194 41.646 41.8518 41.5458 41.8813C41.4476 41.9088 41.3337 41.9333 41.204 41.9549C41.0763 41.9746 40.9516 41.9922 40.8298 42.0079C40.71 42.0217 40.6128 42.0335 40.5381 42.0433C40.3574 42.0669 40.1885 42.1052 40.0314 42.1582C39.8762 42.2093 39.7505 42.2869 39.6542 42.391C39.56 42.4931 39.5128 42.6326 39.5128 42.8093C39.5128 43.0509 39.6022 43.2336 39.7809 43.3574C39.9617 43.4791 40.1905 43.54 40.4674 43.54ZM43.7047 45.7557V39.533H44.3765V40.2519H44.459C44.5101 40.1734 44.5808 40.0732 44.6711 39.9514C44.7634 39.8277 44.895 39.7177 45.0659 39.6214C45.2388 39.5232 45.4725 39.4741 45.7672 39.4741C46.1482 39.4741 46.4841 39.5694 46.7748 39.7599C47.0655 39.9504 47.2924 40.2205 47.4554 40.5701C47.6184 40.9198 47.6999 41.3323 47.6999 41.8076C47.6999 42.2869 47.6184 42.7023 47.4554 43.0539C47.2924 43.4035 47.0665 43.6746 46.7777 43.8671C46.489 44.0576 46.1561 44.1529 45.7789 44.1529C45.4882 44.1529 45.2555 44.1048 45.0807 44.0085C44.9058 43.9103 44.7713 43.7993 44.677 43.6756C44.5827 43.5499 44.5101 43.4458 44.459 43.3633H44.4001V45.7557H43.7047ZM44.3883 41.7958C44.3883 42.1376 44.4384 42.4391 44.5385 42.7003C44.6387 42.9596 44.785 43.1629 44.9775 43.3102C45.17 43.4556 45.4057 43.5283 45.6847 43.5283C45.9754 43.5283 46.2179 43.4516 46.4124 43.2984C46.6088 43.1433 46.7561 42.9351 46.8544 42.6738C46.9545 42.4106 47.0046 42.1179 47.0046 41.7958C47.0046 41.4776 46.9555 41.1908 46.8573 40.9355C46.7611 40.6782 46.6147 40.4749 46.4183 40.3256C46.2238 40.1743 45.9793 40.0987 45.6847 40.0987C45.4018 40.0987 45.1641 40.1704 44.9716 40.3138C44.7792 40.4552 44.6338 40.6536 44.5356 40.909C44.4374 41.1623 44.3883 41.458 44.3883 41.7958ZM52.1194 37.8359L52.473 38.2602C52.3355 38.3938 52.1764 38.4871 51.9957 38.5401C51.815 38.5931 51.6107 38.6256 51.3829 38.6373C51.155 38.6491 50.9016 38.6609 50.6227 38.6727C50.3084 38.6845 50.0482 38.7611 49.8419 38.9025C49.6357 39.0439 49.4766 39.2482 49.3646 39.5153C49.2527 39.7825 49.181 40.1105 49.1495 40.4994H49.2085C49.3617 40.2166 49.5738 40.0084 49.8449 39.8748C50.1159 39.7412 50.4066 39.6744 50.717 39.6744C51.0706 39.6744 51.3888 39.7569 51.6716 39.9219C51.9545 40.0869 52.1784 40.3315 52.3434 40.6556C52.5084 40.9797 52.5909 41.3794 52.5909 41.8547C52.5909 42.3281 52.5064 42.7367 52.3375 43.0804C52.1705 43.4241 51.9358 43.6893 51.6333 43.8759C51.3328 44.0606 50.9802 44.1529 50.5756 44.1529C50.1709 44.1529 49.8164 44.0576 49.5119 43.8671C49.2075 43.6746 48.9708 43.3898 48.8019 43.0126C48.633 42.6336 48.5485 42.1651 48.5485 41.6072V41.124C48.5485 40.1164 48.7194 39.3523 49.0612 38.8318C49.4049 38.3113 49.9215 38.0422 50.6109 38.0245C50.8545 38.0166 51.0715 38.0147 51.2621 38.0186C51.4526 38.0225 51.6186 38.0137 51.76 37.9921C51.9014 37.9705 52.0212 37.9184 52.1194 37.8359ZM50.5756 43.5283C50.8486 43.5283 51.0833 43.4595 51.2797 43.322C51.4781 43.1845 51.6304 42.991 51.7364 42.7416C51.8425 42.4902 51.8955 42.1945 51.8955 41.8547C51.8955 41.5247 51.8415 41.2439 51.7335 41.0121C51.6274 40.7803 51.4752 40.6035 51.2768 40.4817C51.0784 40.36 50.8407 40.2991 50.5638 40.2991C50.3615 40.2991 50.1798 40.3334 50.0187 40.4022C49.8576 40.4709 49.7202 40.5721 49.6062 40.7057C49.4923 40.8392 49.4039 41.0023 49.3411 41.1948C49.2802 41.3873 49.2478 41.6072 49.2438 41.8547C49.2438 42.3615 49.3627 42.7671 49.6003 43.0716C49.838 43.376 50.1631 43.5283 50.5756 43.5283ZM55.493 44.1529C55.0844 44.1529 54.726 44.0556 54.4176 43.8612C54.1112 43.6667 53.8715 43.3947 53.6987 43.0451C53.5278 42.6954 53.4424 42.2869 53.4424 41.8194C53.4424 41.348 53.5278 40.9365 53.6987 40.5849C53.8715 40.2333 54.1112 39.9602 54.4176 39.7658C54.726 39.5713 55.0844 39.4741 55.493 39.4741C55.9016 39.4741 56.259 39.5713 56.5655 39.7658C56.8739 39.9602 57.1135 40.2333 57.2844 40.5849C57.4572 40.9365 57.5436 41.348 57.5436 41.8194C57.5436 42.2869 57.4572 42.6954 57.2844 43.0451C57.1135 43.3947 56.8739 43.6667 56.5655 43.8612C56.259 44.0556 55.9016 44.1529 55.493 44.1529ZM55.493 43.5283C55.8033 43.5283 56.0587 43.4487 56.259 43.2896C56.4594 43.1305 56.6077 42.9213 56.7039 42.662C56.8002 42.4028 56.8483 42.1219 56.8483 41.8194C56.8483 41.5169 56.8002 41.235 56.7039 40.9738C56.6077 40.7125 56.4594 40.5014 56.259 40.3403C56.0587 40.1793 55.8033 40.0987 55.493 40.0987C55.1827 40.0987 54.9273 40.1793 54.727 40.3403C54.5266 40.5014 54.3783 40.7125 54.2821 40.9738C54.1858 41.235 54.1377 41.5169 54.1377 41.8194C54.1377 42.1219 54.1858 42.4028 54.2821 42.662C54.3783 42.9213 54.5266 43.1305 54.727 43.2896C54.9273 43.4487 55.1827 43.5283 55.493 43.5283ZM61.6339 41.4776V42.1258H59.1354V41.4776H61.6339ZM59.3004 39.533V44.0586H58.6051V39.533H59.3004ZM62.1642 39.533V44.0586H61.4689V39.533H62.1642ZM64.7658 44.1647C64.4791 44.1647 64.2188 44.1106 63.9851 44.0026C63.7513 43.8926 63.5657 43.7345 63.4282 43.5283C63.2907 43.32 63.222 43.0686 63.222 42.774C63.222 42.5147 63.273 42.3045 63.3752 42.1435C63.4773 41.9804 63.6138 41.8528 63.7847 41.7605C63.9556 41.6681 64.1442 41.5994 64.3504 41.5542C64.5586 41.5071 64.7678 41.4697 64.978 41.4422C65.253 41.4069 65.4759 41.3804 65.6468 41.3627C65.8197 41.3431 65.9454 41.3106 66.0239 41.2655C66.1045 41.2203 66.1447 41.1417 66.1447 41.0298V41.0062C66.1447 40.7155 66.0652 40.4896 65.9061 40.3285C65.7489 40.1675 65.5103 40.0869 65.1901 40.0869C64.8582 40.0869 64.5979 40.1596 64.4093 40.305C64.2208 40.4503 64.0882 40.6055 64.0116 40.7705L63.3516 40.5348C63.4695 40.2598 63.6266 40.0457 63.823 39.8925C64.0214 39.7373 64.2375 39.6293 64.4712 39.5684C64.7069 39.5055 64.9387 39.4741 65.1666 39.4741C65.3119 39.4741 65.4789 39.4918 65.6674 39.5271C65.858 39.5605 66.0416 39.6303 66.2184 39.7363C66.3971 39.8424 66.5454 40.0025 66.6633 40.2166C66.7811 40.4307 66.8401 40.7175 66.8401 41.0769V44.0586H66.1447V43.4458H66.1094C66.0622 43.544 65.9837 43.6491 65.8737 43.761C65.7637 43.873 65.6173 43.9682 65.4347 44.0468C65.252 44.1254 65.0291 44.1647 64.7658 44.1647ZM64.8719 43.54C65.1469 43.54 65.3787 43.486 65.5673 43.378C65.7578 43.27 65.9012 43.1305 65.9974 42.9596C66.0956 42.7887 66.1447 42.609 66.1447 42.4204V41.784C66.1153 41.8194 66.0505 41.8518 65.9503 41.8813C65.8521 41.9088 65.7381 41.9333 65.6085 41.9549C65.4808 41.9746 65.3561 41.9922 65.2343 42.0079C65.1145 42.0217 65.0173 42.0335 64.9426 42.0433C64.7619 42.0669 64.593 42.1052 64.4359 42.1582C64.2807 42.2093 64.155 42.2869 64.0587 42.391C63.9644 42.4931 63.9173 42.6326 63.9173 42.8093C63.9173 43.0509 64.0067 43.2336 64.1854 43.3574C64.3661 43.4791 64.595 43.54 64.8719 43.54ZM67.4934 40.1812V39.533H71.1704V40.1812H69.6855V44.0586H68.9902V40.1812H67.4934ZM72.7858 41.1712H74.0822C74.6125 41.1712 75.0181 41.3057 75.299 41.5748C75.5799 41.8439 75.7203 42.1847 75.7203 42.5972C75.7203 42.8683 75.6575 43.1148 75.5318 43.3367C75.406 43.5567 75.2214 43.7325 74.9778 43.8641C74.7343 43.9938 74.4357 44.0586 74.0822 44.0586H72.1847V39.533H72.8801V43.4104H74.0822C74.3571 43.4104 74.583 43.3377 74.7598 43.1924C74.9366 43.047 75.025 42.8604 75.025 42.6326C75.025 42.3929 74.9366 42.1975 74.7598 42.0462C74.583 41.895 74.3571 41.8194 74.0822 41.8194H72.7858V41.1712ZM76.4392 44.0586V39.533H77.1346V44.0586H76.4392Z" fill="#246677"/>
<path d="M51.6388 29.8981C51.1999 29.8981 50.8079 29.8224 50.4627 29.6712C50.1197 29.5199 49.848 29.31 49.6477 29.0415C49.4496 28.771 49.343 28.4577 49.3281 28.1019H50.3317C50.3445 28.2958 50.4094 28.4641 50.5266 28.6069C50.646 28.7475 50.8015 28.8562 50.9933 28.9329C51.185 29.0096 51.3981 29.0479 51.6325 29.0479C51.8903 29.0479 52.1183 29.0032 52.3164 28.9137C52.5167 28.8242 52.6733 28.6996 52.7862 28.5398C52.8991 28.3778 52.9556 28.1914 52.9556 27.9805C52.9556 27.761 52.8991 27.5682 52.7862 27.402C52.6754 27.2337 52.5124 27.1016 52.2972 27.0057C52.0842 26.9098 51.8263 26.8619 51.5238 26.8619H50.9709V26.0565H51.5238C51.7667 26.0565 51.9798 26.0128 52.163 25.9254C52.3484 25.8381 52.4933 25.7166 52.5977 25.5611C52.7021 25.4034 52.7543 25.2191 52.7543 25.0082C52.7543 24.8058 52.7085 24.63 52.6168 24.4808C52.5273 24.3295 52.3995 24.2113 52.2333 24.1261C52.0692 24.0408 51.8754 23.9982 51.6516 23.9982C51.4386 23.9982 51.2393 24.0376 51.054 24.1165C50.8707 24.1932 50.7216 24.304 50.6065 24.4489C50.4915 24.5916 50.4297 24.7631 50.4212 24.9634H49.4656C49.4762 24.6097 49.5806 24.2987 49.7788 24.0302C49.979 23.7617 50.2433 23.5518 50.5714 23.4006C50.8995 23.2493 51.2638 23.1737 51.6644 23.1737C52.0842 23.1737 52.4464 23.2557 52.7511 23.4197C53.0579 23.5817 53.2944 23.7979 53.4606 24.0685C53.6289 24.3391 53.712 24.6353 53.7099 24.957C53.712 25.3235 53.6097 25.6346 53.4031 25.8903C53.1985 26.146 52.9258 26.3175 52.5849 26.4048V26.456C53.0195 26.522 53.3562 26.6946 53.5948 26.9737C53.8356 27.2528 53.9549 27.5991 53.9528 28.0124C53.9549 28.3725 53.8548 28.6953 53.6523 28.9808C53.4521 29.2663 53.1783 29.4911 52.831 29.6552C52.4837 29.8171 52.0863 29.8981 51.6388 29.8981Z" fill="#246677"/>
<path d="M12.9043 73.1445C12.2989 73.1445 11.7536 73.0241 11.2685 72.7833C10.7835 72.5425 10.3947 72.2122 10.1023 71.7925C9.80991 71.3728 9.64995 70.8946 9.62243 70.358H10.8609C10.909 70.8361 11.1258 71.2318 11.5111 71.5448C11.8998 71.8544 12.3642 72.0092 12.9043 72.0092C13.3378 72.0092 13.7231 71.9077 14.0602 71.7048C14.4008 71.5018 14.6674 71.2232 14.8601 70.8688C15.0562 70.511 15.1542 70.1068 15.1542 69.6562C15.1542 69.1952 15.0527 68.7841 14.8498 68.4229C14.6502 68.0582 14.375 67.771 14.0241 67.5611C13.6732 67.3513 13.2724 67.2446 12.8218 67.2412C12.4984 67.2377 12.1664 67.2876 11.8259 67.3908C11.4853 67.4906 11.2049 67.6196 10.9847 67.7778L9.78755 67.6333L10.4274 62.4318H15.9179V63.5671H11.5008L11.1292 66.6839H11.1911C11.4079 66.5119 11.6796 66.3691 12.0065 66.2556C12.3333 66.142 12.6739 66.0853 13.0282 66.0853C13.6749 66.0853 14.2512 66.2401 14.7569 66.5497C15.266 66.8559 15.6651 67.2756 15.954 67.8088C16.2465 68.342 16.3927 68.9509 16.3927 69.6355C16.3927 70.3098 16.2413 70.9118 15.9386 71.4416C15.6393 71.968 15.2265 72.3842 14.7001 72.6904C14.1738 72.9931 13.5752 73.1445 12.9043 73.1445ZM23.0042 67.1483V68.2835H18.3807V67.1483H23.0042ZM24.6297 73V72.0712L28.118 68.2526C28.5274 67.8054 28.8645 67.4166 29.1294 67.0864C29.3943 66.7527 29.5904 66.4396 29.7177 66.1472C29.8484 65.8513 29.9138 65.5417 29.9138 65.2184C29.9138 64.8468 29.8244 64.5252 29.6455 64.2534C29.47 63.9816 29.2292 63.7718 28.923 63.6238C28.6169 63.4759 28.2728 63.4019 27.891 63.4019C27.485 63.4019 27.1307 63.4862 26.828 63.6548C26.5287 63.8199 26.2965 64.0521 26.1313 64.3514C25.9697 64.6507 25.8888 65.0016 25.8888 65.4041H24.671C24.671 64.7849 24.8138 64.2413 25.0993 63.7735C25.3848 63.3056 25.7736 62.941 26.2655 62.6795C26.7609 62.4181 27.3165 62.2873 27.9323 62.2873C28.5515 62.2873 29.1002 62.4181 29.5784 62.6795C30.0566 62.941 30.4315 63.2936 30.7033 63.7374C30.9751 64.1811 31.111 64.6748 31.111 65.2184C31.111 65.6071 31.0405 65.9872 30.8994 66.3588C30.7618 66.7269 30.521 67.138 30.177 67.5921C29.8364 68.0427 29.3634 68.5932 28.7579 69.2433L26.3842 71.7822V71.8647H31.2967V73H24.6297ZM36.7305 73.1445C36.125 73.1445 35.5797 73.0241 35.0947 72.7833C34.6096 72.5425 34.2209 72.2122 33.9285 71.7925C33.6361 71.3728 33.4761 70.8946 33.4486 70.358H34.687C34.7352 70.8361 34.9519 71.2318 35.3372 71.5448C35.726 71.8544 36.1904 72.0092 36.7305 72.0092C37.1639 72.0092 37.5492 71.9077 37.8864 71.7048C38.227 71.5018 38.4936 71.2232 38.6862 70.8688C38.8823 70.511 38.9803 70.1068 38.9803 69.6562C38.9803 69.1952 38.8789 68.7841 38.6759 68.4229C38.4764 68.0582 38.2012 67.771 37.8503 67.5611C37.4994 67.3513 37.0986 67.2446 36.6479 67.2412C36.3245 67.2377 35.9926 67.2876 35.652 67.3908C35.3114 67.4906 35.031 67.6196 34.8109 67.7778L33.6137 67.6333L34.2536 62.4318H39.7441V63.5671H35.3269L34.9554 66.6839H35.0173C35.234 66.5119 35.5058 66.3691 35.8326 66.2556C36.1594 66.142 36.5 66.0853 36.8543 66.0853C37.5011 66.0853 38.0773 66.2401 38.583 66.5497C39.0922 66.8559 39.4912 67.2756 39.7802 67.8088C40.0726 68.342 40.2188 68.9509 40.2188 69.6355C40.2188 70.3098 40.0674 70.9118 39.7647 71.4416C39.4654 71.968 39.0526 72.3842 38.5262 72.6904C37.9999 72.9931 37.4013 73.1445 36.7305 73.1445Z" fill="white"/>
<rect width="75.47" height="51" transform="translate(97.9688 1.05859)" fill="white"/>
<path d="M117.825 17.5664H116.34C116.252 17.1391 116.098 16.7638 115.879 16.4403C115.663 16.1169 115.399 15.8453 115.088 15.6257C114.781 15.4021 114.439 15.2344 114.064 15.1226C113.688 15.0108 113.297 14.9549 112.89 14.9549C112.147 14.9549 111.474 15.1425 110.871 15.5179C110.272 15.8933 109.795 16.4463 109.44 17.1771C109.088 17.9078 108.913 18.8043 108.913 19.8665C108.913 20.9287 109.088 21.8251 109.44 22.5559C109.795 23.2866 110.272 23.8397 110.871 24.215C111.474 24.5904 112.147 24.7781 112.89 24.7781C113.297 24.7781 113.688 24.7222 114.064 24.6104C114.439 24.4986 114.781 24.3328 115.088 24.1132C115.399 23.8896 115.663 23.6161 115.879 23.2926C116.098 22.9652 116.252 22.5898 116.34 22.1665H117.825C117.714 22.7935 117.51 23.3545 117.214 23.8497C116.919 24.3448 116.552 24.7661 116.112 25.1135C115.673 25.4569 115.18 25.7185 114.633 25.8982C114.09 26.0779 113.509 26.1677 112.89 26.1677C111.844 26.1677 110.913 25.9122 110.099 25.401C109.284 24.8899 108.643 24.1631 108.176 23.2207C107.709 22.2784 107.475 21.1603 107.475 19.8665C107.475 18.5727 107.709 17.4546 108.176 16.5122C108.643 15.5698 109.284 14.8431 110.099 14.3319C110.913 13.8208 111.844 13.5652 112.89 13.5652C113.509 13.5652 114.09 13.6551 114.633 13.8348C115.18 14.0145 115.673 14.278 116.112 14.6254C116.552 14.9688 116.919 15.3881 117.214 15.8833C117.51 16.3744 117.714 16.9355 117.825 17.5664ZM122.741 26.2156C122.158 26.2156 121.629 26.1058 121.154 25.8862C120.679 25.6626 120.302 25.3411 120.022 24.9218C119.743 24.4986 119.603 23.9874 119.603 23.3885C119.603 22.8614 119.707 22.4341 119.914 22.1067C120.122 21.7752 120.399 21.5157 120.747 21.328C121.094 21.1403 121.478 21.0005 121.897 20.9087C122.32 20.8129 122.745 20.737 123.173 20.6811C123.732 20.6092 124.185 20.5553 124.532 20.5194C124.884 20.4794 125.139 20.4135 125.299 20.3217C125.463 20.2299 125.545 20.0701 125.545 19.8425V19.7946C125.545 19.2036 125.383 18.7444 125.059 18.417C124.74 18.0895 124.255 17.9258 123.604 17.9258C122.929 17.9258 122.4 18.0735 122.017 18.369C121.633 18.6645 121.364 18.98 121.208 19.3154L119.866 18.8362C120.106 18.2772 120.425 17.8419 120.825 17.5305C121.228 17.215 121.667 16.9954 122.142 16.8716C122.622 16.7438 123.093 16.6799 123.556 16.6799C123.852 16.6799 124.191 16.7159 124.574 16.7877C124.962 16.8556 125.335 16.9974 125.694 17.213C126.058 17.4286 126.359 17.7541 126.599 18.1893C126.838 18.6246 126.958 19.2076 126.958 19.9384V26H125.545V24.7541H125.473C125.377 24.9538 125.217 25.1674 124.994 25.395C124.77 25.6226 124.472 25.8163 124.101 25.976C123.73 26.1358 123.277 26.2156 122.741 26.2156ZM122.957 24.9458C123.516 24.9458 123.987 24.836 124.371 24.6164C124.758 24.3967 125.05 24.1132 125.245 23.7658C125.445 23.4184 125.545 23.053 125.545 22.6697V21.3759C125.485 21.4478 125.353 21.5137 125.149 21.5736C124.95 21.6295 124.718 21.6794 124.455 21.7233C124.195 21.7632 123.941 21.7992 123.694 21.8311C123.45 21.8591 123.253 21.883 123.101 21.903C122.733 21.9509 122.39 22.0288 122.071 22.1366C121.755 22.2404 121.5 22.3982 121.304 22.6098C121.112 22.8174 121.016 23.101 121.016 23.4603C121.016 23.9515 121.198 24.3229 121.561 24.5744C121.929 24.822 122.394 24.9458 122.957 24.9458Z" fill="#246677"/>
<path d="M110.747 44.0586L108.673 41.289H107.93V44.0586H107.199V38.0245H107.93V40.6408H108.248L110.664 38.0245H111.536L109.097 40.6762L111.619 44.0586H110.747ZM113.801 44.1647C113.514 44.1647 113.254 44.1106 113.02 44.0026C112.786 43.8926 112.601 43.7345 112.463 43.5283C112.326 43.32 112.257 43.0686 112.257 42.774C112.257 42.5147 112.308 42.3045 112.41 42.1435C112.512 41.9804 112.649 41.8528 112.82 41.7605C112.99 41.6681 113.179 41.5994 113.385 41.5542C113.593 41.5071 113.803 41.4697 114.013 41.4422C114.288 41.4069 114.511 41.3804 114.682 41.3627C114.855 41.3431 114.98 41.3106 115.059 41.2655C115.139 41.2203 115.18 41.1417 115.18 41.0298V41.0062C115.18 40.7155 115.1 40.4896 114.941 40.3285C114.784 40.1675 114.545 40.0869 114.225 40.0869C113.893 40.0869 113.633 40.1596 113.444 40.305C113.256 40.4503 113.123 40.6055 113.046 40.7705L112.386 40.5348C112.504 40.2598 112.661 40.0457 112.858 39.8925C113.056 39.7373 113.272 39.6293 113.506 39.5684C113.742 39.5055 113.974 39.4741 114.201 39.4741C114.347 39.4741 114.514 39.4918 114.702 39.5271C114.893 39.5605 115.076 39.6303 115.253 39.7363C115.432 39.8424 115.58 40.0025 115.698 40.2166C115.816 40.4307 115.875 40.7175 115.875 41.0769V44.0586H115.18V43.4458H115.144C115.097 43.544 115.019 43.6491 114.909 43.761C114.799 43.873 114.652 43.9682 114.47 44.0468C114.287 44.1254 114.064 44.1647 113.801 44.1647ZM113.907 43.54C114.182 43.54 114.414 43.486 114.602 43.378C114.793 43.27 114.936 43.1305 115.032 42.9596C115.13 42.7887 115.18 42.609 115.18 42.4204V41.784C115.15 41.8194 115.085 41.8518 114.985 41.8813C114.887 41.9088 114.773 41.9333 114.643 41.9549C114.516 41.9746 114.391 41.9922 114.269 42.0079C114.149 42.0217 114.052 42.0335 113.977 42.0433C113.797 42.0669 113.628 42.1052 113.471 42.1582C113.316 42.2093 113.19 42.2869 113.094 42.391C112.999 42.4931 112.952 42.6326 112.952 42.8093C112.952 43.0509 113.042 43.2336 113.22 43.3574C113.401 43.4791 113.63 43.54 113.907 43.54ZM116.743 44.0586V43.4104H116.908C117.044 43.4104 117.157 43.3839 117.247 43.3308C117.338 43.2759 117.41 43.1806 117.465 43.0451C117.522 42.9076 117.565 42.717 117.595 42.4735C117.626 42.2279 117.649 41.9156 117.663 41.5365L117.745 39.533H120.762V44.0586H120.067V40.1812H118.405L118.334 41.7958C118.319 42.167 118.285 42.4941 118.234 42.7769C118.185 43.0578 118.109 43.2935 118.007 43.4841C117.907 43.6746 117.774 43.818 117.607 43.9142C117.44 44.0105 117.23 44.0586 116.979 44.0586H116.743ZM122.639 41.1712H123.935C124.466 41.1712 124.871 41.3057 125.152 41.5748C125.433 41.8439 125.574 42.1847 125.574 42.5972C125.574 42.8683 125.511 43.1148 125.385 43.3367C125.259 43.5567 125.075 43.7325 124.831 43.8641C124.587 43.9938 124.289 44.0586 123.935 44.0586H122.038V39.533H122.733V43.4104H123.935C124.21 43.4104 124.436 43.3377 124.613 43.1924C124.79 43.047 124.878 42.8604 124.878 42.6326C124.878 42.3929 124.79 42.1975 124.613 42.0462C124.436 41.895 124.21 41.8194 123.935 41.8194H122.639V41.1712ZM130.191 39.533V43.4104H130.828V45.52H130.132V44.0586H126.632V39.533H127.327V43.4104H129.496V39.533H130.191ZM132.594 43.0333L134.774 39.533H135.576V44.0586H134.88V40.5583L132.712 44.0586H131.899V39.533H132.594V43.0333ZM137.544 43.0333L139.725 39.533H140.526V44.0586H139.831V40.5583L137.662 44.0586H136.849V39.533H137.544V43.0333ZM139.265 38.0245H139.913C139.913 38.3427 139.803 38.603 139.583 38.8053C139.363 39.0076 139.065 39.1088 138.688 39.1088C138.316 39.1088 138.021 39.0076 137.801 38.8053C137.583 38.603 137.474 38.3427 137.474 38.0245H138.122C138.122 38.1777 138.164 38.3123 138.249 38.4282C138.335 38.544 138.481 38.602 138.688 38.602C138.894 38.602 139.041 38.544 139.13 38.4282C139.22 38.3123 139.265 38.1777 139.265 38.0245Z" fill="#246677"/>
<path d="M132.561 18V17.3624L134.533 15.3186C134.744 15.0966 134.918 14.9021 135.054 14.7351C135.193 14.5662 135.296 14.4059 135.365 14.2541C135.433 14.1023 135.467 13.941 135.467 13.7702C135.467 13.5766 135.421 13.4096 135.33 13.2692C135.239 13.1269 135.115 13.0178 134.957 12.9418C134.8 12.864 134.623 12.8251 134.425 12.8251C134.216 12.8251 134.034 12.8678 133.879 12.9532C133.723 13.0386 133.604 13.1591 133.52 13.3147C133.437 13.4703 133.395 13.6525 133.395 13.8613H132.555C132.555 13.5064 132.637 13.1961 132.8 12.9305C132.963 12.6648 133.187 12.4589 133.472 12.3128C133.756 12.1648 134.08 12.0908 134.442 12.0908C134.809 12.0908 135.131 12.1638 135.41 12.3099C135.691 12.4542 135.91 12.6515 136.068 12.902C136.225 13.1506 136.304 13.4314 136.304 13.7445C136.304 13.9609 136.263 14.1725 136.181 14.3793C136.102 14.5861 135.962 14.8167 135.763 15.071C135.564 15.3234 135.287 15.6298 134.932 15.9904L133.773 17.203V17.2457H136.398V18H132.561ZM139.202 17.0208V13.1724H139.967V17.0208H139.202ZM137.662 15.478V14.7152H141.51V15.478H137.662Z" fill="#246677"/>
<path d="M110.195 74.148C109.751 74.1409 109.307 74.0564 108.863 73.8943C108.419 73.7322 108.014 73.4592 107.647 73.0751C107.281 72.6875 106.987 72.1643 106.765 71.5054C106.543 70.843 106.432 70.0115 106.432 69.0109C106.432 68.0525 106.522 67.2034 106.701 66.4635C106.881 65.72 107.142 65.0946 107.484 64.5873C107.825 64.0764 108.238 63.6888 108.72 63.4245C109.206 63.1603 109.754 63.0282 110.364 63.0282C110.97 63.0282 111.509 63.1497 111.981 63.3928C112.457 63.6324 112.844 63.9671 113.144 64.397C113.443 64.8268 113.637 65.3219 113.725 65.8821H112.436C112.316 65.3959 112.083 64.9924 111.738 64.6718C111.393 64.3512 110.935 64.1909 110.364 64.1909C109.525 64.1909 108.865 64.5555 108.382 65.2849C107.903 66.0142 107.661 67.0378 107.658 68.3555H107.742C107.94 68.056 108.174 67.8006 108.445 67.5892C108.72 67.3743 109.023 67.2087 109.354 67.0924C109.686 66.9761 110.036 66.918 110.406 66.918C111.026 66.918 111.594 67.073 112.108 67.3831C112.622 67.6896 113.035 68.1142 113.345 68.6568C113.655 69.1959 113.81 69.8142 113.81 70.5118C113.81 71.1813 113.66 71.7944 113.361 72.3511C113.061 72.9042 112.64 73.3446 112.097 73.6723C111.558 73.9965 110.924 74.155 110.195 74.148ZM110.195 72.9853C110.639 72.9853 111.037 72.8743 111.389 72.6523C111.745 72.4303 112.025 72.1326 112.23 71.7591C112.437 71.3856 112.541 70.9699 112.541 70.5118C112.541 70.0644 112.441 69.6574 112.24 69.291C112.043 68.921 111.77 68.6268 111.421 68.4084C111.076 68.1899 110.681 68.0807 110.237 68.0807C109.902 68.0807 109.591 68.1476 109.302 68.2815C109.013 68.4119 108.759 68.5916 108.541 68.8206C108.326 69.0496 108.156 69.3121 108.033 69.6081C107.91 69.9005 107.848 70.2088 107.848 70.533C107.848 70.9628 107.949 71.3645 108.149 71.738C108.354 72.1115 108.632 72.4127 108.984 72.6417C109.34 72.8708 109.744 72.9853 110.195 72.9853ZM119.419 74.148C118.622 74.148 117.944 73.9313 117.384 73.4979C116.824 73.061 116.396 72.4286 116.1 71.6006C115.804 70.769 115.656 69.7649 115.656 68.5881C115.656 67.4183 115.804 66.4194 116.1 65.5914C116.399 64.7599 116.829 64.1257 117.389 63.6888C117.953 63.2484 118.629 63.0282 119.419 63.0282C120.208 63.0282 120.883 63.2484 121.443 63.6888C122.007 64.1257 122.436 64.7599 122.732 65.5914C123.032 66.4194 123.182 67.4183 123.182 68.5881C123.182 69.7649 123.034 70.769 122.738 71.6006C122.442 72.4286 122.014 73.061 121.453 73.4979C120.893 73.9313 120.215 74.148 119.419 74.148ZM119.419 72.9853C120.208 72.9853 120.821 72.6047 121.258 71.8437C121.695 71.0826 121.913 69.9974 121.913 68.5881C121.913 67.6508 121.813 66.8528 121.612 66.1939C121.415 65.535 121.129 65.033 120.756 64.6877C120.386 64.3424 119.94 64.1697 119.419 64.1697C118.636 64.1697 118.025 64.5555 117.585 65.3272C117.144 66.0953 116.924 67.1822 116.924 68.5881C116.924 69.5253 117.023 70.3216 117.22 70.9769C117.417 71.6323 117.701 72.1308 118.071 72.4726C118.444 72.8144 118.894 72.9853 119.419 72.9853ZM129.862 68.0067V69.1694H125.126V68.0067H129.862ZM135.841 63.1761V74H134.53V64.5503H134.467L131.824 66.3049V64.9731L134.53 63.1761H135.841ZM142.484 74.148C141.688 74.148 141.009 73.9313 140.449 73.4979C139.889 73.061 139.461 72.4286 139.165 71.6006C138.869 70.769 138.721 69.7649 138.721 68.5881C138.721 67.4183 138.869 66.4194 139.165 65.5914C139.464 64.7599 139.894 64.1257 140.455 63.6888C141.018 63.2484 141.695 63.0282 142.484 63.0282C143.273 63.0282 143.948 63.2484 144.508 63.6888C145.072 64.1257 145.502 64.7599 145.798 65.5914C146.097 66.4194 146.247 67.4183 146.247 68.5881C146.247 69.7649 146.099 70.769 145.803 71.6006C145.507 72.4286 145.079 73.061 144.519 73.4979C143.959 73.9313 143.28 74.148 142.484 74.148ZM142.484 72.9853C143.273 72.9853 143.886 72.6047 144.323 71.8437C144.76 71.0826 144.979 69.9974 144.979 68.5881C144.979 67.6508 144.878 66.8528 144.677 66.1939C144.48 65.535 144.195 65.033 143.821 64.6877C143.451 64.3424 143.005 64.1697 142.484 64.1697C141.702 64.1697 141.091 64.5555 140.65 65.3272C140.21 66.0953 139.989 67.1822 139.989 68.5881C139.989 69.5253 140.088 70.3216 140.285 70.9769C140.483 71.6323 140.766 72.1308 141.136 72.4726C141.51 72.8144 141.959 72.9853 142.484 72.9853ZM151.786 74.148C150.989 74.148 150.311 73.9313 149.751 73.4979C149.191 73.061 148.763 72.4286 148.467 71.6006C148.171 70.769 148.023 69.7649 148.023 68.5881C148.023 67.4183 148.171 66.4194 148.467 65.5914C148.766 64.7599 149.196 64.1257 149.756 63.6888C150.32 63.2484 150.997 63.0282 151.786 63.0282C152.575 63.0282 153.25 63.2484 153.81 63.6888C154.374 64.1257 154.804 64.7599 155.1 65.5914C155.399 66.4194 155.549 67.4183 155.549 68.5881C155.549 69.7649 155.401 70.769 155.105 71.6006C154.809 72.4286 154.381 73.061 153.821 73.4979C153.26 73.9313 152.582 74.148 151.786 74.148ZM151.786 72.9853C152.575 72.9853 153.188 72.6047 153.625 71.8437C154.062 71.0826 154.28 69.9974 154.28 68.5881C154.28 67.6508 154.18 66.8528 153.979 66.1939C153.782 65.535 153.496 65.033 153.123 64.6877C152.753 64.3424 152.307 64.1697 151.786 64.1697C151.004 64.1697 150.392 64.5555 149.952 65.3272C149.511 66.0953 149.291 67.1822 149.291 68.5881C149.291 69.5253 149.39 70.3216 149.587 70.9769C149.784 71.6323 150.068 72.1308 150.438 72.4726C150.812 72.8144 151.261 72.9853 151.786 72.9853Z" fill="white"/>
<rect width="66.61" height="51" transform="translate(239.898 1.05859)" fill="white"/>
<path d="M256.528 16.8722C256.457 16.27 256.167 15.8025 255.66 15.4697C255.153 15.1369 254.531 14.9705 253.794 14.9705C253.256 14.9705 252.784 15.0577 252.38 15.232C251.98 15.4063 251.667 15.646 251.441 15.9511C251.219 16.2561 251.108 16.6028 251.108 16.991C251.108 17.3159 251.186 17.5952 251.34 17.8289C251.498 18.0587 251.701 18.2508 251.946 18.4054C252.192 18.5559 252.449 18.6807 252.719 18.7797C252.988 18.8748 253.236 18.9521 253.462 19.0115L254.698 19.3443C255.015 19.4275 255.367 19.5424 255.755 19.689C256.148 19.8355 256.522 20.0356 256.879 20.2892C257.239 20.5387 257.536 20.8596 257.77 21.2519C258.004 21.6441 258.121 22.1254 258.121 22.6959C258.121 23.3536 257.948 23.9478 257.604 24.4787C257.263 25.0096 256.764 25.4315 256.106 25.7445C255.452 26.0574 254.658 26.2139 253.723 26.2139C252.851 26.2139 252.097 26.0733 251.459 25.792C250.825 25.5107 250.326 25.1185 249.961 24.6154C249.601 24.1122 249.397 23.5279 249.349 22.8623H250.871C250.91 23.3219 251.065 23.7022 251.334 24.0033C251.607 24.3004 251.952 24.5223 252.368 24.6689C252.788 24.8115 253.24 24.8828 253.723 24.8828C254.286 24.8828 254.791 24.7917 255.238 24.6094C255.686 24.4232 256.041 24.1657 256.302 23.8369C256.564 23.5041 256.694 23.1159 256.694 22.6721C256.694 22.268 256.581 21.9392 256.356 21.6857C256.13 21.4321 255.833 21.2261 255.464 21.0676C255.096 20.9092 254.698 20.7705 254.27 20.6517L252.772 20.2238C251.821 19.9504 251.069 19.5602 250.514 19.0531C249.959 18.546 249.682 17.8824 249.682 17.0623C249.682 16.3809 249.866 15.7866 250.235 15.2795C250.607 14.7685 251.106 14.3723 251.732 14.091C252.362 13.8058 253.065 13.6632 253.842 13.6632C254.626 13.6632 255.324 13.8038 255.934 14.0851C256.544 14.3624 257.027 14.7427 257.384 15.2261C257.744 15.7094 257.934 16.2581 257.954 16.8722H256.528ZM270.812 19.9148C270.812 21.1984 270.581 22.3077 270.117 23.2426C269.654 24.1776 269.018 24.8986 268.21 25.4057C267.401 25.9128 266.478 26.1664 265.44 26.1664C264.402 26.1664 263.479 25.9128 262.671 25.4057C261.863 24.8986 261.227 24.1776 260.764 23.2426C260.3 22.3077 260.068 21.1984 260.068 19.9148C260.068 18.6312 260.3 17.5219 260.764 16.5869C261.227 15.6519 261.863 14.9309 262.671 14.4238C263.479 13.9167 264.402 13.6632 265.44 13.6632C266.478 13.6632 267.401 13.9167 268.21 14.4238C269.018 14.9309 269.654 15.6519 270.117 16.5869C270.581 17.5219 270.812 18.6312 270.812 19.9148ZM269.386 19.9148C269.386 18.861 269.21 17.9715 268.857 17.2465C268.509 16.5215 268.035 15.9728 267.437 15.6004C266.843 15.228 266.177 15.0418 265.44 15.0418C264.703 15.0418 264.036 15.228 263.438 15.6004C262.843 15.9728 262.37 16.5215 262.017 17.2465C261.669 17.9715 261.494 18.861 261.494 19.9148C261.494 20.9686 261.669 21.858 262.017 22.583C262.37 23.308 262.843 23.8567 263.438 24.2291C264.036 24.6015 264.703 24.7877 265.44 24.7877C266.177 24.7877 266.843 24.6015 267.437 24.2291C268.035 23.8567 268.509 23.308 268.857 22.583C269.21 21.858 269.386 20.9686 269.386 19.9148Z" fill="#246677"/>
<path d="M253.89 39.9805H253.172C253.129 39.7739 253.055 39.5924 252.949 39.4359C252.844 39.2795 252.717 39.1482 252.566 39.042C252.418 38.9339 252.253 38.8528 252.071 38.7987C251.89 38.7447 251.7 38.7176 251.503 38.7176C251.144 38.7176 250.819 38.8084 250.527 38.9899C250.238 39.1714 250.007 39.4388 249.835 39.7922C249.665 40.1456 249.58 40.5791 249.58 41.0927C249.58 41.6063 249.665 42.0398 249.835 42.3932C250.007 42.7465 250.238 43.014 250.527 43.1955C250.819 43.377 251.144 43.4677 251.503 43.4677C251.7 43.4677 251.89 43.4407 252.071 43.3866C252.253 43.3326 252.418 43.2524 252.566 43.1462C252.717 43.0381 252.844 42.9058 252.949 42.7494C253.055 42.5911 253.129 42.4096 253.172 42.2049H253.89C253.836 42.5081 253.737 42.7794 253.595 43.0188C253.452 43.2582 253.274 43.4619 253.062 43.6299C252.849 43.796 252.611 43.9225 252.346 44.0094C252.084 44.0962 251.803 44.1397 251.503 44.1397C250.997 44.1397 250.548 44.0161 250.154 43.769C249.76 43.5218 249.45 43.1704 249.224 42.7147C248.998 42.259 248.885 41.7183 248.885 41.0927C248.885 40.4671 248.998 39.9264 249.224 39.4707C249.45 39.015 249.76 38.6636 250.154 38.4164C250.548 38.1693 250.997 38.0457 251.503 38.0457C251.803 38.0457 252.084 38.0891 252.346 38.176C252.611 38.2629 252.849 38.3903 253.062 38.5583C253.274 38.7244 253.452 38.9271 253.595 39.1666C253.737 39.4041 253.836 39.6754 253.89 39.9805ZM255.398 45.7269C255.282 45.7269 255.179 45.7173 255.088 45.698C254.998 45.6806 254.935 45.6632 254.9 45.6458L255.074 45.0434C255.24 45.0858 255.387 45.1013 255.514 45.0897C255.642 45.0781 255.755 45.0212 255.853 44.9188C255.953 44.8184 256.045 44.6553 256.128 44.4293L256.256 44.0818L254.61 39.6097H255.352L256.58 43.1549H256.626L257.854 39.6097H258.596L256.707 44.7074C256.623 44.9372 256.517 45.1274 256.392 45.278C256.266 45.4305 256.12 45.5435 255.954 45.6169C255.79 45.6902 255.605 45.7269 255.398 45.7269ZM258.73 44.0586V43.4214H258.892C259.025 43.4214 259.136 43.3953 259.225 43.3432C259.314 43.2891 259.385 43.1955 259.439 43.0622C259.495 42.9271 259.538 42.7398 259.567 42.5003C259.598 42.259 259.62 41.9519 259.634 41.5793L259.715 39.6097H262.681V44.0586H261.997V40.2469H260.363L260.294 41.8342C260.278 42.1991 260.246 42.5206 260.195 42.7987C260.147 43.0748 260.073 43.3065 259.972 43.4938C259.874 43.6811 259.743 43.8221 259.579 43.9167C259.414 44.0113 259.209 44.0586 258.962 44.0586H258.73ZM264.526 41.2201H265.8C266.321 41.2201 266.72 41.3524 266.996 41.6169C267.272 41.8815 267.41 42.2165 267.41 42.622C267.41 42.8884 267.349 43.1308 267.225 43.349C267.101 43.5652 266.92 43.7381 266.68 43.8674C266.441 43.9949 266.148 44.0586 265.8 44.0586H263.935V39.6097H264.618V43.4214H265.8C266.07 43.4214 266.292 43.3499 266.466 43.2071C266.64 43.0642 266.727 42.8807 266.727 42.6567C266.727 42.4212 266.64 42.229 266.466 42.0804C266.292 41.9317 266.07 41.8573 265.8 41.8573H264.526V41.2201ZM270.258 45.5763V38.1268H270.942V45.5763H270.258ZM270.258 44.1513C269.957 44.1513 269.683 44.0972 269.436 43.9891C269.189 43.879 268.976 43.7236 268.798 43.5228C268.621 43.32 268.484 43.0777 268.387 42.7958C268.291 42.5138 268.242 42.201 268.242 41.8573C268.242 41.5098 268.291 41.195 268.387 40.9131C268.484 40.6293 268.621 40.386 268.798 40.1832C268.976 39.9805 269.189 39.825 269.436 39.7169C269.683 39.6068 269.957 39.5518 270.258 39.5518H270.467V44.1513H270.258ZM270.258 43.5372H270.374V40.1658H270.258C270.03 40.1658 269.832 40.2122 269.664 40.3049C269.497 40.3956 269.357 40.5202 269.247 40.6785C269.139 40.8349 269.058 41.0145 269.004 41.2172C268.952 41.42 268.926 41.6333 268.926 41.8573C268.926 42.1547 268.973 42.4308 269.068 42.6857C269.162 42.9406 269.308 43.1462 269.505 43.3026C269.702 43.459 269.953 43.5372 270.258 43.5372ZM270.942 44.1513H270.733V39.5518H270.942C271.243 39.5518 271.517 39.6068 271.764 39.7169C272.012 39.825 272.224 39.9805 272.402 40.1832C272.579 40.386 272.716 40.6293 272.813 40.9131C272.909 41.195 272.958 41.5098 272.958 41.8573C272.958 42.201 272.909 42.5138 272.813 42.7958C272.716 43.0777 272.579 43.32 272.402 43.5228C272.224 43.7236 272.012 43.879 271.764 43.9891C271.517 44.0972 271.243 44.1513 270.942 44.1513ZM270.942 43.5372C271.172 43.5372 271.37 43.4928 271.536 43.404C271.704 43.3133 271.842 43.1897 271.95 43.0333C272.06 42.8749 272.141 42.6954 272.193 42.4945C272.247 42.2918 272.274 42.0794 272.274 41.8573C272.274 41.56 272.227 41.2829 272.132 41.0261C272.038 40.7693 271.892 40.5617 271.695 40.4033C271.498 40.245 271.247 40.1658 270.942 40.1658H270.826V43.5372H270.942ZM275.312 44.1629C275.03 44.1629 274.774 44.1098 274.544 44.0036C274.314 43.8954 274.132 43.74 273.997 43.5372C273.862 43.3326 273.794 43.0854 273.794 42.7958C273.794 42.5409 273.844 42.3343 273.945 42.1759C274.045 42.0157 274.179 41.8902 274.347 41.7994C274.515 41.7087 274.701 41.6411 274.903 41.5967C275.108 41.5503 275.314 41.5136 275.52 41.4866C275.791 41.4518 276.01 41.4258 276.178 41.4084C276.348 41.3891 276.471 41.3572 276.549 41.3128C276.628 41.2684 276.667 41.1912 276.667 41.0811V41.0579C276.667 40.7722 276.589 40.5501 276.433 40.3918C276.278 40.2334 276.044 40.1543 275.729 40.1543C275.402 40.1543 275.147 40.2257 274.961 40.3686C274.776 40.5115 274.646 40.664 274.57 40.8262L273.921 40.5945C274.037 40.3242 274.192 40.1137 274.385 39.9631C274.58 39.8105 274.792 39.7043 275.022 39.6445C275.254 39.5827 275.482 39.5518 275.706 39.5518C275.849 39.5518 276.013 39.5692 276.198 39.6039C276.385 39.6368 276.566 39.7053 276.74 39.8096C276.915 39.9139 277.061 40.0712 277.177 40.2817C277.293 40.4922 277.351 40.7741 277.351 41.1274V44.0586H276.667V43.4561H276.633C276.586 43.5527 276.509 43.656 276.401 43.7661C276.293 43.8761 276.149 43.9698 275.969 44.047C275.79 44.1242 275.57 44.1629 275.312 44.1629ZM275.416 43.5488C275.686 43.5488 275.914 43.4957 276.1 43.3895C276.287 43.2833 276.428 43.1462 276.522 42.9782C276.619 42.8102 276.667 42.6336 276.667 42.4482V41.8226C276.638 41.8573 276.575 41.8892 276.476 41.9182C276.38 41.9452 276.268 41.9693 276.14 41.9906C276.015 42.0099 275.892 42.0273 275.772 42.0427C275.654 42.0562 275.559 42.0678 275.486 42.0775C275.308 42.1006 275.142 42.1383 274.987 42.1904C274.835 42.2406 274.711 42.3169 274.617 42.4192C274.524 42.5196 274.478 42.6567 274.478 42.8305C274.478 43.068 274.565 43.2476 274.741 43.3693C274.919 43.489 275.144 43.5488 275.416 43.5488ZM277.993 40.2469V39.6097H281.608V40.2469H280.148V44.0586H279.464V40.2469H277.993ZM283.196 41.2201H284.47C284.991 41.2201 285.39 41.3524 285.666 41.6169C285.942 41.8815 286.081 42.2165 286.081 42.622C286.081 42.8884 286.019 43.1308 285.895 43.349C285.772 43.5652 285.59 43.7381 285.351 43.8674C285.111 43.9949 284.818 44.0586 284.47 44.0586H282.605V39.6097H283.288V43.4214H284.47C284.74 43.4214 284.963 43.3499 285.136 43.2071C285.31 43.0642 285.397 42.8807 285.397 42.6567C285.397 42.4212 285.31 42.229 285.136 42.0804C284.963 41.9317 284.74 41.8573 284.47 41.8573H283.196V41.2201ZM286.787 44.0586V39.6097H287.471V44.0586H286.787Z" fill="#246677"/>
<path d="M273.712 28.4663V27.8143L276.588 23.2631H277.061V24.2731H276.741L274.568 27.712V27.7631H278.442V28.4663H273.712ZM276.793 29.8086V28.2681V27.9645V23.2631H277.547V29.8086H276.793Z" fill="#246677"/>
<path d="M252.2 73.148C251.502 73.148 250.88 73.0282 250.334 72.7886C249.791 72.549 249.36 72.216 249.039 71.7897C248.722 71.3599 248.549 70.8613 248.521 70.294H249.853C249.881 70.6428 250.001 70.9441 250.212 71.1978C250.424 71.4479 250.7 71.6417 251.042 71.7791C251.384 71.9166 251.763 71.9853 252.178 71.9853C252.644 71.9853 253.056 71.9042 253.415 71.7421C253.775 71.5801 254.056 71.3546 254.261 71.0657C254.465 70.7767 254.567 70.442 254.567 70.0615C254.567 69.6633 254.469 69.3128 254.271 69.0098C254.074 68.7032 253.785 68.4636 253.405 68.291C253.024 68.1183 252.559 68.032 252.009 68.032H251.143V66.8693H252.009C252.439 66.8693 252.816 66.7918 253.14 66.6368C253.468 66.4817 253.723 66.2633 253.907 65.9814C254.093 65.6995 254.187 65.3683 254.187 64.9878C254.187 64.6214 254.106 64.3025 253.944 64.0312C253.782 63.7599 253.553 63.5485 253.257 63.397C252.964 63.2455 252.619 63.1697 252.221 63.1697C251.847 63.1697 251.495 63.2384 251.164 63.3759C250.836 63.5097 250.568 63.7053 250.36 63.9625C250.153 64.2162 250.04 64.5227 250.022 64.8821H248.754C248.775 64.3148 248.946 63.818 249.266 63.3917C249.587 62.9619 250.006 62.6271 250.524 62.3875C251.046 62.1479 251.618 62.0282 252.242 62.0282C252.911 62.0282 253.486 62.1638 253.965 62.4351C254.444 62.7029 254.812 63.057 255.069 63.4974C255.327 63.9378 255.455 64.4135 255.455 64.9244C255.455 65.5339 255.295 66.0536 254.974 66.4835C254.657 66.9133 254.226 67.2111 253.679 67.3767V67.4612C254.363 67.574 254.897 67.8647 255.281 68.3333C255.665 68.7984 255.857 69.3744 255.857 70.0615C255.857 70.6499 255.697 71.1784 255.376 71.647C255.059 72.1121 254.625 72.4785 254.076 72.7463C253.526 73.0141 252.901 73.148 252.2 73.148ZM261.464 62.0282C261.908 62.0317 262.352 62.1162 262.796 62.2818C263.24 62.4474 263.645 62.7223 264.012 63.1063C264.378 63.4868 264.672 64.0065 264.894 64.6654C265.116 65.3243 265.227 66.1505 265.227 67.1441C265.227 68.106 265.136 68.9604 264.953 69.7074C264.773 70.4508 264.512 71.078 264.17 71.5889C263.832 72.0998 263.42 72.4873 262.934 72.7516C262.451 73.0159 261.905 73.148 261.295 73.148C260.689 73.148 260.148 73.0282 259.673 72.7886C259.201 72.5455 258.813 72.209 258.51 71.7791C258.211 71.3458 258.018 70.8437 257.934 70.2729H259.223C259.34 70.7697 259.571 71.1802 259.916 71.5043C260.265 71.8249 260.724 71.9853 261.295 71.9853C262.13 71.9853 262.789 71.6206 263.272 70.8912C263.758 70.1619 264.001 69.1313 264.001 67.7995H263.917C263.719 68.0954 263.485 68.3509 263.214 68.5658C262.942 68.7807 262.641 68.9463 262.31 69.0626C261.979 69.1789 261.626 69.237 261.253 69.237C260.633 69.237 260.064 69.0837 259.546 68.7772C259.031 68.4672 258.619 68.0426 258.309 67.5035C258.003 66.9609 257.849 66.3408 257.849 65.6432C257.849 64.9808 257.997 64.3747 258.293 63.8251C258.593 63.2719 259.012 62.8315 259.551 62.5038C260.094 62.1761 260.731 62.0176 261.464 62.0282ZM261.464 63.1909C261.02 63.1909 260.621 63.3019 260.265 63.5238C259.912 63.7423 259.632 64.0382 259.424 64.4117C259.22 64.7817 259.118 65.1922 259.118 65.6432C259.118 66.0941 259.216 66.5046 259.414 66.8746C259.615 67.241 259.888 67.5335 260.233 67.7519C260.582 67.9668 260.978 68.0743 261.422 68.0743C261.757 68.0743 262.069 68.0091 262.358 67.8787C262.646 67.7449 262.898 67.5634 263.113 67.3344C263.332 67.1018 263.503 66.8393 263.626 66.5469C263.749 66.2509 263.811 65.9426 263.811 65.622C263.811 65.1992 263.709 64.8028 263.504 64.4329C263.304 64.0629 263.025 63.7634 262.669 63.5344C262.317 63.3054 261.915 63.1909 261.464 63.1909ZM271.978 67.0067V68.1694H267.242V67.0067H271.978ZM277.956 62.1761V73H276.646V63.5503H276.582L273.94 65.3049V63.9731L276.646 62.1761H277.956ZM284.6 73.148C283.804 73.148 283.125 72.9313 282.565 72.4979C282.005 72.061 281.577 71.4286 281.281 70.6006C280.985 69.769 280.837 68.7649 280.837 67.5881C280.837 66.4183 280.985 65.4194 281.281 64.5914C281.58 63.7599 282.01 63.1257 282.57 62.6888C283.134 62.2484 283.811 62.0282 284.6 62.0282C285.389 62.0282 286.064 62.2484 286.624 62.6888C287.188 63.1257 287.618 63.7599 287.914 64.5914C288.213 65.4194 288.363 66.4183 288.363 67.5881C288.363 68.7649 288.215 69.769 287.919 70.6006C287.623 71.4286 287.195 72.061 286.635 72.4979C286.074 72.9313 285.396 73.148 284.6 73.148ZM284.6 71.9853C285.389 71.9853 286.002 71.6047 286.439 70.8437C286.876 70.0826 287.094 68.9974 287.094 67.5881C287.094 66.6508 286.994 65.8528 286.793 65.1939C286.596 64.535 286.31 64.033 285.937 63.6877C285.567 63.3424 285.121 63.1697 284.6 63.1697C283.818 63.1697 283.206 63.5555 282.766 64.3272C282.325 65.0953 282.105 66.1822 282.105 67.5881C282.105 68.5253 282.204 69.3216 282.401 69.9769C282.599 70.6323 282.882 71.1308 283.252 71.4726C283.626 71.8144 284.075 71.9853 284.6 71.9853ZM293.902 73.148C293.105 73.148 292.427 72.9313 291.867 72.4979C291.307 72.061 290.879 71.4286 290.583 70.6006C290.287 69.769 290.139 68.7649 290.139 67.5881C290.139 66.4183 290.287 65.4194 290.583 64.5914C290.882 63.7599 291.312 63.1257 291.872 62.6888C292.436 62.2484 293.112 62.0282 293.902 62.0282C294.691 62.0282 295.366 62.2484 295.926 62.6888C296.49 63.1257 296.919 63.7599 297.215 64.5914C297.515 65.4194 297.665 66.4183 297.665 67.5881C297.665 68.7649 297.517 69.769 297.221 70.6006C296.925 71.4286 296.497 72.061 295.936 72.4979C295.376 72.9313 294.698 73.148 293.902 73.148ZM293.902 71.9853C294.691 71.9853 295.304 71.6047 295.741 70.8437C296.178 70.0826 296.396 68.9974 296.396 67.5881C296.396 66.6508 296.296 65.8528 296.095 65.1939C295.898 64.535 295.612 64.033 295.239 63.6877C294.869 63.3424 294.423 63.1697 293.902 63.1697C293.119 63.1697 292.508 63.5555 292.068 64.3272C291.627 65.0953 291.407 66.1822 291.407 67.5881C291.407 68.5253 291.506 69.3216 291.703 69.9769C291.9 70.6323 292.184 71.1308 292.554 71.4726C292.927 71.8144 293.377 71.9853 293.902 71.9853Z" fill="white"/>
<rect width="62.97" height="51" transform="translate(306.508 1.05859)" fill="white"/>
<path d="M326.454 17.5H324.957C324.868 17.0694 324.713 16.6911 324.492 16.3651C324.275 16.0391 324.009 15.7654 323.695 15.544C323.385 15.3187 323.041 15.1496 322.663 15.0369C322.284 14.9242 321.89 14.8679 321.479 14.8679C320.731 14.8679 320.053 15.0571 319.445 15.4354C318.841 15.8137 318.36 16.3711 318.002 17.1076C317.648 17.8441 317.471 18.7476 317.471 19.8182C317.471 20.8887 317.648 21.7923 318.002 22.5288C318.36 23.2653 318.841 23.8227 319.445 24.201C320.053 24.5793 320.731 24.7685 321.479 24.7685C321.89 24.7685 322.284 24.7121 322.663 24.5994C323.041 24.4867 323.385 24.3197 323.695 24.0984C324.009 23.873 324.275 23.5973 324.492 23.2713C324.713 22.9413 324.868 22.563 324.957 22.1364H326.454C326.341 22.7682 326.136 23.3337 325.838 23.8327C325.54 24.3318 325.17 24.7564 324.727 25.1065C324.285 25.4527 323.788 25.7163 323.236 25.8974C322.689 26.0785 322.103 26.169 321.479 26.169C320.425 26.169 319.487 25.9115 318.666 25.3963C317.845 24.8812 317.199 24.1487 316.728 23.1989C316.257 22.2491 316.022 21.1222 316.022 19.8182C316.022 18.5142 316.257 17.3873 316.728 16.4375C317.199 15.4877 317.845 14.7552 318.666 14.2401C319.487 13.7249 320.425 13.4673 321.479 13.4673C322.103 13.4673 322.689 13.5579 323.236 13.739C323.788 13.9201 324.285 14.1857 324.727 14.5359C325.17 14.882 325.54 15.3046 325.838 15.8036C326.136 16.2987 326.341 16.8641 326.454 17.5ZM330.105 13.6364V26H328.68V13.6364H330.105Z" fill="#246677"/>
<path d="M316.092 38.0245L317.648 40.5348H317.695L319.251 38.0245H320.111L318.213 41.0415L320.111 44.0586H319.251L317.695 41.5955H317.648L316.092 44.0586H315.232L317.176 41.0415L315.232 38.0245H316.092ZM320.567 44.0586V43.4104H320.732C320.867 43.4104 320.98 43.3839 321.071 43.3308C321.161 43.2759 321.234 43.1806 321.289 43.0451C321.346 42.9076 321.389 42.717 321.418 42.4735C321.45 42.2279 321.472 41.9156 321.486 41.5365L321.569 39.533H324.586V44.0586H323.89V40.1812H322.229L322.158 41.7958C322.142 42.167 322.109 42.4941 322.058 42.7769C322.009 43.0578 321.933 43.2935 321.831 43.4841C321.731 43.6746 321.597 43.818 321.43 43.9142C321.263 44.0105 321.054 44.0586 320.803 44.0586H320.567ZM327.7 44.1529C327.291 44.1529 326.933 44.0556 326.624 43.8612C326.318 43.6667 326.078 43.3947 325.906 43.0451C325.735 42.6954 325.649 42.2869 325.649 41.8194C325.649 41.348 325.735 40.9365 325.906 40.5849C326.078 40.2333 326.318 39.9602 326.624 39.7658C326.933 39.5713 327.291 39.4741 327.7 39.4741C328.108 39.4741 328.466 39.5713 328.772 39.7658C329.081 39.9602 329.32 40.2333 329.491 40.5849C329.664 40.9365 329.751 41.348 329.751 41.8194C329.751 42.2869 329.664 42.6954 329.491 43.0451C329.32 43.3947 329.081 43.6667 328.772 43.8612C328.466 44.0556 328.108 44.1529 327.7 44.1529ZM327.7 43.5283C328.01 43.5283 328.266 43.4487 328.466 43.2896C328.666 43.1305 328.815 42.9213 328.911 42.662C329.007 42.4028 329.055 42.1219 329.055 41.8194C329.055 41.5169 329.007 41.235 328.911 40.9738C328.815 40.7125 328.666 40.5014 328.466 40.3403C328.266 40.1793 328.01 40.0987 327.7 40.0987C327.39 40.0987 327.134 40.1793 326.934 40.3403C326.733 40.5014 326.585 40.7125 326.489 40.9738C326.393 41.235 326.345 41.5169 326.345 41.8194C326.345 42.1219 326.393 42.4028 326.489 42.662C326.585 42.9213 326.733 43.1305 326.934 43.2896C327.134 43.4487 327.39 43.5283 327.7 43.5283ZM330.812 45.7557V39.533H331.484V40.2519H331.566C331.617 40.1734 331.688 40.0732 331.778 39.9514C331.871 39.8277 332.002 39.7177 332.173 39.6214C332.346 39.5232 332.58 39.4741 332.874 39.4741C333.255 39.4741 333.591 39.5694 333.882 39.7599C334.173 39.9504 334.4 40.2205 334.563 40.5701C334.726 40.9198 334.807 41.3323 334.807 41.8076C334.807 42.2869 334.726 42.7023 334.563 43.0539C334.4 43.4035 334.174 43.6746 333.885 43.8671C333.596 44.0576 333.263 44.1529 332.886 44.1529C332.595 44.1529 332.363 44.1048 332.188 44.0085C332.013 43.9103 331.879 43.7993 331.784 43.6756C331.69 43.5499 331.617 43.4458 331.566 43.3633H331.507V45.7557H330.812ZM331.495 41.7958C331.495 42.1376 331.546 42.4391 331.646 42.7003C331.746 42.9596 331.892 43.1629 332.085 43.3102C332.277 43.4556 332.513 43.5283 332.792 43.5283C333.083 43.5283 333.325 43.4516 333.52 43.2984C333.716 43.1433 333.863 42.9351 333.962 42.6738C334.062 42.4106 334.112 42.1179 334.112 41.7958C334.112 41.4776 334.063 41.1908 333.965 40.9355C333.868 40.6782 333.722 40.4749 333.526 40.3256C333.331 40.1743 333.087 40.0987 332.792 40.0987C332.509 40.0987 332.271 40.1704 332.079 40.3138C331.886 40.4552 331.741 40.6536 331.643 40.909C331.545 41.1623 331.495 41.458 331.495 41.7958ZM336.563 43.0333L338.743 39.533H339.545V44.0586H338.85V40.5583L336.681 44.0586H335.868V39.533H336.563V43.0333ZM340.335 45.355V43.4104H340.712C340.805 43.3142 340.884 43.21 340.951 43.0981C341.018 42.9861 341.076 42.8535 341.125 42.7003C341.176 42.5452 341.219 42.3566 341.254 42.1346C341.29 41.9107 341.321 41.6406 341.349 41.3244L341.502 39.533H344.378V43.4104H345.073V45.355H344.378V44.0586H341.031V45.355H340.335ZM341.502 43.4104H343.682V40.1812H342.15L342.032 41.3244C341.983 41.7978 341.922 42.2112 341.85 42.5648C341.777 42.9184 341.661 43.2002 341.502 43.4104ZM346.597 41.1712H347.893C348.424 41.1712 348.829 41.3057 349.11 41.5748C349.391 41.8439 349.531 42.1847 349.531 42.5972C349.531 42.8683 349.469 43.1148 349.343 43.3367C349.217 43.5567 349.033 43.7325 348.789 43.8641C348.545 43.9938 348.247 44.0586 347.893 44.0586H345.996V39.533H346.691V43.4104H347.893C348.168 43.4104 348.394 43.3377 348.571 43.1924C348.748 43.047 348.836 42.8604 348.836 42.6326C348.836 42.3929 348.748 42.1975 348.571 42.0462C348.394 41.895 348.168 41.8194 347.893 41.8194H346.597V41.1712ZM350.25 44.0586V39.533H350.946V44.0586H350.25Z" fill="#246677"/>
<path d="M318.428 74.1445C317.822 74.1445 317.277 74.0241 316.792 73.7833C316.307 73.5425 315.918 73.2122 315.626 72.7925C315.333 72.3728 315.173 71.8946 315.146 71.358H316.384C316.432 71.8361 316.649 72.2318 317.035 72.5448C317.423 72.8544 317.888 73.0092 318.428 73.0092C318.861 73.0092 319.247 72.9077 319.584 72.7048C319.924 72.5018 320.191 72.2232 320.384 71.8688C320.58 71.511 320.678 71.1068 320.678 70.6562C320.678 70.1952 320.576 69.7841 320.373 69.4229C320.174 69.0582 319.898 68.771 319.548 68.5611C319.197 68.3513 318.796 68.2446 318.345 68.2412C318.022 68.2377 317.69 68.2876 317.349 68.3908C317.009 68.4906 316.728 68.6196 316.508 68.7778L315.311 68.6333L315.951 63.4318H321.441V64.5671H317.024L316.653 67.6839H316.715C316.931 67.5119 317.203 67.3691 317.53 67.2556C317.857 67.142 318.197 67.0853 318.552 67.0853C319.198 67.0853 319.775 67.2401 320.28 67.5497C320.789 67.8559 321.189 68.2756 321.477 68.8088C321.77 69.342 321.916 69.9509 321.916 70.6355C321.916 71.3098 321.765 71.9118 321.462 72.4416C321.163 72.968 320.75 73.3842 320.224 73.6904C319.697 73.9931 319.099 74.1445 318.428 74.1445ZM330.138 68.1483V69.2835H322.872V68.1483H330.138ZM331.232 74V73.0712L334.72 69.2526C335.129 68.8054 335.466 68.4166 335.731 68.0864C335.996 67.7527 336.192 67.4396 336.32 67.1472C336.45 66.8513 336.516 66.5417 336.516 66.2184C336.516 65.8468 336.426 65.5252 336.247 65.2534C336.072 64.9816 335.831 64.7718 335.525 64.6238C335.219 64.4759 334.875 64.4019 334.493 64.4019C334.087 64.4019 333.733 64.4862 333.43 64.6548C333.131 64.8199 332.898 65.0521 332.733 65.3514C332.572 65.6507 332.491 66.0016 332.491 66.4041H331.273C331.273 65.7849 331.416 65.2413 331.701 64.7735C331.987 64.3056 332.375 63.941 332.867 63.6795C333.363 63.4181 333.918 63.2873 334.534 63.2873C335.153 63.2873 335.702 63.4181 336.18 63.6795C336.658 63.941 337.033 64.2936 337.305 64.7374C337.577 65.1811 337.713 65.6748 337.713 66.2184C337.713 66.6071 337.642 66.9872 337.501 67.3588C337.364 67.7269 337.123 68.138 336.779 68.5921C336.438 69.0427 335.965 69.5932 335.36 70.2433L332.986 72.7822V72.8647H337.899V74H331.232ZM343.332 74.1445C342.727 74.1445 342.182 74.0241 341.697 73.7833C341.212 73.5425 340.823 73.2122 340.53 72.7925C340.238 72.3728 340.078 71.8946 340.05 71.358H341.289C341.337 71.8361 341.554 72.2318 341.939 72.5448C342.328 72.8544 342.792 73.0092 343.332 73.0092C343.766 73.0092 344.151 72.9077 344.488 72.7048C344.829 72.5018 345.095 72.2232 345.288 71.8688C345.484 71.511 345.582 71.1068 345.582 70.6562C345.582 70.1952 345.481 69.7841 345.278 69.4229C345.078 69.0582 344.803 68.771 344.452 68.5611C344.101 68.3513 343.701 68.2446 343.25 68.2412C342.926 68.2377 342.594 68.2876 342.254 68.3908C341.913 68.4906 341.633 68.6196 341.413 68.7778L340.216 68.6333L340.855 63.4318H346.346V64.5671H341.929L341.557 67.6839H341.619C341.836 67.5119 342.108 67.3691 342.435 67.2556C342.761 67.142 343.102 67.0853 343.456 67.0853C344.103 67.0853 344.679 67.2401 345.185 67.5497C345.694 67.8559 346.093 68.2756 346.382 68.8088C346.675 69.342 346.821 69.9509 346.821 70.6355C346.821 71.3098 346.669 71.9118 346.367 72.4416C346.067 72.968 345.655 73.3842 345.128 73.6904C344.602 73.9931 344.003 74.1445 343.332 74.1445Z" fill="white"/>
<rect width="66.47" height="51" transform="translate(173.441 1)" fill="white"/>
<path d="M183.415 13.8295H185.174L189.31 23.932H189.453L193.589 13.8295H195.348V26H193.969V16.7533H193.85L190.047 26H188.716L184.913 16.7533H184.794V26H183.415V13.8295ZM201.797 29.6131C201.12 29.6131 200.537 29.5259 200.05 29.3516C199.563 29.1813 199.157 28.9555 198.832 28.6742C198.511 28.3969 198.255 28.0997 198.065 27.7828L199.182 26.9984C199.309 27.1648 199.47 27.3549 199.664 27.5688C199.858 27.7867 200.123 27.9749 200.46 28.1334C200.801 28.2958 201.246 28.377 201.797 28.377C202.534 28.377 203.142 28.1988 203.622 27.8422C204.101 27.4857 204.341 26.927 204.341 26.1664V24.3123H204.222C204.119 24.4787 203.972 24.6847 203.782 24.9303C203.596 25.172 203.326 25.3879 202.974 25.5781C202.625 25.7643 202.154 25.8574 201.559 25.8574C200.823 25.8574 200.161 25.6831 199.575 25.3344C198.992 24.9858 198.531 24.4787 198.19 23.8131C197.853 23.1475 197.685 22.3394 197.685 21.3885C197.685 20.4536 197.849 19.6394 198.178 18.9461C198.507 18.2489 198.964 17.7101 199.551 17.3297C200.137 16.9455 200.815 16.7533 201.583 16.7533C202.177 16.7533 202.649 16.8524 202.998 17.0504C203.35 17.2446 203.62 17.4664 203.806 17.716C203.996 17.9616 204.142 18.1637 204.245 18.3222H204.388V16.8722H205.743V26.2615C205.743 27.0459 205.565 27.6837 205.208 28.175C204.856 28.6702 204.38 29.0327 203.782 29.2625C203.188 29.4962 202.526 29.6131 201.797 29.6131ZM201.75 24.5975C202.312 24.5975 202.788 24.4688 203.176 24.2113C203.564 23.9538 203.859 23.5833 204.061 23.1C204.263 22.6167 204.364 22.0383 204.364 21.3648C204.364 20.7071 204.265 20.1267 204.067 19.6236C203.869 19.1204 203.576 18.7263 203.188 18.441C202.799 18.1558 202.32 18.0131 201.75 18.0131C201.155 18.0131 200.66 18.1637 200.264 18.4648C199.872 18.7659 199.577 19.17 199.378 19.6771C199.184 20.1842 199.087 20.7467 199.087 21.3648C199.087 21.9986 199.186 22.5592 199.384 23.0465C199.586 23.5299 199.884 23.9102 200.276 24.1875C200.672 24.4609 201.163 24.5975 201.75 24.5975Z" fill="#246677"/>
<path d="M182.697 37.7614H183.599L185.719 42.9399H185.792L187.912 37.7614H188.814V44H188.107V39.2601H188.046L186.096 44H185.414L183.465 39.2601H183.404V44H182.697V37.7614ZM191.608 44.1097C191.311 44.1097 191.042 44.0538 190.801 43.9421C190.559 43.8284 190.367 43.6649 190.225 43.4517C190.083 43.2364 190.012 42.9765 190.012 42.6719C190.012 42.4038 190.064 42.1865 190.17 42.02C190.276 41.8514 190.417 41.7194 190.593 41.624C190.77 41.5285 190.965 41.4574 191.178 41.4107C191.394 41.362 191.61 41.3234 191.827 41.295C192.111 41.2584 192.342 41.231 192.519 41.2127C192.697 41.1924 192.827 41.1589 192.909 41.1122C192.992 41.0655 193.033 40.9843 193.033 40.8685V40.8441C193.033 40.5436 192.951 40.31 192.787 40.1435C192.624 39.977 192.377 39.8937 192.046 39.8937C191.703 39.8937 191.434 39.9688 191.239 40.1191C191.044 40.2694 190.907 40.4298 190.828 40.6004L190.146 40.3567C190.267 40.0724 190.43 39.8511 190.633 39.6927C190.838 39.5322 191.062 39.4205 191.303 39.3576C191.547 39.2926 191.787 39.2601 192.022 39.2601C192.172 39.2601 192.345 39.2784 192.54 39.3149C192.737 39.3495 192.927 39.4215 193.11 39.5312C193.294 39.6409 193.448 39.8064 193.57 40.0277C193.691 40.2491 193.752 40.5456 193.752 40.9172V44H193.033V43.3664H192.997C192.948 43.4679 192.867 43.5766 192.753 43.6923C192.639 43.8081 192.488 43.9066 192.299 43.9878C192.11 44.069 191.88 44.1097 191.608 44.1097ZM191.717 43.4639C192.002 43.4639 192.241 43.408 192.436 43.2963C192.633 43.1846 192.782 43.0404 192.881 42.8638C192.983 42.6871 193.033 42.5013 193.033 42.3063V41.6483C193.003 41.6849 192.936 41.7184 192.832 41.7489C192.731 41.7773 192.613 41.8027 192.479 41.825C192.347 41.8453 192.218 41.8636 192.092 41.8798C191.968 41.8941 191.868 41.9062 191.791 41.9164C191.604 41.9408 191.429 41.9804 191.267 42.0352C191.106 42.088 190.976 42.1682 190.877 42.2758C190.779 42.3814 190.73 42.5256 190.73 42.7084C190.73 42.9582 190.823 43.1471 191.008 43.275C191.195 43.4009 191.431 43.4639 191.717 43.4639ZM197.952 39.321V39.9912H195.783V44H195.064V39.321H197.952ZM202.133 41.3315V42.0017H199.55V41.3315H202.133ZM199.721 39.321V44H199.002V39.321H199.721ZM202.682 39.321V44H201.963V39.321H202.682ZM204.713 42.9399L206.968 39.321H207.796V44H207.077V40.3811L204.835 44H203.994V39.321H204.713V42.9399ZM209.832 42.9399L212.086 39.321H212.914V44H212.196V40.3811L209.954 44H209.113V39.321H209.832V42.9399ZM211.611 37.7614H212.281C212.281 38.0904 212.167 38.3594 211.94 38.5686C211.712 38.7778 211.404 38.8824 211.014 38.8824C210.63 38.8824 210.324 38.7778 210.097 38.5686C209.871 38.3594 209.759 38.0904 209.759 37.7614H210.429C210.429 37.9198 210.472 38.0589 210.56 38.1787C210.649 38.2985 210.8 38.3584 211.014 38.3584C211.227 38.3584 211.379 38.2985 211.471 38.1787C211.564 38.0589 211.611 37.9198 211.611 37.7614Z" fill="#246677"/>
<path d="M185.727 73.148C185.029 73.148 184.407 73.0282 183.861 72.7886C183.319 72.549 182.887 72.216 182.566 71.7897C182.249 71.3599 182.077 70.8613 182.049 70.294H183.38C183.409 70.6428 183.528 70.9441 183.74 71.1978C183.951 71.4479 184.228 71.6417 184.57 71.7791C184.911 71.9166 185.29 71.9853 185.706 71.9853C186.171 71.9853 186.583 71.9042 186.943 71.7421C187.302 71.5801 187.584 71.3546 187.788 71.0657C187.992 70.7767 188.095 70.442 188.095 70.0615C188.095 69.6633 187.996 69.3128 187.799 69.0098C187.601 68.7032 187.312 68.4636 186.932 68.291C186.551 68.1183 186.086 68.032 185.537 68.032H184.67V66.8693H185.537C185.967 66.8693 186.344 66.7918 186.668 66.6368C186.995 66.4817 187.251 66.2633 187.434 65.9814C187.621 65.6995 187.714 65.3683 187.714 64.9878C187.714 64.6214 187.633 64.3025 187.471 64.0312C187.309 63.7599 187.08 63.5485 186.784 63.397C186.492 63.2455 186.146 63.1697 185.748 63.1697C185.375 63.1697 185.022 63.2384 184.691 63.3759C184.363 63.5097 184.096 63.7053 183.888 63.9625C183.68 64.2162 183.567 64.5227 183.549 64.8821H182.281C182.302 64.3148 182.473 63.818 182.794 63.3917C183.114 62.9619 183.534 62.6271 184.052 62.3875C184.573 62.1479 185.146 62.0282 185.769 62.0282C186.439 62.0282 187.013 62.1638 187.492 62.4351C187.971 62.7029 188.34 63.057 188.597 63.4974C188.854 63.9378 188.983 64.4135 188.983 64.9244C188.983 65.5339 188.822 66.0536 188.502 66.4835C188.185 66.9133 187.753 67.2111 187.207 67.3767V67.4612C187.89 67.574 188.424 67.8647 188.808 68.3333C189.192 68.7984 189.384 69.3744 189.384 70.0615C189.384 70.6499 189.224 71.1784 188.903 71.647C188.586 72.1121 188.153 72.4785 187.603 72.7463C187.053 73.0141 186.428 73.148 185.727 73.148ZM191.292 70.7803V69.7021L196.049 62.1761H196.831V63.8462H196.302L192.709 69.533V69.6175H199.114V70.7803H191.292ZM196.387 73V70.4526V69.9505V62.1761H197.634V73H196.387Z" fill="white"/>
<path d="M369.48 1H456.12C458.882 1 461.12 3.23858 461.12 6V52H369.48V1Z" fill="white"/>
<path d="M388.664 14.3125V26H387.294L380.925 16.8235H380.811V26H379.396V14.3125H380.765L387.157 23.5118H387.271V14.3125H388.664ZM393.892 26.2054C393.337 26.2054 392.833 26.1008 392.38 25.8916C391.927 25.6785 391.568 25.3723 391.302 24.9728C391.035 24.5695 390.902 24.0825 390.902 23.5118C390.902 23.0096 391.001 22.6026 391.199 22.2906C391.397 21.9748 391.661 21.7275 391.992 21.5487C392.323 21.3699 392.688 21.2367 393.088 21.1492C393.491 21.0579 393.896 20.9856 394.303 20.9324C394.836 20.8639 395.268 20.8125 395.599 20.7783C395.934 20.7402 396.177 20.6775 396.329 20.59C396.485 20.5025 396.563 20.3503 396.563 20.1334V20.0878C396.563 19.5247 396.409 19.0872 396.101 18.7752C395.797 18.4632 395.334 18.3073 394.714 18.3073C394.071 18.3073 393.567 18.448 393.202 18.7296C392.837 19.0111 392.58 19.3116 392.431 19.6312L391.153 19.1747C391.381 18.642 391.686 18.2274 392.066 17.9306C392.451 17.63 392.869 17.4208 393.322 17.3029C393.778 17.1811 394.227 17.1202 394.669 17.1202C394.95 17.1202 395.273 17.1545 395.639 17.223C396.008 17.2876 396.363 17.4227 396.706 17.6281C397.052 17.8336 397.339 18.1437 397.568 18.5583C397.796 18.973 397.91 19.5285 397.91 20.2247V26H396.563V24.813H396.495C396.403 25.0032 396.251 25.2068 396.038 25.4236C395.825 25.6405 395.542 25.825 395.188 25.9772C394.834 26.1294 394.402 26.2054 393.892 26.2054ZM394.098 24.9956C394.63 24.9956 395.079 24.891 395.445 24.6817C395.814 24.4725 396.091 24.2024 396.278 23.8714C396.468 23.5404 396.563 23.1923 396.563 22.827V21.5944C396.506 21.6628 396.381 21.7256 396.187 21.7827C395.996 21.8359 395.776 21.8835 395.525 21.9254C395.277 21.9634 395.036 21.9976 394.8 22.0281C394.568 22.0547 394.379 22.0775 394.235 22.0966C393.885 22.1422 393.558 22.2164 393.253 22.3191C392.953 22.418 392.709 22.5683 392.523 22.77C392.34 22.9678 392.249 23.2379 392.249 23.5803C392.249 24.0483 392.422 24.4021 392.768 24.6418C393.118 24.8777 393.561 24.9956 394.098 24.9956Z" fill="#246677"/>
<path d="M402.457 17.5845V13.2635H403.317V17.5845H402.457ZM400.728 15.8523V14.9925H405.049V15.8523H400.728Z" fill="#246677"/>
<path d="M416.636 23.9545V16.4545H417.909V23.9545H416.636ZM413.523 20.8409V19.5682H421.023V20.8409H413.523ZM423.956 26V14.3636H425.365V20.1364H425.501L430.729 14.3636H432.57L427.683 19.6136L432.57 26H430.865L426.82 20.5909L425.365 22.2273V26H423.956Z" fill="#246677"/>
<path d="M378.699 44V38.0682H379.417V40.7097H382.58V38.0682H383.298V44H382.58V41.3469H379.417V44H378.699ZM385.953 44.1043C385.671 44.1043 385.415 44.0512 385.185 43.945C384.955 43.8368 384.773 43.6814 384.638 43.4786C384.503 43.274 384.435 43.0268 384.435 42.7372C384.435 42.4823 384.485 42.2757 384.586 42.1173C384.686 41.9571 384.82 41.8316 384.988 41.7408C385.156 41.6501 385.342 41.5825 385.544 41.5381C385.749 41.4917 385.955 41.455 386.161 41.428C386.432 41.3932 386.651 41.3672 386.819 41.3498C386.989 41.3305 387.112 41.2986 387.19 41.2542C387.269 41.2098 387.308 41.1326 387.308 41.0225V40.9993C387.308 40.7136 387.23 40.4915 387.074 40.3332C386.919 40.1748 386.685 40.0957 386.37 40.0957C386.044 40.0957 385.788 40.1671 385.602 40.31C385.417 40.4529 385.287 40.6054 385.211 40.7676L384.563 40.5359C384.678 40.2656 384.833 40.0551 385.026 39.9045C385.221 39.752 385.433 39.6458 385.663 39.5859C385.895 39.5241 386.123 39.4932 386.347 39.4932C386.49 39.4932 386.654 39.5106 386.839 39.5453C387.026 39.5782 387.207 39.6467 387.381 39.751C387.556 39.8553 387.702 40.0126 387.818 40.2231C387.934 40.4336 387.992 40.7155 387.992 41.0688V44H387.308V43.3975H387.274C387.227 43.4941 387.15 43.5974 387.042 43.7075C386.934 43.8175 386.79 43.9112 386.61 43.9884C386.431 44.0657 386.212 44.1043 385.953 44.1043ZM386.057 43.4902C386.327 43.4902 386.555 43.4371 386.741 43.3309C386.928 43.2247 387.069 43.0876 387.163 42.9196C387.26 42.7517 387.308 42.575 387.308 42.3896V41.764C387.279 41.7987 387.216 41.8306 387.117 41.8596C387.021 41.8866 386.909 41.9107 386.781 41.932C386.656 41.9513 386.533 41.9687 386.413 41.9841C386.296 41.9976 386.2 42.0092 386.127 42.0189C385.949 42.042 385.783 42.0797 385.628 42.1318C385.476 42.182 385.352 42.2583 385.258 42.3606C385.165 42.461 385.119 42.5981 385.119 42.7719C385.119 43.0094 385.206 43.189 385.382 43.3107C385.56 43.4304 385.785 43.4902 386.057 43.4902ZM388.634 40.1883V39.5511H392.249V40.1883H390.789V44H390.106V40.1883H388.634ZM393.246 45.6683V39.5511H393.906V40.2579H393.987C394.038 40.1806 394.107 40.0821 394.196 39.9624C394.287 39.8408 394.416 39.7326 394.584 39.638C394.754 39.5415 394.984 39.4932 395.273 39.4932C395.648 39.4932 395.978 39.5869 396.264 39.7742C396.55 39.9615 396.773 40.227 396.933 40.5707C397.093 40.9144 397.173 41.3199 397.173 41.7872C397.173 42.2583 397.093 42.6667 396.933 43.0123C396.773 43.356 396.551 43.6225 396.267 43.8117C395.983 43.999 395.656 44.0927 395.285 44.0927C394.999 44.0927 394.77 44.0454 394.599 43.9508C394.427 43.8542 394.294 43.7451 394.202 43.6235C394.109 43.4999 394.038 43.3975 393.987 43.3165H393.929V45.6683H393.246ZM393.918 41.7756C393.918 42.1116 393.967 42.4079 394.066 42.6648C394.164 42.9196 394.308 43.1195 394.497 43.2643C394.686 43.4072 394.918 43.4786 395.192 43.4786C395.478 43.4786 395.717 43.4033 395.908 43.2527C396.101 43.1002 396.246 42.8955 396.342 42.6387C396.441 42.3799 396.49 42.0922 396.49 41.7756C396.49 41.4628 396.442 41.1808 396.345 40.9298C396.25 40.6769 396.107 40.477 395.914 40.3303C395.722 40.1816 395.482 40.1072 395.192 40.1072C394.914 40.1072 394.681 40.1777 394.491 40.3187C394.302 40.4577 394.159 40.6527 394.063 40.9038C393.966 41.1528 393.918 41.4434 393.918 41.7756ZM398.9 42.9921L401.043 39.5511H401.831V44H401.147V40.5591L399.016 44H398.216V39.5511H398.9V42.9921ZM403.766 42.9921L405.91 39.5511H406.698V44H406.014V40.5591L403.882 44H403.083V39.5511H403.766V42.9921ZM405.458 38.0682H406.095C406.095 38.381 405.987 38.6368 405.771 38.8357C405.554 39.0346 405.261 39.1341 404.89 39.1341C404.525 39.1341 404.235 39.0346 404.018 38.8357C403.804 38.6368 403.697 38.381 403.697 38.0682H404.334C404.334 38.2188 404.376 38.3511 404.459 38.465C404.544 38.5789 404.687 38.6359 404.89 38.6359C405.093 38.6359 405.238 38.5789 405.325 38.465C405.413 38.3511 405.458 38.2188 405.458 38.0682ZM411.981 42.9573V39.1341H412.63V42.9573H411.981ZM410.394 41.3701V40.7213H414.217V41.3701H410.394ZM421.494 44L419.455 41.2774H418.725V44H418.006V38.0682H418.725V40.6402H419.038L421.413 38.0682H422.27L419.872 40.6749L422.351 44H421.494ZM424.496 44.1043C424.214 44.1043 423.958 44.0512 423.728 43.945C423.499 43.8368 423.316 43.6814 423.181 43.4786C423.046 43.274 422.978 43.0268 422.978 42.7372C422.978 42.4823 423.028 42.2757 423.129 42.1173C423.229 41.9571 423.363 41.8316 423.531 41.7408C423.699 41.6501 423.885 41.5825 424.087 41.5381C424.292 41.4917 424.498 41.455 424.704 41.428C424.975 41.3932 425.194 41.3672 425.362 41.3498C425.532 41.3305 425.655 41.2986 425.733 41.2542C425.812 41.2098 425.851 41.1326 425.851 41.0225V40.9993C425.851 40.7136 425.773 40.4915 425.617 40.3332C425.462 40.1748 425.228 40.0957 424.913 40.0957C424.587 40.0957 424.331 40.1671 424.145 40.31C423.96 40.4529 423.83 40.6054 423.754 40.7676L423.106 40.5359C423.221 40.2656 423.376 40.0551 423.569 39.9045C423.764 39.752 423.976 39.6458 424.206 39.5859C424.438 39.5241 424.666 39.4932 424.89 39.4932C425.033 39.4932 425.197 39.5106 425.382 39.5453C425.569 39.5782 425.75 39.6467 425.924 39.751C426.099 39.8553 426.245 40.0126 426.361 40.2231C426.477 40.4336 426.535 40.7155 426.535 41.0688V44H425.851V43.3975H425.817C425.77 43.4941 425.693 43.5974 425.585 43.7075C425.477 43.8175 425.333 43.9112 425.153 43.9884C424.974 44.0657 424.755 44.1043 424.496 44.1043ZM424.6 43.4902C424.87 43.4902 425.098 43.4371 425.284 43.3309C425.471 43.2247 425.612 43.0876 425.707 42.9196C425.803 42.7517 425.851 42.575 425.851 42.3896V41.764C425.822 41.7987 425.759 41.8306 425.66 41.8596C425.564 41.8866 425.452 41.9107 425.324 41.932C425.199 41.9513 425.076 41.9687 424.956 41.9841C424.839 41.9976 424.743 42.0092 424.67 42.0189C424.492 42.042 424.326 42.0797 424.171 42.1318C424.019 42.182 423.895 42.2583 423.801 42.3606C423.708 42.461 423.662 42.5981 423.662 42.7719C423.662 43.0094 423.75 43.189 423.925 43.3107C424.103 43.4304 424.328 43.4902 424.6 43.4902ZM427.389 44V43.3628H427.551C427.684 43.3628 427.795 43.3367 427.884 43.2846C427.973 43.2305 428.044 43.1369 428.098 43.0036C428.154 42.8685 428.197 42.6812 428.226 42.4417C428.257 42.2004 428.279 41.8934 428.292 41.5207L428.373 39.5511H431.339V44H430.656V40.1883H429.022L428.953 41.7756C428.937 42.1405 428.904 42.462 428.854 42.7401C428.806 43.0162 428.732 43.2479 428.631 43.4352C428.533 43.6225 428.401 43.7635 428.237 43.8581C428.073 43.9527 427.868 44 427.62 44H427.389ZM433.277 42.9921L435.42 39.5511H436.208V44H435.525V40.5591L433.393 44H432.593V39.5511H433.277V42.9921ZM438.144 42.9921L440.287 39.5511H441.075V44H440.391V40.5591L438.26 44H437.46V39.5511H438.144V42.9921ZM439.835 38.0682H440.472C440.472 38.381 440.364 38.6368 440.148 38.8357C439.932 39.0346 439.638 39.1341 439.267 39.1341C438.903 39.1341 438.612 39.0346 438.396 38.8357C438.181 38.6368 438.074 38.381 438.074 38.0682H438.711C438.711 38.2188 438.753 38.3511 438.836 38.465C438.921 38.5789 439.065 38.6359 439.267 38.6359C439.47 38.6359 439.615 38.5789 439.702 38.465C439.791 38.3511 439.835 38.2188 439.835 38.0682Z" fill="#246677"/>
<path d="M437.266 17.5845V13.2635H438.125V17.5845H437.266ZM435.537 15.8523V14.9925H439.858V15.8523H435.537Z" fill="#246677"/>
<path d="M381.926 63.1761V74H380.615V64.5503H380.552L377.909 66.3049V64.9731L380.615 63.1761H381.926ZM388.569 74.148C387.773 74.148 387.095 73.9313 386.534 73.4979C385.974 73.061 385.546 72.4286 385.25 71.6006C384.954 70.769 384.806 69.7649 384.806 68.5881C384.806 67.4183 384.954 66.4194 385.25 65.5914C385.55 64.7599 385.979 64.1257 386.54 63.6888C387.103 63.2484 387.78 63.0282 388.569 63.0282C389.358 63.0282 390.033 63.2484 390.593 63.6888C391.157 64.1257 391.587 64.7599 391.883 65.5914C392.182 66.4194 392.332 67.4183 392.332 68.5881C392.332 69.7649 392.184 70.769 391.888 71.6006C391.592 72.4286 391.164 73.061 390.604 73.4979C390.044 73.9313 389.365 74.148 388.569 74.148ZM388.569 72.9853C389.358 72.9853 389.971 72.6047 390.408 71.8437C390.845 71.0826 391.064 69.9974 391.064 68.5881C391.064 67.6508 390.963 66.8528 390.762 66.1939C390.565 65.535 390.28 65.033 389.906 64.6877C389.536 64.3424 389.091 64.1697 388.569 64.1697C387.787 64.1697 387.176 64.5555 386.735 65.3272C386.295 66.0953 386.074 67.1822 386.074 68.5881C386.074 69.5253 386.173 70.3216 386.37 70.9769C386.568 71.6323 386.851 72.1308 387.221 72.4726C387.595 72.8144 388.044 72.9853 388.569 72.9853Z" fill="white"/>
</svg>
