<svg width="463" height="87" viewBox="0 0 463 87" fill="none" xmlns="http://www.w3.org/2000/svg">
<rect x="0.5" y="0.558594" width="461.16" height="85.06" rx="5.5" stroke="white"/>
<path d="M1 6.05859C1 3.29717 3.23858 1.05859 6 1.05859H97.97V52.0586H1V6.05859Z" fill="white"/>
<path d="M10.9855 26V13.733H12.4709V19.1956H19.0118V13.733H20.4972V26H19.0118V20.5134H12.4709V26H10.9855ZM33.3423 17.5664H31.8568C31.769 17.1391 31.6152 16.7638 31.3956 16.4403C31.18 16.1169 30.9164 15.8453 30.6049 15.6257C30.2975 15.4021 29.9561 15.2344 29.5807 15.1226C29.2053 15.0108 28.814 14.9549 28.4067 14.9549C27.664 14.9549 26.9911 15.1425 26.3882 15.5179C25.7892 15.8933 25.312 16.4463 24.9566 17.1771C24.6052 17.9078 24.4295 18.8043 24.4295 19.8665C24.4295 20.9287 24.6052 21.8251 24.9566 22.5559C25.312 23.2866 25.7892 23.8397 26.3882 24.215C26.9911 24.5904 27.664 24.7781 28.4067 24.7781C28.814 24.7781 29.2053 24.7222 29.5807 24.6104C29.9561 24.4986 30.2975 24.3328 30.6049 24.1132C30.9164 23.8896 31.18 23.6161 31.3956 23.2926C31.6152 22.9652 31.769 22.5898 31.8568 22.1665H33.3423C33.2305 22.7935 33.0268 23.3545 32.7313 23.8497C32.4358 24.3448 32.0684 24.7661 31.6292 25.1135C31.1899 25.4569 30.6968 25.7185 30.1497 25.8982C29.6067 26.0779 29.0256 26.1677 28.4067 26.1677C27.3605 26.1677 26.4301 25.9122 25.6155 25.401C24.8009 24.8899 24.16 24.1631 23.6928 23.2207C23.2256 22.2784 22.992 21.1603 22.992 19.8665C22.992 18.5727 23.2256 17.4546 23.6928 16.5122C24.16 15.5698 24.8009 14.8431 25.6155 14.3319C26.4301 13.8208 27.3605 13.5652 28.4067 13.5652C29.0256 13.5652 29.6067 13.6551 30.1497 13.8348C30.6968 14.0145 31.1899 14.278 31.6292 14.6254C32.0684 14.9688 32.4358 15.3881 32.7313 15.8833C33.0268 16.3744 33.2305 16.9355 33.3423 17.5664ZM46.093 19.8665C46.093 21.1603 45.8594 22.2784 45.3922 23.2207C44.925 24.1631 44.2841 24.8899 43.4695 25.401C42.6549 25.9122 41.7245 26.1677 40.6782 26.1677C39.632 26.1677 38.7016 25.9122 37.887 25.401C37.0724 24.8899 36.4315 24.1631 35.9643 23.2207C35.4971 22.2784 35.2635 21.1603 35.2635 19.8665C35.2635 18.5727 35.4971 17.4546 35.9643 16.5122C36.4315 15.5698 37.0724 14.8431 37.887 14.3319C38.7016 13.8208 39.632 13.5652 40.6782 13.5652C41.7245 13.5652 42.6549 13.8208 43.4695 14.3319C44.2841 14.8431 44.925 15.5698 45.3922 16.5122C45.8594 17.4546 46.093 18.5727 46.093 19.8665ZM44.6554 19.8665C44.6554 18.8043 44.4778 17.9078 44.1224 17.1771C43.771 16.4463 43.2938 15.8933 42.6908 15.5179C42.0918 15.1425 41.421 14.9549 40.6782 14.9549C39.9355 14.9549 39.2627 15.1425 38.6597 15.5179C38.0607 15.8933 37.5835 16.4463 37.2281 17.1771C36.8767 17.9078 36.701 18.8043 36.701 19.8665C36.701 20.9287 36.8767 21.8251 37.2281 22.5559C37.5835 23.2866 38.0607 23.8397 38.6597 24.215C39.2627 24.5904 39.9355 24.7781 40.6782 24.7781C41.421 24.7781 42.0918 24.5904 42.6908 24.215C43.2938 23.8397 43.771 23.2866 44.1224 22.5559C44.4778 21.8251 44.6554 20.9287 44.6554 19.8665Z" fill="#246677"/>
<path d="M14.3556 39.9102C14.2907 39.7118 14.2053 39.534 14.0992 39.3769C13.9951 39.2178 13.8704 39.0822 13.725 38.9703C13.5817 38.8583 13.4186 38.7729 13.236 38.7139C13.0533 38.655 12.8529 38.6256 12.6349 38.6256C12.2774 38.6256 11.9523 38.7179 11.6597 38.9025C11.367 39.0871 11.1342 39.3592 10.9614 39.7186C10.7885 40.0781 10.7021 40.5191 10.7021 41.0415C10.7021 41.564 10.7895 42.005 10.9643 42.3645C11.1391 42.7239 11.3758 42.9959 11.6744 43.1806C11.973 43.3652 12.3088 43.4575 12.682 43.4575C13.0277 43.4575 13.3322 43.3839 13.5954 43.2366C13.8606 43.0873 14.0668 42.8771 14.2141 42.6061C14.3634 42.333 14.4381 42.0119 14.4381 41.6426L14.662 41.6897H12.847V41.0415H15.1452V41.6897C15.1452 42.1867 15.0391 42.6188 14.827 42.9861C14.6168 43.3534 14.3261 43.6383 13.9549 43.8406C13.5856 44.0409 13.1613 44.1411 12.682 44.1411C12.1478 44.1411 11.6783 44.0154 11.2737 43.764C10.871 43.5125 10.5568 43.1551 10.3309 42.6915C10.1069 42.2279 9.99498 41.678 9.99498 41.0415C9.99498 40.5642 10.0588 40.1351 10.1865 39.754C10.3161 39.371 10.4988 39.0449 10.7345 38.7758C10.9702 38.5067 11.2491 38.3005 11.5713 38.1571C11.8934 38.0137 12.2479 37.942 12.6349 37.942C12.9531 37.942 13.2497 37.9901 13.5247 38.0864C13.8016 38.1807 14.0482 38.3152 14.2642 38.49C14.4822 38.6629 14.6639 38.8701 14.8093 39.1117C14.9546 39.3513 15.0548 39.6175 15.1098 39.9102H14.3556ZM16.5859 44.0586V39.533H17.2813V44.0586H16.5859ZM16.9395 38.7788C16.804 38.7788 16.6871 38.7326 16.5889 38.6403C16.4926 38.548 16.4445 38.437 16.4445 38.3074C16.4445 38.1777 16.4926 38.0667 16.5889 37.9744C16.6871 37.8821 16.804 37.8359 16.9395 37.8359C17.075 37.8359 17.1909 37.8821 17.2872 37.9744C17.3854 38.0667 17.4345 38.1777 17.4345 38.3074C17.4345 38.437 17.3854 38.548 17.2872 38.6403C17.1909 38.7326 17.075 38.7788 16.9395 38.7788ZM20.2637 44.1529C19.8866 44.1529 19.5536 44.0576 19.2649 43.8671C18.9761 43.6746 18.7503 43.4035 18.5872 43.0539C18.4242 42.7023 18.3427 42.2869 18.3427 41.8076C18.3427 41.3323 18.4242 40.9198 18.5872 40.5701C18.7503 40.2205 18.9771 39.9504 19.2678 39.7599C19.5585 39.5694 19.8944 39.4741 20.2755 39.4741C20.5701 39.4741 20.8029 39.5232 20.9738 39.6214C21.1466 39.7177 21.2782 39.8277 21.3686 39.9514C21.4609 40.0732 21.5326 40.1734 21.5837 40.2519H21.6426V38.0245H22.3379V44.0586H21.6661V43.3633H21.5837C21.5326 43.4458 21.4599 43.5499 21.3656 43.6756C21.2713 43.7993 21.1368 43.9103 20.962 44.0085C20.7872 44.1048 20.5544 44.1529 20.2637 44.1529ZM20.358 43.5283C20.6369 43.5283 20.8726 43.4556 21.0651 43.3102C21.2576 43.1629 21.4039 42.9596 21.5041 42.7003C21.6043 42.4391 21.6544 42.1376 21.6544 41.7958C21.6544 41.458 21.6053 41.1623 21.507 40.909C21.4088 40.6536 21.2635 40.4552 21.071 40.3138C20.8785 40.1704 20.6408 40.0987 20.358 40.0987C20.0633 40.0987 19.8178 40.1743 19.6214 40.3256C19.4269 40.4749 19.2806 40.6782 19.1824 40.9355C19.0861 41.1908 19.038 41.4776 19.038 41.7958C19.038 42.1179 19.0871 42.4106 19.1853 42.6738C19.2855 42.9351 19.4328 43.1433 19.6273 43.2984C19.8237 43.4516 20.0673 43.5283 20.358 43.5283ZM23.708 44.0586V39.533H24.3797V40.2166H24.4269C24.5094 39.9927 24.6586 39.811 24.8747 39.6715C25.0908 39.532 25.3343 39.4623 25.6054 39.4623C25.6565 39.4623 25.7203 39.4633 25.7969 39.4653C25.8735 39.4672 25.9315 39.4702 25.9707 39.4741V40.1812C25.9472 40.1753 25.8932 40.1665 25.8087 40.1547C25.7262 40.141 25.6388 40.1341 25.5465 40.1341C25.3265 40.1341 25.1301 40.1802 24.9572 40.2726C24.7863 40.3629 24.6508 40.4886 24.5506 40.6497C24.4524 40.8088 24.4033 40.9905 24.4033 41.1948V44.0586H23.708ZM28.4957 44.1529C28.0872 44.1529 27.7287 44.0556 27.4203 43.8612C27.1139 43.6667 26.8743 43.3947 26.7014 43.0451C26.5305 42.6954 26.4451 42.2869 26.4451 41.8194C26.4451 41.348 26.5305 40.9365 26.7014 40.5849C26.8743 40.2333 27.1139 39.9602 27.4203 39.7658C27.7287 39.5713 28.0872 39.4741 28.4957 39.4741C28.9043 39.4741 29.2618 39.5713 29.5682 39.7658C29.8766 39.9602 30.1162 40.2333 30.2871 40.5849C30.46 40.9365 30.5464 41.348 30.5464 41.8194C30.5464 42.2869 30.46 42.6954 30.2871 43.0451C30.1162 43.3947 29.8766 43.6667 29.5682 43.8612C29.2618 44.0556 28.9043 44.1529 28.4957 44.1529ZM28.4957 43.5283C28.8061 43.5283 29.0614 43.4487 29.2618 43.2896C29.4621 43.1305 29.6104 42.9213 29.7067 42.662C29.8029 42.4028 29.8511 42.1219 29.8511 41.8194C29.8511 41.5169 29.8029 41.235 29.7067 40.9738C29.6104 40.7125 29.4621 40.5014 29.2618 40.3403C29.0614 40.1793 28.8061 40.0987 28.4957 40.0987C28.1854 40.0987 27.9301 40.1793 27.7297 40.3403C27.5294 40.5014 27.3811 40.7125 27.2848 40.9738C27.1886 41.235 27.1404 41.5169 27.1404 41.8194C27.1404 42.1219 27.1886 42.4028 27.2848 42.662C27.3811 42.9213 27.5294 43.1305 27.7297 43.2896C27.9301 43.4487 28.1854 43.5283 28.4957 43.5283ZM32.256 42.4086L32.2442 41.5483H32.3856L34.3656 39.533H35.2259L33.1163 41.6662H33.0574L32.256 42.4086ZM31.6078 44.0586V38.0245H32.3031V44.0586H31.6078ZM34.4834 44.0586L32.7156 41.8194L33.2106 41.3362L35.3673 44.0586H34.4834ZM37.4526 44.1647C37.1658 44.1647 36.9056 44.1106 36.6718 44.0026C36.4381 43.8926 36.2525 43.7345 36.115 43.5283C35.9775 43.32 35.9087 43.0686 35.9087 42.774C35.9087 42.5147 35.9598 42.3045 36.0619 42.1435C36.1641 41.9804 36.3006 41.8528 36.4715 41.7605C36.6424 41.6681 36.8309 41.5994 37.0372 41.5542C37.2454 41.5071 37.4546 41.4697 37.6647 41.4422C37.9397 41.4069 38.1627 41.3804 38.3336 41.3627C38.5064 41.3431 38.6321 41.3106 38.7107 41.2655C38.7912 41.2203 38.8315 41.1417 38.8315 41.0298V41.0062C38.8315 40.7155 38.7519 40.4896 38.5928 40.3285C38.4357 40.1675 38.197 40.0869 37.8769 40.0869C37.5449 40.0869 37.2847 40.1596 37.0961 40.305C36.9075 40.4503 36.7749 40.6055 36.6983 40.7705L36.0384 40.5348C36.1562 40.2598 36.3134 40.0457 36.5098 39.8925C36.7082 39.7373 36.9242 39.6293 37.158 39.5684C37.3937 39.5055 37.6255 39.4741 37.8533 39.4741C37.9987 39.4741 38.1656 39.4918 38.3542 39.5271C38.5447 39.5605 38.7284 39.6303 38.9051 39.7363C39.0839 39.8424 39.2322 40.0025 39.35 40.2166C39.4679 40.4307 39.5268 40.7175 39.5268 41.0769V44.0586H38.8315V43.4458H38.7961C38.749 43.544 38.6704 43.6491 38.5604 43.761C38.4504 43.873 38.3041 43.9682 38.1214 44.0468C37.9387 44.1254 37.7158 44.1647 37.4526 44.1647ZM37.5587 43.54C37.8337 43.54 38.0654 43.486 38.254 43.378C38.4445 43.27 38.5879 43.1305 38.6842 42.9596C38.7824 42.7887 38.8315 42.609 38.8315 42.4204V41.784C38.802 41.8194 38.7372 41.8518 38.637 41.8813C38.5388 41.9088 38.4249 41.9333 38.2953 41.9549C38.1676 41.9746 38.0429 41.9922 37.9211 42.0079C37.8013 42.0217 37.704 42.0335 37.6294 42.0433C37.4487 42.0669 37.2798 42.1052 37.1226 42.1582C36.9674 42.2093 36.8417 42.2869 36.7455 42.391C36.6512 42.4931 36.6041 42.6326 36.6041 42.8093C36.6041 43.0509 36.6934 43.2336 36.8722 43.3574C37.0529 43.4791 37.2817 43.54 37.5587 43.54ZM40.8902 44.0586V38.0245H41.5856V40.2519H41.6445C41.6956 40.1734 41.7663 40.0732 41.8566 39.9514C41.949 39.8277 42.0806 39.7177 42.2514 39.6214C42.4243 39.5232 42.658 39.4741 42.9527 39.4741C43.3337 39.4741 43.6696 39.5694 43.9603 39.7599C44.251 39.9504 44.4779 40.2205 44.6409 40.5701C44.8039 40.9198 44.8855 41.3323 44.8855 41.8076C44.8855 42.2869 44.8039 42.7023 44.6409 43.0539C44.4779 43.4035 44.252 43.6746 43.9633 43.8671C43.6745 44.0576 43.3416 44.1529 42.9645 44.1529C42.6738 44.1529 42.441 44.1048 42.2662 44.0085C42.0914 43.9103 41.9568 43.7993 41.8625 43.6756C41.7682 43.5499 41.6956 43.4458 41.6445 43.3633H41.562V44.0586H40.8902ZM41.5738 41.7958C41.5738 42.1376 41.6239 42.4391 41.724 42.7003C41.8242 42.9596 41.9706 43.1629 42.1631 43.3102C42.3555 43.4556 42.5913 43.5283 42.8702 43.5283C43.1609 43.5283 43.4035 43.4516 43.5979 43.2984C43.7943 43.1433 43.9417 42.9351 44.0399 42.6738C44.14 42.4106 44.1901 42.1179 44.1901 41.7958C44.1901 41.4776 44.141 41.1908 44.0428 40.9355C43.9466 40.6782 43.8002 40.4749 43.6038 40.3256C43.4094 40.1743 43.1648 40.0987 42.8702 40.0987C42.5873 40.0987 42.3497 40.1704 42.1572 40.3138C41.9647 40.4552 41.8193 40.6536 41.7211 40.909C41.6229 41.1623 41.5738 41.458 41.5738 41.7958ZM47.7876 44.1529C47.379 44.1529 47.0206 44.0556 46.7122 43.8612C46.4058 43.6667 46.1661 43.3947 45.9933 43.0451C45.8224 42.6954 45.737 42.2869 45.737 41.8194C45.737 41.348 45.8224 40.9365 45.9933 40.5849C46.1661 40.2333 46.4058 39.9602 46.7122 39.7658C47.0206 39.5713 47.379 39.4741 47.7876 39.4741C48.1962 39.4741 48.5536 39.5713 48.8601 39.7658C49.1685 39.9602 49.4081 40.2333 49.579 40.5849C49.7518 40.9365 49.8383 41.348 49.8383 41.8194C49.8383 42.2869 49.7518 42.6954 49.579 43.0451C49.4081 43.3947 49.1685 43.6667 48.8601 43.8612C48.5536 44.0556 48.1962 44.1529 47.7876 44.1529ZM47.7876 43.5283C48.098 43.5283 48.3533 43.4487 48.5536 43.2896C48.754 43.1305 48.9023 42.9213 48.9985 42.662C49.0948 42.4028 49.1429 42.1219 49.1429 41.8194C49.1429 41.5169 49.0948 41.235 48.9985 40.9738C48.9023 40.7125 48.754 40.5014 48.5536 40.3403C48.3533 40.1793 48.098 40.0987 47.7876 40.0987C47.4773 40.0987 47.2219 40.1793 47.0216 40.3403C46.8212 40.5014 46.6729 40.7125 46.5767 40.9738C46.4804 41.235 46.4323 41.5169 46.4323 41.8194C46.4323 42.1219 46.4804 42.4028 46.5767 42.662C46.6729 42.9213 46.8212 43.1305 47.0216 43.2896C47.2219 43.4487 47.4773 43.5283 47.7876 43.5283ZM51.595 41.3362V44.0586H50.8997V39.533H51.5714V40.2401H51.6304C51.7364 40.0103 51.8975 39.8257 52.1136 39.6862C52.3296 39.5448 52.6085 39.4741 52.9503 39.4741C53.2567 39.4741 53.5249 39.537 53.7547 39.6627C53.9845 39.7864 54.1632 39.975 54.2909 40.2284C54.4186 40.4798 54.4824 40.798 54.4824 41.183V44.0586H53.7871V41.2301C53.7871 40.8746 53.6948 40.5976 53.5101 40.3992C53.3255 40.1989 53.0721 40.0987 52.75 40.0987C52.528 40.0987 52.3296 40.1468 52.1548 40.2431C51.982 40.3393 51.8454 40.4798 51.7453 40.6644C51.6451 40.8491 51.595 41.073 51.595 41.3362ZM57.0848 44.1647C56.798 44.1647 56.5377 44.1106 56.304 44.0026C56.0702 43.8926 55.8846 43.7345 55.7471 43.5283C55.6096 43.32 55.5409 43.0686 55.5409 42.774C55.5409 42.5147 55.5919 42.3045 55.6941 42.1435C55.7962 41.9804 55.9327 41.8528 56.1036 41.7605C56.2745 41.6681 56.4631 41.5994 56.6693 41.5542C56.8775 41.5071 57.0867 41.4697 57.2969 41.4422C57.5719 41.4069 57.7948 41.3804 57.9657 41.3627C58.1386 41.3431 58.2643 41.3106 58.3428 41.2655C58.4234 41.2203 58.4636 41.1417 58.4636 41.0298V41.0062C58.4636 40.7155 58.3841 40.4896 58.225 40.3285C58.0679 40.1675 57.8292 40.0869 57.509 40.0869C57.1771 40.0869 56.9168 40.1596 56.7283 40.305C56.5397 40.4503 56.4071 40.6055 56.3305 40.7705L55.6705 40.5348C55.7884 40.2598 55.9455 40.0457 56.1419 39.8925C56.3403 39.7373 56.5564 39.6293 56.7901 39.5684C57.0258 39.5055 57.2576 39.4741 57.4855 39.4741C57.6308 39.4741 57.7978 39.4918 57.9863 39.5271C58.1769 39.5605 58.3605 39.6303 58.5373 39.7363C58.716 39.8424 58.8643 40.0025 58.9822 40.2166C59.1001 40.4307 59.159 40.7175 59.159 41.0769V44.0586H58.4636V43.4458H58.4283C58.3811 43.544 58.3026 43.6491 58.1926 43.761C58.0826 43.873 57.9362 43.9682 57.7536 44.0468C57.5709 44.1254 57.348 44.1647 57.0848 44.1647ZM57.1908 43.54C57.4658 43.54 57.6976 43.486 57.8862 43.378C58.0767 43.27 58.2201 43.1305 58.3163 42.9596C58.4145 42.7887 58.4636 42.609 58.4636 42.4204V41.784C58.4342 41.8194 58.3694 41.8518 58.2692 41.8813C58.171 41.9088 58.057 41.9333 57.9274 41.9549C57.7997 41.9746 57.675 41.9922 57.5532 42.0079C57.4334 42.0217 57.3362 42.0335 57.2615 42.0433C57.0808 42.0669 56.9119 42.1052 56.7548 42.1582C56.5996 42.2093 56.4739 42.2869 56.3776 42.391C56.2834 42.4931 56.2362 42.6326 56.2362 42.8093C56.2362 43.0509 56.3256 43.2336 56.5043 43.3574C56.685 43.4791 56.9139 43.54 57.1908 43.54ZM62.3963 39.533V40.1223H60.051V39.533H62.3963ZM60.7345 38.4488H61.4299V42.7622C61.4299 42.9586 61.4583 43.1059 61.5153 43.2042C61.5742 43.3004 61.6489 43.3652 61.7392 43.3986C61.8315 43.43 61.9288 43.4458 62.0309 43.4458C62.1075 43.4458 62.1704 43.4418 62.2195 43.434C62.2686 43.4241 62.3079 43.4163 62.3373 43.4104L62.4788 44.035C62.4316 44.0527 62.3658 44.0704 62.2814 44.0881C62.1969 44.1077 62.0898 44.1175 61.9602 44.1175C61.7638 44.1175 61.5713 44.0753 61.3827 43.9908C61.1961 43.9064 61.0409 43.7777 60.9172 43.6049C60.7954 43.432 60.7345 43.214 60.7345 42.9508V38.4488ZM64.2348 38.0245V44.0586H63.5394V38.0245H64.2348ZM66.8401 44.1647C66.5533 44.1647 66.293 44.1106 66.0593 44.0026C65.8255 43.8926 65.6399 43.7345 65.5024 43.5283C65.3649 43.32 65.2962 43.0686 65.2962 42.774C65.2962 42.5147 65.3473 42.3045 65.4494 42.1435C65.5515 41.9804 65.6881 41.8528 65.8589 41.7605C66.0298 41.6681 66.2184 41.5994 66.4246 41.5542C66.6328 41.5071 66.842 41.4697 67.0522 41.4422C67.3272 41.4069 67.5501 41.3804 67.721 41.3627C67.8939 41.3431 68.0196 41.3106 68.0982 41.2655C68.1787 41.2203 68.219 41.1417 68.219 41.0298V41.0062C68.219 40.7155 68.1394 40.4896 67.9803 40.3285C67.8232 40.1675 67.5845 40.0869 67.2643 40.0869C66.9324 40.0869 66.6721 40.1596 66.4836 40.305C66.295 40.4503 66.1624 40.6055 66.0858 40.7705L65.4258 40.5348C65.5437 40.2598 65.7008 40.0457 65.8972 39.8925C66.0956 39.7373 66.3117 39.6293 66.5454 39.5684C66.7811 39.5055 67.0129 39.4741 67.2408 39.4741C67.3861 39.4741 67.5531 39.4918 67.7416 39.5271C67.9322 39.5605 68.1158 39.6303 68.2926 39.7363C68.4714 39.8424 68.6197 40.0025 68.7375 40.2166C68.8554 40.4307 68.9143 40.7175 68.9143 41.0769V44.0586H68.219V43.4458H68.1836C68.1365 43.544 68.0579 43.6491 67.9479 43.761C67.8379 43.873 67.6916 43.9682 67.5089 44.0468C67.3262 44.1254 67.1033 44.1647 66.8401 44.1647ZM66.9461 43.54C67.2211 43.54 67.4529 43.486 67.6415 43.378C67.832 43.27 67.9754 43.1305 68.0716 42.9596C68.1698 42.7887 68.219 42.609 68.219 42.4204V41.784C68.1895 41.8194 68.1247 41.8518 68.0245 41.8813C67.9263 41.9088 67.8124 41.9333 67.6827 41.9549C67.555 41.9746 67.4303 41.9922 67.3085 42.0079C67.1887 42.0217 67.0915 42.0335 67.0168 42.0433C66.8361 42.0669 66.6672 42.1052 66.5101 42.1582C66.3549 42.2093 66.2292 42.2869 66.1329 42.391C66.0387 42.4931 65.9915 42.6326 65.9915 42.8093C65.9915 43.0509 66.0809 43.2336 66.2596 43.3574C66.4403 43.4791 66.6692 43.54 66.9461 43.54ZM70.1834 44.0586V39.533H70.8552V40.2166H70.9023C70.9848 39.9927 71.1341 39.811 71.3502 39.6715C71.5662 39.532 71.8098 39.4623 72.0809 39.4623C72.1319 39.4623 72.1958 39.4633 72.2724 39.4653C72.349 39.4672 72.4069 39.4702 72.4462 39.4741V40.1812C72.4226 40.1753 72.3686 40.1665 72.2842 40.1547C72.2017 40.141 72.1143 40.1341 72.0219 40.1341C71.8019 40.1341 71.6055 40.1802 71.4327 40.2726C71.2618 40.3629 71.1262 40.4886 71.0261 40.6497C70.9279 40.8088 70.8788 40.9905 70.8788 41.1948V44.0586H70.1834Z" fill="#246677"/>
<path d="M51.6388 29.8981C51.1999 29.8981 50.8079 29.8224 50.4627 29.6712C50.1197 29.5199 49.848 29.31 49.6477 29.0415C49.4496 28.771 49.343 28.4577 49.3281 28.1019H50.3317C50.3445 28.2958 50.4094 28.4641 50.5266 28.6069C50.646 28.7475 50.8015 28.8562 50.9933 28.9329C51.185 29.0096 51.3981 29.0479 51.6325 29.0479C51.8903 29.0479 52.1183 29.0032 52.3164 28.9137C52.5167 28.8242 52.6733 28.6996 52.7862 28.5398C52.8991 28.3778 52.9556 28.1914 52.9556 27.9805C52.9556 27.761 52.8991 27.5682 52.7862 27.402C52.6754 27.2337 52.5124 27.1016 52.2972 27.0057C52.0842 26.9098 51.8263 26.8619 51.5238 26.8619H50.9709V26.0565H51.5238C51.7667 26.0565 51.9798 26.0128 52.163 25.9254C52.3484 25.8381 52.4933 25.7166 52.5977 25.5611C52.7021 25.4034 52.7543 25.2191 52.7543 25.0082C52.7543 24.8058 52.7085 24.63 52.6168 24.4808C52.5273 24.3295 52.3995 24.2113 52.2333 24.1261C52.0692 24.0408 51.8754 23.9982 51.6516 23.9982C51.4386 23.9982 51.2393 24.0376 51.054 24.1165C50.8707 24.1932 50.7216 24.304 50.6065 24.4489C50.4915 24.5916 50.4297 24.7631 50.4212 24.9634H49.4656C49.4762 24.6097 49.5806 24.2987 49.7788 24.0302C49.979 23.7617 50.2433 23.5518 50.5714 23.4006C50.8995 23.2493 51.2638 23.1737 51.6644 23.1737C52.0842 23.1737 52.4464 23.2557 52.7511 23.4197C53.0579 23.5817 53.2944 23.7979 53.4606 24.0685C53.6289 24.3391 53.712 24.6353 53.7099 24.957C53.712 25.3235 53.6097 25.6346 53.4031 25.8903C53.1985 26.146 52.9258 26.3175 52.5849 26.4048V26.456C53.0195 26.522 53.3562 26.6946 53.5948 26.9737C53.8356 27.2528 53.9549 27.5991 53.9528 28.0124C53.9549 28.3725 53.8548 28.6953 53.6523 28.9808C53.4521 29.2663 53.1783 29.4911 52.831 29.6552C52.4837 29.8171 52.0863 29.8981 51.6388 29.8981Z" fill="#246677"/>
<path d="M12.9043 73.1445C12.2989 73.1445 11.7536 73.0241 11.2685 72.7833C10.7835 72.5425 10.3947 72.2122 10.1023 71.7925C9.80991 71.3728 9.64995 70.8946 9.62243 70.358H10.8609C10.909 70.8361 11.1258 71.2318 11.5111 71.5448C11.8998 71.8544 12.3642 72.0092 12.9043 72.0092C13.3378 72.0092 13.7231 71.9077 14.0602 71.7048C14.4008 71.5018 14.6674 71.2232 14.8601 70.8688C15.0562 70.511 15.1542 70.1068 15.1542 69.6562C15.1542 69.1952 15.0527 68.7841 14.8498 68.4229C14.6502 68.0582 14.375 67.771 14.0241 67.5611C13.6732 67.3513 13.2724 67.2446 12.8218 67.2412C12.4984 67.2377 12.1664 67.2876 11.8259 67.3908C11.4853 67.4906 11.2049 67.6196 10.9847 67.7778L9.78755 67.6333L10.4274 62.4318H15.9179V63.5671H11.5008L11.1292 66.6839H11.1911C11.4079 66.5119 11.6796 66.3691 12.0065 66.2556C12.3333 66.142 12.6739 66.0853 13.0282 66.0853C13.6749 66.0853 14.2512 66.2401 14.7569 66.5497C15.266 66.8559 15.6651 67.2756 15.954 67.8088C16.2465 68.342 16.3927 68.9509 16.3927 69.6355C16.3927 70.3098 16.2413 70.9118 15.9386 71.4416C15.6393 71.968 15.2265 72.3842 14.7001 72.6904C14.1738 72.9931 13.5752 73.1445 12.9043 73.1445ZM23.0042 67.1483V68.2835H18.3807V67.1483H23.0042ZM24.6297 73V72.0712L28.118 68.2526C28.5274 67.8054 28.8645 67.4166 29.1294 67.0864C29.3943 66.7527 29.5904 66.4396 29.7177 66.1472C29.8484 65.8513 29.9138 65.5417 29.9138 65.2184C29.9138 64.8468 29.8244 64.5252 29.6455 64.2534C29.47 63.9816 29.2292 63.7718 28.923 63.6238C28.6169 63.4759 28.2728 63.4019 27.891 63.4019C27.485 63.4019 27.1307 63.4862 26.828 63.6548C26.5287 63.8199 26.2965 64.0521 26.1313 64.3514C25.9697 64.6507 25.8888 65.0016 25.8888 65.4041H24.671C24.671 64.7849 24.8138 64.2413 25.0993 63.7735C25.3848 63.3056 25.7736 62.941 26.2655 62.6795C26.7609 62.4181 27.3165 62.2873 27.9323 62.2873C28.5515 62.2873 29.1002 62.4181 29.5784 62.6795C30.0566 62.941 30.4315 63.2936 30.7033 63.7374C30.9751 64.1811 31.111 64.6748 31.111 65.2184C31.111 65.6071 31.0405 65.9872 30.8994 66.3588C30.7618 66.7269 30.521 67.138 30.177 67.5921C29.8364 68.0427 29.3634 68.5932 28.7579 69.2433L26.3842 71.7822V71.8647H31.2967V73H24.6297ZM36.7305 73.1445C36.125 73.1445 35.5797 73.0241 35.0947 72.7833C34.6096 72.5425 34.2209 72.2122 33.9285 71.7925C33.6361 71.3728 33.4761 70.8946 33.4486 70.358H34.687C34.7352 70.8361 34.9519 71.2318 35.3372 71.5448C35.726 71.8544 36.1904 72.0092 36.7305 72.0092C37.1639 72.0092 37.5492 71.9077 37.8864 71.7048C38.227 71.5018 38.4936 71.2232 38.6862 70.8688C38.8823 70.511 38.9803 70.1068 38.9803 69.6562C38.9803 69.1952 38.8789 68.7841 38.6759 68.4229C38.4764 68.0582 38.2012 67.771 37.8503 67.5611C37.4994 67.3513 37.0986 67.2446 36.6479 67.2412C36.3245 67.2377 35.9926 67.2876 35.652 67.3908C35.3114 67.4906 35.031 67.6196 34.8109 67.7778L33.6137 67.6333L34.2536 62.4318H39.7441V63.5671H35.3269L34.9554 66.6839H35.0173C35.234 66.5119 35.5058 66.3691 35.8326 66.2556C36.1594 66.142 36.5 66.0853 36.8543 66.0853C37.5011 66.0853 38.0773 66.2401 38.583 66.5497C39.0922 66.8559 39.4912 67.2756 39.7802 67.8088C40.0726 68.342 40.2188 68.9509 40.2188 69.6355C40.2188 70.3098 40.0674 70.9118 39.7647 71.4416C39.4654 71.968 39.0526 72.3842 38.5262 72.6904C37.9999 72.9931 37.4013 73.1445 36.7305 73.1445Z" fill="white"/>
<rect width="75.47" height="51" transform="translate(97.9688 1.05859)" fill="white"/>
<path d="M117.825 17.5664H116.34C116.252 17.1391 116.098 16.7638 115.879 16.4403C115.663 16.1169 115.399 15.8453 115.088 15.6257C114.781 15.4021 114.439 15.2344 114.064 15.1226C113.688 15.0108 113.297 14.9549 112.89 14.9549C112.147 14.9549 111.474 15.1425 110.871 15.5179C110.272 15.8933 109.795 16.4463 109.44 17.1771C109.088 17.9078 108.913 18.8043 108.913 19.8665C108.913 20.9287 109.088 21.8251 109.44 22.5559C109.795 23.2866 110.272 23.8397 110.871 24.215C111.474 24.5904 112.147 24.7781 112.89 24.7781C113.297 24.7781 113.688 24.7222 114.064 24.6104C114.439 24.4986 114.781 24.3328 115.088 24.1132C115.399 23.8896 115.663 23.6161 115.879 23.2926C116.098 22.9652 116.252 22.5898 116.34 22.1665H117.825C117.714 22.7935 117.51 23.3545 117.214 23.8497C116.919 24.3448 116.552 24.7661 116.112 25.1135C115.673 25.4569 115.18 25.7185 114.633 25.8982C114.09 26.0779 113.509 26.1677 112.89 26.1677C111.844 26.1677 110.913 25.9122 110.099 25.401C109.284 24.8899 108.643 24.1631 108.176 23.2207C107.709 22.2784 107.475 21.1603 107.475 19.8665C107.475 18.5727 107.709 17.4546 108.176 16.5122C108.643 15.5698 109.284 14.8431 110.099 14.3319C110.913 13.8208 111.844 13.5652 112.89 13.5652C113.509 13.5652 114.09 13.6551 114.633 13.8348C115.18 14.0145 115.673 14.278 116.112 14.6254C116.552 14.9688 116.919 15.3881 117.214 15.8833C117.51 16.3744 117.714 16.9355 117.825 17.5664ZM122.741 26.2156C122.158 26.2156 121.629 26.1058 121.154 25.8862C120.679 25.6626 120.302 25.3411 120.022 24.9218C119.743 24.4986 119.603 23.9874 119.603 23.3885C119.603 22.8614 119.707 22.4341 119.914 22.1067C120.122 21.7752 120.399 21.5157 120.747 21.328C121.094 21.1403 121.478 21.0005 121.897 20.9087C122.32 20.8129 122.745 20.737 123.173 20.6811C123.732 20.6092 124.185 20.5553 124.532 20.5194C124.884 20.4794 125.139 20.4135 125.299 20.3217C125.463 20.2299 125.545 20.0701 125.545 19.8425V19.7946C125.545 19.2036 125.383 18.7444 125.059 18.417C124.74 18.0895 124.255 17.9258 123.604 17.9258C122.929 17.9258 122.4 18.0735 122.017 18.369C121.633 18.6645 121.364 18.98 121.208 19.3154L119.866 18.8362C120.106 18.2772 120.425 17.8419 120.825 17.5305C121.228 17.215 121.667 16.9954 122.142 16.8716C122.622 16.7438 123.093 16.6799 123.556 16.6799C123.852 16.6799 124.191 16.7159 124.574 16.7877C124.962 16.8556 125.335 16.9974 125.694 17.213C126.058 17.4286 126.359 17.7541 126.599 18.1893C126.838 18.6246 126.958 19.2076 126.958 19.9384V26H125.545V24.7541H125.473C125.377 24.9538 125.217 25.1674 124.994 25.395C124.77 25.6226 124.472 25.8163 124.101 25.976C123.73 26.1358 123.277 26.2156 122.741 26.2156ZM122.957 24.9458C123.516 24.9458 123.987 24.836 124.371 24.6164C124.758 24.3967 125.05 24.1132 125.245 23.7658C125.445 23.4184 125.545 23.053 125.545 22.6697V21.3759C125.485 21.4478 125.353 21.5137 125.149 21.5736C124.95 21.6295 124.718 21.6794 124.455 21.7233C124.195 21.7632 123.941 21.7992 123.694 21.8311C123.45 21.8591 123.253 21.883 123.101 21.903C122.733 21.9509 122.39 22.0288 122.071 22.1366C121.755 22.2404 121.5 22.3982 121.304 22.6098C121.112 22.8174 121.016 23.101 121.016 23.4603C121.016 23.9515 121.198 24.3229 121.561 24.5744C121.929 24.822 122.394 24.9458 122.957 24.9458Z" fill="#246677"/>
<path d="M107.199 44.0586V38.0245H107.93V41.018H108.001L110.711 38.0245H111.666L109.132 40.7469L111.666 44.0586H110.782L108.684 41.2537L107.93 42.1022V44.0586H107.199ZM113.849 44.1647C113.563 44.1647 113.302 44.1106 113.069 44.0026C112.835 43.8926 112.649 43.7345 112.512 43.5283C112.374 43.32 112.305 43.0686 112.305 42.774C112.305 42.5147 112.357 42.3045 112.459 42.1435C112.561 41.9804 112.697 41.8528 112.868 41.7605C113.039 41.6681 113.228 41.5994 113.434 41.5542C113.642 41.5071 113.851 41.4697 114.061 41.4422C114.336 41.4069 114.559 41.3804 114.73 41.3627C114.903 41.3431 115.029 41.3106 115.107 41.2655C115.188 41.2203 115.228 41.1417 115.228 41.0298V41.0062C115.228 40.7155 115.149 40.4896 114.99 40.3285C114.832 40.1675 114.594 40.0869 114.274 40.0869C113.942 40.0869 113.681 40.1596 113.493 40.305C113.304 40.4503 113.172 40.6055 113.095 40.7705L112.435 40.5348C112.553 40.2598 112.71 40.0457 112.906 39.8925C113.105 39.7373 113.321 39.6293 113.555 39.5684C113.79 39.5055 114.022 39.4741 114.25 39.4741C114.395 39.4741 114.562 39.4918 114.751 39.5271C114.941 39.5605 115.125 39.6303 115.302 39.7363C115.481 39.8424 115.629 40.0025 115.747 40.2166C115.865 40.4307 115.924 40.7175 115.924 41.0769V44.0586H115.228V43.4458H115.193C115.146 43.544 115.067 43.6491 114.957 43.761C114.847 43.873 114.701 43.9682 114.518 44.0468C114.335 44.1254 114.113 44.1647 113.849 44.1647ZM113.955 43.54C114.23 43.54 114.462 43.486 114.651 43.378C114.841 43.27 114.985 43.1305 115.081 42.9596C115.179 42.7887 115.228 42.609 115.228 42.4204V41.784C115.199 41.8194 115.134 41.8518 115.034 41.8813C114.936 41.9088 114.822 41.9333 114.692 41.9549C114.564 41.9746 114.44 41.9922 114.318 42.0079C114.198 42.0217 114.101 42.0335 114.026 42.0433C113.845 42.0669 113.676 42.1052 113.519 42.1582C113.364 42.2093 113.238 42.2869 113.142 42.391C113.048 42.4931 113.001 42.6326 113.001 42.8093C113.001 43.0509 113.09 43.2336 113.269 43.3574C113.45 43.4791 113.678 43.54 113.955 43.54ZM117.888 38.0245V44.0586H117.193V38.0245H117.888ZM122.367 40.5466L121.743 40.7233C121.703 40.6192 121.645 40.5181 121.569 40.4199C121.494 40.3197 121.392 40.2372 121.262 40.1724C121.133 40.1076 120.967 40.0752 120.764 40.0752C120.487 40.0752 120.257 40.139 120.072 40.2667C119.889 40.3924 119.798 40.5525 119.798 40.7469C119.798 40.9198 119.861 41.0563 119.987 41.1565C120.112 41.2566 120.309 41.3401 120.576 41.4069L121.248 41.5719C121.652 41.6701 121.954 41.8204 122.152 42.0227C122.35 42.223 122.45 42.4813 122.45 42.7976C122.45 43.0568 122.375 43.2886 122.226 43.4929C122.078 43.6972 121.872 43.8582 121.607 43.9761C121.342 44.0939 121.033 44.1529 120.682 44.1529C120.22 44.1529 119.838 44.0527 119.536 43.8524C119.233 43.652 119.042 43.3593 118.961 42.9743L119.621 42.8093C119.684 43.0529 119.803 43.2356 119.978 43.3574C120.154 43.4791 120.385 43.54 120.67 43.54C120.994 43.54 121.251 43.4713 121.442 43.3338C121.635 43.1943 121.731 43.0274 121.731 42.8329C121.731 42.6758 121.676 42.5442 121.566 42.4381C121.456 42.3301 121.287 42.2495 121.059 42.1965L120.305 42.0197C119.89 41.9215 119.586 41.7693 119.391 41.563C119.199 41.3548 119.103 41.0946 119.103 40.7823C119.103 40.5269 119.174 40.301 119.318 40.1046C119.463 39.9082 119.66 39.754 119.91 39.642C120.161 39.5301 120.446 39.4741 120.764 39.4741C121.212 39.4741 121.564 39.5723 121.819 39.7687C122.076 39.9652 122.259 40.2244 122.367 40.5466ZM123.496 44.0586V39.533H124.192V44.0586H123.496ZM123.85 38.7788C123.714 38.7788 123.598 38.7326 123.499 38.6403C123.403 38.548 123.355 38.437 123.355 38.3074C123.355 38.1777 123.403 38.0667 123.499 37.9744C123.598 37.8821 123.714 37.8359 123.85 37.8359C123.985 37.8359 124.101 37.8821 124.198 37.9744C124.296 38.0667 124.345 38.1777 124.345 38.3074C124.345 38.437 124.296 38.548 124.198 38.6403C124.101 38.7326 123.985 38.7788 123.85 38.7788ZM125.913 45.7557C125.795 45.7557 125.69 45.7459 125.598 45.7262C125.506 45.7085 125.442 45.6909 125.406 45.6732L125.583 45.0603C125.752 45.1036 125.901 45.1193 126.031 45.1075C126.161 45.0957 126.275 45.0378 126.376 44.9337C126.478 44.8315 126.571 44.6655 126.656 44.4357L126.785 44.0822L125.112 39.533H125.866L127.115 43.1393H127.162L128.412 39.533H129.166L127.245 44.7186C127.158 44.9523 127.051 45.1458 126.924 45.299C126.796 45.4542 126.648 45.5691 126.479 45.6437C126.312 45.7184 126.123 45.7557 125.913 45.7557Z" fill="#246677"/>
<path d="M132.561 18V17.3624L134.533 15.3186C134.744 15.0966 134.918 14.9021 135.054 14.7351C135.193 14.5662 135.296 14.4059 135.365 14.2541C135.433 14.1023 135.467 13.941 135.467 13.7702C135.467 13.5766 135.421 13.4096 135.33 13.2692C135.239 13.1269 135.115 13.0178 134.957 12.9418C134.8 12.864 134.623 12.8251 134.425 12.8251C134.216 12.8251 134.034 12.8678 133.879 12.9532C133.723 13.0386 133.604 13.1591 133.52 13.3147C133.437 13.4703 133.395 13.6525 133.395 13.8613H132.555C132.555 13.5064 132.637 13.1961 132.8 12.9305C132.963 12.6648 133.187 12.4589 133.472 12.3128C133.756 12.1648 134.08 12.0908 134.442 12.0908C134.809 12.0908 135.131 12.1638 135.41 12.3099C135.691 12.4542 135.91 12.6515 136.068 12.902C136.225 13.1506 136.304 13.4314 136.304 13.7445C136.304 13.9609 136.263 14.1725 136.181 14.3793C136.102 14.5861 135.962 14.8167 135.763 15.071C135.564 15.3234 135.287 15.6298 134.932 15.9904L133.773 17.203V17.2457H136.398V18H132.561ZM139.202 17.0208V13.1724H139.967V17.0208H139.202ZM137.662 15.478V14.7152H141.51V15.478H137.662Z" fill="#246677"/>
<path d="M110.195 74.148C109.751 74.1409 109.307 74.0564 108.863 73.8943C108.419 73.7322 108.014 73.4592 107.647 73.0751C107.281 72.6875 106.987 72.1643 106.765 71.5054C106.543 70.843 106.432 70.0115 106.432 69.0109C106.432 68.0525 106.522 67.2034 106.701 66.4635C106.881 65.72 107.142 65.0946 107.484 64.5873C107.825 64.0764 108.238 63.6888 108.72 63.4245C109.206 63.1603 109.754 63.0282 110.364 63.0282C110.97 63.0282 111.509 63.1497 111.981 63.3928C112.457 63.6324 112.844 63.9671 113.144 64.397C113.443 64.8268 113.637 65.3219 113.725 65.8821H112.436C112.316 65.3959 112.083 64.9924 111.738 64.6718C111.393 64.3512 110.935 64.1909 110.364 64.1909C109.525 64.1909 108.865 64.5555 108.382 65.2849C107.903 66.0142 107.661 67.0378 107.658 68.3555H107.742C107.94 68.056 108.174 67.8006 108.445 67.5892C108.72 67.3743 109.023 67.2087 109.354 67.0924C109.686 66.9761 110.036 66.918 110.406 66.918C111.026 66.918 111.594 67.073 112.108 67.3831C112.622 67.6896 113.035 68.1142 113.345 68.6568C113.655 69.1959 113.81 69.8142 113.81 70.5118C113.81 71.1813 113.66 71.7944 113.361 72.3511C113.061 72.9042 112.64 73.3446 112.097 73.6723C111.558 73.9965 110.924 74.155 110.195 74.148ZM110.195 72.9853C110.639 72.9853 111.037 72.8743 111.389 72.6523C111.745 72.4303 112.025 72.1326 112.23 71.7591C112.437 71.3856 112.541 70.9699 112.541 70.5118C112.541 70.0644 112.441 69.6574 112.24 69.291C112.043 68.921 111.77 68.6268 111.421 68.4084C111.076 68.1899 110.681 68.0807 110.237 68.0807C109.902 68.0807 109.591 68.1476 109.302 68.2815C109.013 68.4119 108.759 68.5916 108.541 68.8206C108.326 69.0496 108.156 69.3121 108.033 69.6081C107.91 69.9005 107.848 70.2088 107.848 70.533C107.848 70.9628 107.949 71.3645 108.149 71.738C108.354 72.1115 108.632 72.4127 108.984 72.6417C109.34 72.8708 109.744 72.9853 110.195 72.9853ZM119.419 74.148C118.622 74.148 117.944 73.9313 117.384 73.4979C116.824 73.061 116.396 72.4286 116.1 71.6006C115.804 70.769 115.656 69.7649 115.656 68.5881C115.656 67.4183 115.804 66.4194 116.1 65.5914C116.399 64.7599 116.829 64.1257 117.389 63.6888C117.953 63.2484 118.629 63.0282 119.419 63.0282C120.208 63.0282 120.883 63.2484 121.443 63.6888C122.007 64.1257 122.436 64.7599 122.732 65.5914C123.032 66.4194 123.182 67.4183 123.182 68.5881C123.182 69.7649 123.034 70.769 122.738 71.6006C122.442 72.4286 122.014 73.061 121.453 73.4979C120.893 73.9313 120.215 74.148 119.419 74.148ZM119.419 72.9853C120.208 72.9853 120.821 72.6047 121.258 71.8437C121.695 71.0826 121.913 69.9974 121.913 68.5881C121.913 67.6508 121.813 66.8528 121.612 66.1939C121.415 65.535 121.129 65.033 120.756 64.6877C120.386 64.3424 119.94 64.1697 119.419 64.1697C118.636 64.1697 118.025 64.5555 117.585 65.3272C117.144 66.0953 116.924 67.1822 116.924 68.5881C116.924 69.5253 117.023 70.3216 117.22 70.9769C117.417 71.6323 117.701 72.1308 118.071 72.4726C118.444 72.8144 118.894 72.9853 119.419 72.9853ZM129.862 68.0067V69.1694H125.126V68.0067H129.862ZM135.841 63.1761V74H134.53V64.5503H134.467L131.824 66.3049V64.9731L134.53 63.1761H135.841ZM142.484 74.148C141.688 74.148 141.009 73.9313 140.449 73.4979C139.889 73.061 139.461 72.4286 139.165 71.6006C138.869 70.769 138.721 69.7649 138.721 68.5881C138.721 67.4183 138.869 66.4194 139.165 65.5914C139.464 64.7599 139.894 64.1257 140.455 63.6888C141.018 63.2484 141.695 63.0282 142.484 63.0282C143.273 63.0282 143.948 63.2484 144.508 63.6888C145.072 64.1257 145.502 64.7599 145.798 65.5914C146.097 66.4194 146.247 67.4183 146.247 68.5881C146.247 69.7649 146.099 70.769 145.803 71.6006C145.507 72.4286 145.079 73.061 144.519 73.4979C143.959 73.9313 143.28 74.148 142.484 74.148ZM142.484 72.9853C143.273 72.9853 143.886 72.6047 144.323 71.8437C144.76 71.0826 144.979 69.9974 144.979 68.5881C144.979 67.6508 144.878 66.8528 144.677 66.1939C144.48 65.535 144.195 65.033 143.821 64.6877C143.451 64.3424 143.005 64.1697 142.484 64.1697C141.702 64.1697 141.091 64.5555 140.65 65.3272C140.21 66.0953 139.989 67.1822 139.989 68.5881C139.989 69.5253 140.088 70.3216 140.285 70.9769C140.483 71.6323 140.766 72.1308 141.136 72.4726C141.51 72.8144 141.959 72.9853 142.484 72.9853ZM151.786 74.148C150.989 74.148 150.311 73.9313 149.751 73.4979C149.191 73.061 148.763 72.4286 148.467 71.6006C148.171 70.769 148.023 69.7649 148.023 68.5881C148.023 67.4183 148.171 66.4194 148.467 65.5914C148.766 64.7599 149.196 64.1257 149.756 63.6888C150.32 63.2484 150.997 63.0282 151.786 63.0282C152.575 63.0282 153.25 63.2484 153.81 63.6888C154.374 64.1257 154.804 64.7599 155.1 65.5914C155.399 66.4194 155.549 67.4183 155.549 68.5881C155.549 69.7649 155.401 70.769 155.105 71.6006C154.809 72.4286 154.381 73.061 153.821 73.4979C153.26 73.9313 152.582 74.148 151.786 74.148ZM151.786 72.9853C152.575 72.9853 153.188 72.6047 153.625 71.8437C154.062 71.0826 154.28 69.9974 154.28 68.5881C154.28 67.6508 154.18 66.8528 153.979 66.1939C153.782 65.535 153.496 65.033 153.123 64.6877C152.753 64.3424 152.307 64.1697 151.786 64.1697C151.004 64.1697 150.392 64.5555 149.952 65.3272C149.511 66.0953 149.291 67.1822 149.291 68.5881C149.291 69.5253 149.39 70.3216 149.587 70.9769C149.784 71.6323 150.068 72.1308 150.438 72.4726C150.812 72.8144 151.261 72.9853 151.786 72.9853Z" fill="white"/>
<rect width="66.61" height="51" transform="translate(239.898 1.05859)" fill="white"/>
<path d="M256.528 16.8722C256.457 16.27 256.167 15.8025 255.66 15.4697C255.153 15.1369 254.531 14.9705 253.794 14.9705C253.256 14.9705 252.784 15.0577 252.38 15.232C251.98 15.4063 251.667 15.646 251.441 15.9511C251.219 16.2561 251.108 16.6028 251.108 16.991C251.108 17.3159 251.186 17.5952 251.34 17.8289C251.498 18.0587 251.701 18.2508 251.946 18.4054C252.192 18.5559 252.449 18.6807 252.719 18.7797C252.988 18.8748 253.236 18.9521 253.462 19.0115L254.698 19.3443C255.015 19.4275 255.367 19.5424 255.755 19.689C256.148 19.8355 256.522 20.0356 256.879 20.2892C257.239 20.5387 257.536 20.8596 257.77 21.2519C258.004 21.6441 258.121 22.1254 258.121 22.6959C258.121 23.3536 257.948 23.9478 257.604 24.4787C257.263 25.0096 256.764 25.4315 256.106 25.7445C255.452 26.0574 254.658 26.2139 253.723 26.2139C252.851 26.2139 252.097 26.0733 251.459 25.792C250.825 25.5107 250.326 25.1185 249.961 24.6154C249.601 24.1122 249.397 23.5279 249.349 22.8623H250.871C250.91 23.3219 251.065 23.7022 251.334 24.0033C251.607 24.3004 251.952 24.5223 252.368 24.6689C252.788 24.8115 253.24 24.8828 253.723 24.8828C254.286 24.8828 254.791 24.7917 255.238 24.6094C255.686 24.4232 256.041 24.1657 256.302 23.8369C256.564 23.5041 256.694 23.1159 256.694 22.6721C256.694 22.268 256.581 21.9392 256.356 21.6857C256.13 21.4321 255.833 21.2261 255.464 21.0676C255.096 20.9092 254.698 20.7705 254.27 20.6517L252.772 20.2238C251.821 19.9504 251.069 19.5602 250.514 19.0531C249.959 18.546 249.682 17.8824 249.682 17.0623C249.682 16.3809 249.866 15.7866 250.235 15.2795C250.607 14.7685 251.106 14.3723 251.732 14.091C252.362 13.8058 253.065 13.6632 253.842 13.6632C254.626 13.6632 255.324 13.8038 255.934 14.0851C256.544 14.3624 257.027 14.7427 257.384 15.2261C257.744 15.7094 257.934 16.2581 257.954 16.8722H256.528ZM270.812 19.9148C270.812 21.1984 270.581 22.3077 270.117 23.2426C269.654 24.1776 269.018 24.8986 268.21 25.4057C267.401 25.9128 266.478 26.1664 265.44 26.1664C264.402 26.1664 263.479 25.9128 262.671 25.4057C261.863 24.8986 261.227 24.1776 260.764 23.2426C260.3 22.3077 260.068 21.1984 260.068 19.9148C260.068 18.6312 260.3 17.5219 260.764 16.5869C261.227 15.6519 261.863 14.9309 262.671 14.4238C263.479 13.9167 264.402 13.6632 265.44 13.6632C266.478 13.6632 267.401 13.9167 268.21 14.4238C269.018 14.9309 269.654 15.6519 270.117 16.5869C270.581 17.5219 270.812 18.6312 270.812 19.9148ZM269.386 19.9148C269.386 18.861 269.21 17.9715 268.857 17.2465C268.509 16.5215 268.035 15.9728 267.437 15.6004C266.843 15.228 266.177 15.0418 265.44 15.0418C264.703 15.0418 264.036 15.228 263.438 15.6004C262.843 15.9728 262.37 16.5215 262.017 17.2465C261.669 17.9715 261.494 18.861 261.494 19.9148C261.494 20.9686 261.669 21.858 262.017 22.583C262.37 23.308 262.843 23.8567 263.438 24.2291C264.036 24.6015 264.703 24.7877 265.44 24.7877C266.177 24.7877 266.843 24.6015 267.437 24.2291C268.035 23.8567 268.509 23.308 268.857 22.583C269.21 21.858 269.386 20.9686 269.386 19.9148Z" fill="#246677"/>
<path d="M252.361 39.6097C252.326 39.3162 252.185 39.0884 251.938 38.9262C251.691 38.764 251.388 38.6829 251.028 38.6829C250.766 38.6829 250.536 38.7254 250.339 38.8103C250.144 38.8953 249.991 39.0121 249.881 39.1608C249.773 39.3095 249.719 39.4784 249.719 39.6677C249.719 39.826 249.757 39.9621 249.832 40.076C249.909 40.188 250.008 40.2817 250.128 40.357C250.247 40.4304 250.373 40.4912 250.504 40.5395C250.635 40.5858 250.756 40.6235 250.866 40.6524L251.469 40.8146C251.623 40.8552 251.795 40.9112 251.984 40.9826C252.175 41.0541 252.358 41.1516 252.532 41.2752C252.707 41.3968 252.852 41.5532 252.966 41.7444C253.08 41.9355 253.137 42.1701 253.137 42.4482C253.137 42.7687 253.053 43.0584 252.885 43.3171C252.719 43.5759 252.476 43.7815 252.155 43.934C251.836 44.0866 251.449 44.1629 250.994 44.1629C250.569 44.1629 250.201 44.0943 249.89 43.9572C249.581 43.8201 249.338 43.629 249.16 43.3837C248.984 43.1385 248.885 42.8537 248.862 42.5293H249.603C249.623 42.7533 249.698 42.9387 249.829 43.0854C249.962 43.2302 250.13 43.3384 250.333 43.4098C250.538 43.4793 250.758 43.5141 250.994 43.5141C251.268 43.5141 251.514 43.4697 251.732 43.3808C251.95 43.2901 252.123 43.1646 252.251 43.0043C252.378 42.8421 252.442 42.6529 252.442 42.4366C252.442 42.2397 252.387 42.0794 252.277 41.9558C252.167 41.8322 252.022 41.7318 251.842 41.6546C251.663 41.5773 251.469 41.5098 251.26 41.4518L250.53 41.2433C250.067 41.1101 249.7 40.9199 249.43 40.6727C249.159 40.4255 249.024 40.1021 249.024 39.7024C249.024 39.3703 249.114 39.0807 249.293 38.8335C249.475 38.5844 249.718 38.3913 250.023 38.2542C250.33 38.1152 250.673 38.0457 251.052 38.0457C251.434 38.0457 251.774 38.1142 252.071 38.2513C252.368 38.3865 252.604 38.5719 252.778 38.8074C252.954 39.043 253.046 39.3104 253.056 39.6097H252.361ZM257.029 42.2397V39.6097H257.713V44.0586H257.029V43.3055H256.983C256.878 43.5314 256.716 43.7236 256.496 43.8819C256.276 44.0383 255.998 44.1165 255.662 44.1165C255.384 44.1165 255.137 44.0557 254.92 43.934C254.704 43.8105 254.534 43.6251 254.411 43.3779C254.287 43.1289 254.225 42.8151 254.225 42.4366V39.6097H254.909V42.3903C254.909 42.7147 255 42.9734 255.181 43.1665C255.365 43.3596 255.598 43.4561 255.882 43.4561C256.052 43.4561 256.225 43.4127 256.4 43.3258C256.578 43.2389 256.727 43.1057 256.846 42.9261C256.968 42.7465 257.029 42.5177 257.029 42.2397ZM259.648 38.1268V44.0586H258.964V38.1268H259.648ZM262.881 39.6097V40.189H260.483V39.6097H262.881ZM261.201 44.0586V38.9957C261.201 38.7408 261.261 38.5284 261.381 38.3585C261.501 38.1886 261.656 38.0611 261.847 37.9762C262.038 37.8912 262.24 37.8487 262.452 37.8487C262.62 37.8487 262.758 37.8622 262.864 37.8893C262.97 37.9163 263.049 37.9414 263.101 37.9646L262.904 38.5554C262.87 38.5439 262.821 38.5294 262.759 38.512C262.7 38.4946 262.62 38.4859 262.522 38.4859C262.296 38.4859 262.133 38.5429 262.032 38.6568C261.934 38.7707 261.885 38.9378 261.885 39.1579V44.0586H261.201ZM265.021 44.1629C264.739 44.1629 264.483 44.1098 264.253 44.0036C264.024 43.8954 263.841 43.74 263.706 43.5372C263.571 43.3326 263.503 43.0854 263.503 42.7958C263.503 42.5409 263.553 42.3343 263.654 42.1759C263.754 42.0157 263.888 41.8902 264.056 41.7994C264.224 41.7087 264.41 41.6411 264.612 41.5967C264.817 41.5503 265.023 41.5136 265.229 41.4866C265.5 41.4518 265.719 41.4258 265.887 41.4084C266.057 41.3891 266.18 41.3572 266.258 41.3128C266.337 41.2684 266.376 41.1912 266.376 41.0811V41.0579C266.376 40.7722 266.298 40.5501 266.142 40.3918C265.987 40.2334 265.753 40.1543 265.438 40.1543C265.112 40.1543 264.856 40.2257 264.67 40.3686C264.485 40.5115 264.355 40.664 264.279 40.8262L263.631 40.5945C263.746 40.3242 263.901 40.1137 264.094 39.9631C264.289 39.8105 264.501 39.7043 264.731 39.6445C264.963 39.5827 265.191 39.5518 265.415 39.5518C265.558 39.5518 265.722 39.5692 265.907 39.6039C266.094 39.6368 266.275 39.7053 266.449 39.8096C266.624 39.9139 266.77 40.0712 266.886 40.2817C267.002 40.4922 267.06 40.7741 267.06 41.1274V44.0586H266.376V43.4561H266.342C266.295 43.5527 266.218 43.656 266.11 43.7661C266.002 43.8761 265.858 43.9698 265.678 44.047C265.499 44.1242 265.28 44.1629 265.021 44.1629ZM265.125 43.5488C265.395 43.5488 265.623 43.4957 265.809 43.3895C265.996 43.2833 266.137 43.1462 266.232 42.9782C266.328 42.8102 266.376 42.6336 266.376 42.4482V41.8226C266.347 41.8573 266.284 41.8892 266.185 41.9182C266.089 41.9452 265.977 41.9693 265.849 41.9906C265.724 42.0099 265.601 42.0273 265.481 42.0427C265.364 42.0562 265.268 42.0678 265.195 42.0775C265.017 42.1006 264.851 42.1383 264.696 42.1904C264.544 42.2406 264.42 42.3169 264.326 42.4192C264.233 42.5196 264.187 42.6567 264.187 42.8305C264.187 43.068 264.275 43.2476 264.45 43.3693C264.628 43.489 264.853 43.5488 265.125 43.5488ZM270.242 39.6097V40.189H267.937V39.6097H270.242ZM268.609 38.5439H269.292V42.7842C269.292 42.9773 269.32 43.1221 269.376 43.2186C269.434 43.3133 269.508 43.377 269.596 43.4098C269.687 43.4407 269.783 43.4561 269.883 43.4561C269.958 43.4561 270.02 43.4523 270.069 43.4446C270.117 43.4349 270.155 43.4272 270.184 43.4214L270.323 44.0354C270.277 44.0528 270.212 44.0702 270.129 44.0876C270.046 44.1069 269.941 44.1165 269.814 44.1165C269.621 44.1165 269.431 44.075 269.246 43.992C269.063 43.9089 268.91 43.7825 268.788 43.6125C268.669 43.4426 268.609 43.2283 268.609 42.9695V38.5439ZM272.05 38.1268V44.0586H271.366V38.1268H272.05ZM274.611 44.1629C274.329 44.1629 274.073 44.1098 273.843 44.0036C273.613 43.8954 273.431 43.74 273.296 43.5372C273.161 43.3326 273.093 43.0854 273.093 42.7958C273.093 42.5409 273.143 42.3343 273.244 42.1759C273.344 42.0157 273.478 41.8902 273.646 41.7994C273.814 41.7087 274 41.6411 274.202 41.5967C274.407 41.5503 274.613 41.5136 274.819 41.4866C275.09 41.4518 275.309 41.4258 275.477 41.4084C275.647 41.3891 275.77 41.3572 275.848 41.3128C275.927 41.2684 275.966 41.1912 275.966 41.0811V41.0579C275.966 40.7722 275.888 40.5501 275.732 40.3918C275.577 40.2334 275.343 40.1543 275.028 40.1543C274.702 40.1543 274.446 40.2257 274.26 40.3686C274.075 40.5115 273.945 40.664 273.869 40.8262L273.221 40.5945C273.336 40.3242 273.491 40.1137 273.684 39.9631C273.879 39.8105 274.091 39.7043 274.321 39.6445C274.553 39.5827 274.781 39.5518 275.005 39.5518C275.148 39.5518 275.312 39.5692 275.497 39.6039C275.684 39.6368 275.865 39.7053 276.039 39.8096C276.214 39.9139 276.36 40.0712 276.476 40.2817C276.592 40.4922 276.65 40.7741 276.65 41.1274V44.0586H275.966V43.4561H275.932C275.885 43.5527 275.808 43.656 275.7 43.7661C275.592 43.8761 275.448 43.9698 275.268 44.047C275.089 44.1242 274.87 44.1629 274.611 44.1629ZM274.715 43.5488C274.985 43.5488 275.213 43.4957 275.399 43.3895C275.586 43.2833 275.727 43.1462 275.822 42.9782C275.918 42.8102 275.966 42.6336 275.966 42.4482V41.8226C275.937 41.8573 275.874 41.8892 275.775 41.9182C275.679 41.9452 275.567 41.9693 275.439 41.9906C275.314 42.0099 275.191 42.0273 275.071 42.0427C274.954 42.0562 274.858 42.0678 274.785 42.0775C274.607 42.1006 274.441 42.1383 274.286 42.1904C274.134 42.2406 274.01 42.3169 273.916 42.4192C273.823 42.5196 273.777 42.6567 273.777 42.8305C273.777 43.068 273.865 43.2476 274.04 43.3693C274.218 43.489 274.443 43.5488 274.715 43.5488ZM277.898 44.0586V39.6097H278.558V40.2817H278.604C278.685 40.0616 278.832 39.883 279.044 39.7459C279.257 39.6088 279.496 39.5402 279.763 39.5402C279.813 39.5402 279.876 39.5412 279.951 39.5431C280.026 39.545 280.083 39.5479 280.122 39.5518V40.2469C280.099 40.2411 280.046 40.2325 279.963 40.2209C279.882 40.2074 279.796 40.2006 279.705 40.2006C279.489 40.2006 279.295 40.246 279.126 40.3367C278.958 40.4255 278.824 40.5491 278.726 40.7075C278.629 40.8639 278.581 41.0425 278.581 41.2433V44.0586H277.898Z" fill="#246677"/>
<path d="M273.712 28.4663V27.8143L276.588 23.2631H277.061V24.2731H276.741L274.568 27.712V27.7631H278.442V28.4663H273.712ZM276.793 29.8086V28.2681V27.9645V23.2631H277.547V29.8086H276.793Z" fill="#246677"/>
<path d="M252.2 73.148C251.502 73.148 250.88 73.0282 250.334 72.7886C249.791 72.549 249.36 72.216 249.039 71.7897C248.722 71.3599 248.549 70.8613 248.521 70.294H249.853C249.881 70.6428 250.001 70.9441 250.212 71.1978C250.424 71.4479 250.7 71.6417 251.042 71.7791C251.384 71.9166 251.763 71.9853 252.178 71.9853C252.644 71.9853 253.056 71.9042 253.415 71.7421C253.775 71.5801 254.056 71.3546 254.261 71.0657C254.465 70.7767 254.567 70.442 254.567 70.0615C254.567 69.6633 254.469 69.3128 254.271 69.0098C254.074 68.7032 253.785 68.4636 253.405 68.291C253.024 68.1183 252.559 68.032 252.009 68.032H251.143V66.8693H252.009C252.439 66.8693 252.816 66.7918 253.14 66.6368C253.468 66.4817 253.723 66.2633 253.907 65.9814C254.093 65.6995 254.187 65.3683 254.187 64.9878C254.187 64.6214 254.106 64.3025 253.944 64.0312C253.782 63.7599 253.553 63.5485 253.257 63.397C252.964 63.2455 252.619 63.1697 252.221 63.1697C251.847 63.1697 251.495 63.2384 251.164 63.3759C250.836 63.5097 250.568 63.7053 250.36 63.9625C250.153 64.2162 250.04 64.5227 250.022 64.8821H248.754C248.775 64.3148 248.946 63.818 249.266 63.3917C249.587 62.9619 250.006 62.6271 250.524 62.3875C251.046 62.1479 251.618 62.0282 252.242 62.0282C252.911 62.0282 253.486 62.1638 253.965 62.4351C254.444 62.7029 254.812 63.057 255.069 63.4974C255.327 63.9378 255.455 64.4135 255.455 64.9244C255.455 65.5339 255.295 66.0536 254.974 66.4835C254.657 66.9133 254.226 67.2111 253.679 67.3767V67.4612C254.363 67.574 254.897 67.8647 255.281 68.3333C255.665 68.7984 255.857 69.3744 255.857 70.0615C255.857 70.6499 255.697 71.1784 255.376 71.647C255.059 72.1121 254.625 72.4785 254.076 72.7463C253.526 73.0141 252.901 73.148 252.2 73.148ZM261.464 62.0282C261.908 62.0317 262.352 62.1162 262.796 62.2818C263.24 62.4474 263.645 62.7223 264.012 63.1063C264.378 63.4868 264.672 64.0065 264.894 64.6654C265.116 65.3243 265.227 66.1505 265.227 67.1441C265.227 68.106 265.136 68.9604 264.953 69.7074C264.773 70.4508 264.512 71.078 264.17 71.5889C263.832 72.0998 263.42 72.4873 262.934 72.7516C262.451 73.0159 261.905 73.148 261.295 73.148C260.689 73.148 260.148 73.0282 259.673 72.7886C259.201 72.5455 258.813 72.209 258.51 71.7791C258.211 71.3458 258.018 70.8437 257.934 70.2729H259.223C259.34 70.7697 259.571 71.1802 259.916 71.5043C260.265 71.8249 260.724 71.9853 261.295 71.9853C262.13 71.9853 262.789 71.6206 263.272 70.8912C263.758 70.1619 264.001 69.1313 264.001 67.7995H263.917C263.719 68.0954 263.485 68.3509 263.214 68.5658C262.942 68.7807 262.641 68.9463 262.31 69.0626C261.979 69.1789 261.626 69.237 261.253 69.237C260.633 69.237 260.064 69.0837 259.546 68.7772C259.031 68.4672 258.619 68.0426 258.309 67.5035C258.003 66.9609 257.849 66.3408 257.849 65.6432C257.849 64.9808 257.997 64.3747 258.293 63.8251C258.593 63.2719 259.012 62.8315 259.551 62.5038C260.094 62.1761 260.731 62.0176 261.464 62.0282ZM261.464 63.1909C261.02 63.1909 260.621 63.3019 260.265 63.5238C259.912 63.7423 259.632 64.0382 259.424 64.4117C259.22 64.7817 259.118 65.1922 259.118 65.6432C259.118 66.0941 259.216 66.5046 259.414 66.8746C259.615 67.241 259.888 67.5335 260.233 67.7519C260.582 67.9668 260.978 68.0743 261.422 68.0743C261.757 68.0743 262.069 68.0091 262.358 67.8787C262.646 67.7449 262.898 67.5634 263.113 67.3344C263.332 67.1018 263.503 66.8393 263.626 66.5469C263.749 66.2509 263.811 65.9426 263.811 65.622C263.811 65.1992 263.709 64.8028 263.504 64.4329C263.304 64.0629 263.025 63.7634 262.669 63.5344C262.317 63.3054 261.915 63.1909 261.464 63.1909ZM271.978 67.0067V68.1694H267.242V67.0067H271.978ZM277.956 62.1761V73H276.646V63.5503H276.582L273.94 65.3049V63.9731L276.646 62.1761H277.956ZM284.6 73.148C283.804 73.148 283.125 72.9313 282.565 72.4979C282.005 72.061 281.577 71.4286 281.281 70.6006C280.985 69.769 280.837 68.7649 280.837 67.5881C280.837 66.4183 280.985 65.4194 281.281 64.5914C281.58 63.7599 282.01 63.1257 282.57 62.6888C283.134 62.2484 283.811 62.0282 284.6 62.0282C285.389 62.0282 286.064 62.2484 286.624 62.6888C287.188 63.1257 287.618 63.7599 287.914 64.5914C288.213 65.4194 288.363 66.4183 288.363 67.5881C288.363 68.7649 288.215 69.769 287.919 70.6006C287.623 71.4286 287.195 72.061 286.635 72.4979C286.074 72.9313 285.396 73.148 284.6 73.148ZM284.6 71.9853C285.389 71.9853 286.002 71.6047 286.439 70.8437C286.876 70.0826 287.094 68.9974 287.094 67.5881C287.094 66.6508 286.994 65.8528 286.793 65.1939C286.596 64.535 286.31 64.033 285.937 63.6877C285.567 63.3424 285.121 63.1697 284.6 63.1697C283.818 63.1697 283.206 63.5555 282.766 64.3272C282.325 65.0953 282.105 66.1822 282.105 67.5881C282.105 68.5253 282.204 69.3216 282.401 69.9769C282.599 70.6323 282.882 71.1308 283.252 71.4726C283.626 71.8144 284.075 71.9853 284.6 71.9853ZM293.902 73.148C293.105 73.148 292.427 72.9313 291.867 72.4979C291.307 72.061 290.879 71.4286 290.583 70.6006C290.287 69.769 290.139 68.7649 290.139 67.5881C290.139 66.4183 290.287 65.4194 290.583 64.5914C290.882 63.7599 291.312 63.1257 291.872 62.6888C292.436 62.2484 293.112 62.0282 293.902 62.0282C294.691 62.0282 295.366 62.2484 295.926 62.6888C296.49 63.1257 296.919 63.7599 297.215 64.5914C297.515 65.4194 297.665 66.4183 297.665 67.5881C297.665 68.7649 297.517 69.769 297.221 70.6006C296.925 71.4286 296.497 72.061 295.936 72.4979C295.376 72.9313 294.698 73.148 293.902 73.148ZM293.902 71.9853C294.691 71.9853 295.304 71.6047 295.741 70.8437C296.178 70.0826 296.396 68.9974 296.396 67.5881C296.396 66.6508 296.296 65.8528 296.095 65.1939C295.898 64.535 295.612 64.033 295.239 63.6877C294.869 63.3424 294.423 63.1697 293.902 63.1697C293.119 63.1697 292.508 63.5555 292.068 64.3272C291.627 65.0953 291.407 66.1822 291.407 67.5881C291.407 68.5253 291.506 69.3216 291.703 69.9769C291.9 70.6323 292.184 71.1308 292.554 71.4726C292.927 71.8144 293.377 71.9853 293.902 71.9853Z" fill="white"/>
<rect width="62.97" height="51" transform="translate(306.508 1.05859)" fill="white"/>
<path d="M326.454 17.5H324.957C324.868 17.0694 324.713 16.6911 324.492 16.3651C324.275 16.0391 324.009 15.7654 323.695 15.544C323.385 15.3187 323.041 15.1496 322.663 15.0369C322.284 14.9242 321.89 14.8679 321.479 14.8679C320.731 14.8679 320.053 15.0571 319.445 15.4354C318.841 15.8137 318.36 16.3711 318.002 17.1076C317.648 17.8441 317.471 18.7476 317.471 19.8182C317.471 20.8887 317.648 21.7923 318.002 22.5288C318.36 23.2653 318.841 23.8227 319.445 24.201C320.053 24.5793 320.731 24.7685 321.479 24.7685C321.89 24.7685 322.284 24.7121 322.663 24.5994C323.041 24.4867 323.385 24.3197 323.695 24.0984C324.009 23.873 324.275 23.5973 324.492 23.2713C324.713 22.9413 324.868 22.563 324.957 22.1364H326.454C326.341 22.7682 326.136 23.3337 325.838 23.8327C325.54 24.3318 325.17 24.7564 324.727 25.1065C324.285 25.4527 323.788 25.7163 323.236 25.8974C322.689 26.0785 322.103 26.169 321.479 26.169C320.425 26.169 319.487 25.9115 318.666 25.3963C317.845 24.8812 317.199 24.1487 316.728 23.1989C316.257 22.2491 316.022 21.1222 316.022 19.8182C316.022 18.5142 316.257 17.3873 316.728 16.4375C317.199 15.4877 317.845 14.7552 318.666 14.2401C319.487 13.7249 320.425 13.4673 321.479 13.4673C322.103 13.4673 322.689 13.5579 323.236 13.739C323.788 13.9201 324.285 14.1857 324.727 14.5359C325.17 14.882 325.54 15.3046 325.838 15.8036C326.136 16.2987 326.341 16.8641 326.454 17.5ZM330.105 13.6364V26H328.68V13.6364H330.105Z" fill="#246677"/>
<path d="M316.092 38.0245L317.648 40.5348H317.695L319.251 38.0245H320.111L318.213 41.0415L320.111 44.0586H319.251L317.695 41.5955H317.648L316.092 44.0586H315.232L317.176 41.0415L315.232 38.0245H316.092ZM321.663 38.0245V44.0586H320.968V38.0245H321.663ZM324.775 44.1529C324.366 44.1529 324.008 44.0556 323.699 43.8612C323.393 43.6667 323.153 43.3947 322.981 43.0451C322.81 42.6954 322.724 42.2869 322.724 41.8194C322.724 41.348 322.81 40.9365 322.981 40.5849C323.153 40.2333 323.393 39.9602 323.699 39.7658C324.008 39.5713 324.366 39.4741 324.775 39.4741C325.183 39.4741 325.541 39.5713 325.847 39.7658C326.156 39.9602 326.395 40.2333 326.566 40.5849C326.739 40.9365 326.826 41.348 326.826 41.8194C326.826 42.2869 326.739 42.6954 326.566 43.0451C326.395 43.3947 326.156 43.6667 325.847 43.8612C325.541 44.0556 325.183 44.1529 324.775 44.1529ZM324.775 43.5283C325.085 43.5283 325.341 43.4487 325.541 43.2896C325.741 43.1305 325.89 42.9213 325.986 42.662C326.082 42.4028 326.13 42.1219 326.13 41.8194C326.13 41.5169 326.082 41.235 325.986 40.9738C325.89 40.7125 325.741 40.5014 325.541 40.3403C325.341 40.1793 325.085 40.0987 324.775 40.0987C324.465 40.0987 324.209 40.1793 324.009 40.3403C323.809 40.5014 323.66 40.7125 323.564 40.9738C323.468 41.235 323.42 41.5169 323.42 41.8194C323.42 42.1219 323.468 42.4028 323.564 42.662C323.66 42.9213 323.809 43.1305 324.009 43.2896C324.209 43.4487 324.465 43.5283 324.775 43.5283ZM327.887 44.0586V39.533H328.559V40.2166H328.606C328.688 39.9927 328.838 39.811 329.054 39.6715C329.27 39.532 329.513 39.4623 329.784 39.4623C329.835 39.4623 329.899 39.4633 329.976 39.4653C330.053 39.4672 330.11 39.4702 330.15 39.4741V40.1812C330.126 40.1753 330.072 40.1665 329.988 40.1547C329.905 40.141 329.818 40.1341 329.725 40.1341C329.505 40.1341 329.309 40.1802 329.136 40.2726C328.965 40.3629 328.83 40.4886 328.73 40.6497C328.631 40.8088 328.582 40.9905 328.582 41.1948V44.0586H327.887ZM330.974 44.0586V39.533H331.669V44.0586H330.974ZM331.328 38.7788C331.192 38.7788 331.075 38.7326 330.977 38.6403C330.881 38.548 330.833 38.437 330.833 38.3074C330.833 38.1777 330.881 38.0667 330.977 37.9744C331.075 37.8821 331.192 37.8359 331.328 37.8359C331.463 37.8359 331.579 37.8821 331.675 37.9744C331.773 38.0667 331.823 38.1777 331.823 38.3074C331.823 38.437 331.773 38.548 331.675 38.6403C331.579 38.7326 331.463 38.7788 331.328 38.7788ZM334.652 44.1529C334.275 44.1529 333.942 44.0576 333.653 43.8671C333.364 43.6746 333.138 43.4035 332.975 43.0539C332.812 42.7023 332.731 42.2869 332.731 41.8076C332.731 41.3323 332.812 40.9198 332.975 40.5701C333.138 40.2205 333.365 39.9504 333.656 39.7599C333.947 39.5694 334.282 39.4741 334.664 39.4741C334.958 39.4741 335.191 39.5232 335.362 39.6214C335.535 39.7177 335.666 39.8277 335.757 39.9514C335.849 40.0732 335.921 40.1734 335.972 40.2519H336.031V38.0245H336.726V44.0586H336.054V43.3633H335.972C335.921 43.4458 335.848 43.5499 335.754 43.6756C335.659 43.7993 335.525 43.9103 335.35 44.0085C335.175 44.1048 334.942 44.1529 334.652 44.1529ZM334.746 43.5283C335.025 43.5283 335.261 43.4556 335.453 43.3102C335.646 43.1629 335.792 42.9596 335.892 42.7003C335.992 42.4391 336.042 42.1376 336.042 41.7958C336.042 41.458 335.993 41.1623 335.895 40.909C335.797 40.6536 335.652 40.4552 335.459 40.3138C335.267 40.1704 335.029 40.0987 334.746 40.0987C334.451 40.0987 334.206 40.1743 334.009 40.3256C333.815 40.4749 333.669 40.6782 333.57 40.9355C333.474 41.1908 333.426 41.4776 333.426 41.7958C333.426 42.1179 333.475 42.4106 333.573 42.6738C333.674 42.9351 333.821 43.1433 334.015 43.2984C334.212 43.4516 334.455 43.5283 334.746 43.5283ZM338.791 38.0245V44.0586H338.096V38.0245H338.791ZM341.397 44.1647C341.11 44.1647 340.85 44.1106 340.616 44.0026C340.382 43.8926 340.197 43.7345 340.059 43.5283C339.922 43.32 339.853 43.0686 339.853 42.774C339.853 42.5147 339.904 42.3045 340.006 42.1435C340.108 41.9804 340.245 41.8528 340.416 41.7605C340.586 41.6681 340.775 41.5994 340.981 41.5542C341.189 41.5071 341.399 41.4697 341.609 41.4422C341.884 41.4069 342.107 41.3804 342.278 41.3627C342.45 41.3431 342.576 41.3106 342.655 41.2655C342.735 41.2203 342.776 41.1417 342.776 41.0298V41.0062C342.776 40.7155 342.696 40.4896 342.537 40.3285C342.38 40.1675 342.141 40.0869 341.821 40.0869C341.489 40.0869 341.229 40.1596 341.04 40.305C340.852 40.4503 340.719 40.6055 340.642 40.7705L339.982 40.5348C340.1 40.2598 340.257 40.0457 340.454 39.8925C340.652 39.7373 340.868 39.6293 341.102 39.5684C341.338 39.5055 341.569 39.4741 341.797 39.4741C341.943 39.4741 342.11 39.4918 342.298 39.5271C342.489 39.5605 342.672 39.6303 342.849 39.7363C343.028 39.8424 343.176 40.0025 343.294 40.2166C343.412 40.4307 343.471 40.7175 343.471 41.0769V44.0586H342.776V43.4458H342.74C342.693 43.544 342.614 43.6491 342.504 43.761C342.394 43.873 342.248 43.9682 342.065 44.0468C341.883 44.1254 341.66 44.1647 341.397 44.1647ZM341.503 43.54C341.778 43.54 342.009 43.486 342.198 43.378C342.389 43.27 342.532 43.1305 342.628 42.9596C342.726 42.7887 342.776 42.609 342.776 42.4204V41.784C342.746 41.8194 342.681 41.8518 342.581 41.8813C342.483 41.9088 342.369 41.9333 342.239 41.9549C342.112 41.9746 341.987 41.9922 341.865 42.0079C341.745 42.0217 341.648 42.0335 341.573 42.0433C341.393 42.0669 341.224 42.1052 341.067 42.1582C340.911 42.2093 340.786 42.2869 340.69 42.391C340.595 42.4931 340.548 42.6326 340.548 42.8093C340.548 43.0509 340.637 43.2336 340.816 43.3574C340.997 43.4791 341.226 43.54 341.503 43.54ZM344.74 44.0586V39.533H345.412V40.2166H345.459C345.541 39.9927 345.691 39.811 345.907 39.6715C346.123 39.532 346.366 39.4623 346.637 39.4623C346.689 39.4623 346.752 39.4633 346.829 39.4653C346.906 39.4672 346.963 39.4702 347.003 39.4741V40.1812C346.979 40.1753 346.925 40.1665 346.841 40.1547C346.758 40.141 346.671 40.1341 346.579 40.1341C346.359 40.1341 346.162 40.1802 345.989 40.2726C345.818 40.3629 345.683 40.4886 345.583 40.6497C345.484 40.8088 345.435 40.9905 345.435 41.1948V44.0586H344.74Z" fill="#246677"/>
<path d="M318.428 74.1445C317.822 74.1445 317.277 74.0241 316.792 73.7833C316.307 73.5425 315.918 73.2122 315.626 72.7925C315.333 72.3728 315.173 71.8946 315.146 71.358H316.384C316.432 71.8361 316.649 72.2318 317.035 72.5448C317.423 72.8544 317.888 73.0092 318.428 73.0092C318.861 73.0092 319.247 72.9077 319.584 72.7048C319.924 72.5018 320.191 72.2232 320.384 71.8688C320.58 71.511 320.678 71.1068 320.678 70.6562C320.678 70.1952 320.576 69.7841 320.373 69.4229C320.174 69.0582 319.898 68.771 319.548 68.5611C319.197 68.3513 318.796 68.2446 318.345 68.2412C318.022 68.2377 317.69 68.2876 317.349 68.3908C317.009 68.4906 316.728 68.6196 316.508 68.7778L315.311 68.6333L315.951 63.4318H321.441V64.5671H317.024L316.653 67.6839H316.715C316.931 67.5119 317.203 67.3691 317.53 67.2556C317.857 67.142 318.197 67.0853 318.552 67.0853C319.198 67.0853 319.775 67.2401 320.28 67.5497C320.789 67.8559 321.189 68.2756 321.477 68.8088C321.77 69.342 321.916 69.9509 321.916 70.6355C321.916 71.3098 321.765 71.9118 321.462 72.4416C321.163 72.968 320.75 73.3842 320.224 73.6904C319.697 73.9931 319.099 74.1445 318.428 74.1445ZM330.138 68.1483V69.2835H322.872V68.1483H330.138ZM331.232 74V73.0712L334.72 69.2526C335.129 68.8054 335.466 68.4166 335.731 68.0864C335.996 67.7527 336.192 67.4396 336.32 67.1472C336.45 66.8513 336.516 66.5417 336.516 66.2184C336.516 65.8468 336.426 65.5252 336.247 65.2534C336.072 64.9816 335.831 64.7718 335.525 64.6238C335.219 64.4759 334.875 64.4019 334.493 64.4019C334.087 64.4019 333.733 64.4862 333.43 64.6548C333.131 64.8199 332.898 65.0521 332.733 65.3514C332.572 65.6507 332.491 66.0016 332.491 66.4041H331.273C331.273 65.7849 331.416 65.2413 331.701 64.7735C331.987 64.3056 332.375 63.941 332.867 63.6795C333.363 63.4181 333.918 63.2873 334.534 63.2873C335.153 63.2873 335.702 63.4181 336.18 63.6795C336.658 63.941 337.033 64.2936 337.305 64.7374C337.577 65.1811 337.713 65.6748 337.713 66.2184C337.713 66.6071 337.642 66.9872 337.501 67.3588C337.364 67.7269 337.123 68.138 336.779 68.5921C336.438 69.0427 335.965 69.5932 335.36 70.2433L332.986 72.7822V72.8647H337.899V74H331.232ZM343.332 74.1445C342.727 74.1445 342.182 74.0241 341.697 73.7833C341.212 73.5425 340.823 73.2122 340.53 72.7925C340.238 72.3728 340.078 71.8946 340.05 71.358H341.289C341.337 71.8361 341.554 72.2318 341.939 72.5448C342.328 72.8544 342.792 73.0092 343.332 73.0092C343.766 73.0092 344.151 72.9077 344.488 72.7048C344.829 72.5018 345.095 72.2232 345.288 71.8688C345.484 71.511 345.582 71.1068 345.582 70.6562C345.582 70.1952 345.481 69.7841 345.278 69.4229C345.078 69.0582 344.803 68.771 344.452 68.5611C344.101 68.3513 343.701 68.2446 343.25 68.2412C342.926 68.2377 342.594 68.2876 342.254 68.3908C341.913 68.4906 341.633 68.6196 341.413 68.7778L340.216 68.6333L340.855 63.4318H346.346V64.5671H341.929L341.557 67.6839H341.619C341.836 67.5119 342.108 67.3691 342.435 67.2556C342.761 67.142 343.102 67.0853 343.456 67.0853C344.103 67.0853 344.679 67.2401 345.185 67.5497C345.694 67.8559 346.093 68.2756 346.382 68.8088C346.675 69.342 346.821 69.9509 346.821 70.6355C346.821 71.3098 346.669 71.9118 346.367 72.4416C346.067 72.968 345.655 73.3842 345.128 73.6904C344.602 73.9931 344.003 74.1445 343.332 74.1445Z" fill="white"/>
<rect width="66.47" height="51" transform="translate(173.441 1)" fill="white"/>
<path d="M183.415 13.8295H185.174L189.31 23.932H189.453L193.589 13.8295H195.348V26H193.969V16.7533H193.85L190.047 26H188.716L184.913 16.7533H184.794V26H183.415V13.8295ZM201.797 29.6131C201.12 29.6131 200.537 29.5259 200.05 29.3516C199.563 29.1813 199.157 28.9555 198.832 28.6742C198.511 28.3969 198.255 28.0997 198.065 27.7828L199.182 26.9984C199.309 27.1648 199.47 27.3549 199.664 27.5688C199.858 27.7867 200.123 27.9749 200.46 28.1334C200.801 28.2958 201.246 28.377 201.797 28.377C202.534 28.377 203.142 28.1988 203.622 27.8422C204.101 27.4857 204.341 26.927 204.341 26.1664V24.3123H204.222C204.119 24.4787 203.972 24.6847 203.782 24.9303C203.596 25.172 203.326 25.3879 202.974 25.5781C202.625 25.7643 202.154 25.8574 201.559 25.8574C200.823 25.8574 200.161 25.6831 199.575 25.3344C198.992 24.9858 198.531 24.4787 198.19 23.8131C197.853 23.1475 197.685 22.3394 197.685 21.3885C197.685 20.4536 197.849 19.6394 198.178 18.9461C198.507 18.2489 198.964 17.7101 199.551 17.3297C200.137 16.9455 200.815 16.7533 201.583 16.7533C202.177 16.7533 202.649 16.8524 202.998 17.0504C203.35 17.2446 203.62 17.4664 203.806 17.716C203.996 17.9616 204.142 18.1637 204.245 18.3222H204.388V16.8722H205.743V26.2615C205.743 27.0459 205.565 27.6837 205.208 28.175C204.856 28.6702 204.38 29.0327 203.782 29.2625C203.188 29.4962 202.526 29.6131 201.797 29.6131ZM201.75 24.5975C202.312 24.5975 202.788 24.4688 203.176 24.2113C203.564 23.9538 203.859 23.5833 204.061 23.1C204.263 22.6167 204.364 22.0383 204.364 21.3648C204.364 20.7071 204.265 20.1267 204.067 19.6236C203.869 19.1204 203.576 18.7263 203.188 18.441C202.799 18.1558 202.32 18.0131 201.75 18.0131C201.155 18.0131 200.66 18.1637 200.264 18.4648C199.872 18.7659 199.577 19.17 199.378 19.6771C199.184 20.1842 199.087 20.7467 199.087 21.3648C199.087 21.9986 199.186 22.5592 199.384 23.0465C199.586 23.5299 199.884 23.9102 200.276 24.1875C200.672 24.4609 201.163 24.5975 201.75 24.5975Z" fill="#246677"/>
<path d="M182.697 37.7614H183.599L185.719 42.9399H185.792L187.912 37.7614H188.814V44H188.107V39.2601H188.046L186.096 44H185.414L183.465 39.2601H183.404V44H182.697V37.7614ZM191.608 44.1097C191.311 44.1097 191.042 44.0538 190.801 43.9421C190.559 43.8284 190.367 43.6649 190.225 43.4517C190.083 43.2364 190.012 42.9765 190.012 42.6719C190.012 42.4038 190.064 42.1865 190.17 42.02C190.276 41.8514 190.417 41.7194 190.593 41.624C190.77 41.5285 190.965 41.4574 191.178 41.4107C191.394 41.362 191.61 41.3234 191.827 41.295C192.111 41.2584 192.342 41.231 192.519 41.2127C192.697 41.1924 192.827 41.1589 192.909 41.1122C192.992 41.0655 193.033 40.9843 193.033 40.8685V40.8441C193.033 40.5436 192.951 40.31 192.787 40.1435C192.624 39.977 192.377 39.8937 192.046 39.8937C191.703 39.8937 191.434 39.9688 191.239 40.1191C191.044 40.2694 190.907 40.4298 190.828 40.6004L190.146 40.3567C190.267 40.0724 190.43 39.8511 190.633 39.6927C190.838 39.5322 191.062 39.4205 191.303 39.3576C191.547 39.2926 191.787 39.2601 192.022 39.2601C192.172 39.2601 192.345 39.2784 192.54 39.3149C192.737 39.3495 192.927 39.4215 193.11 39.5312C193.294 39.6409 193.448 39.8064 193.57 40.0277C193.691 40.2491 193.752 40.5456 193.752 40.9172V44H193.033V43.3664H192.997C192.948 43.4679 192.867 43.5766 192.753 43.6923C192.639 43.8081 192.488 43.9066 192.299 43.9878C192.11 44.069 191.88 44.1097 191.608 44.1097ZM191.717 43.4639C192.002 43.4639 192.241 43.408 192.436 43.2963C192.633 43.1846 192.782 43.0404 192.881 42.8638C192.983 42.6871 193.033 42.5013 193.033 42.3063V41.6483C193.003 41.6849 192.936 41.7184 192.832 41.7489C192.731 41.7773 192.613 41.8027 192.479 41.825C192.347 41.8453 192.218 41.8636 192.092 41.8798C191.968 41.8941 191.868 41.9062 191.791 41.9164C191.604 41.9408 191.429 41.9804 191.267 42.0352C191.106 42.088 190.976 42.1682 190.877 42.2758C190.779 42.3814 190.73 42.5256 190.73 42.7084C190.73 42.9582 190.823 43.1471 191.008 43.275C191.195 43.4009 191.431 43.4639 191.717 43.4639ZM196.953 45.8521C196.606 45.8521 196.307 45.8074 196.058 45.7181C195.808 45.6307 195.6 45.515 195.433 45.3708C195.269 45.2286 195.138 45.0763 195.04 44.9139L195.613 44.5118C195.678 44.5971 195.76 44.6945 195.86 44.8042C195.959 44.9159 196.095 45.0124 196.268 45.0936C196.442 45.1769 196.671 45.2185 196.953 45.2185C197.331 45.2185 197.643 45.1271 197.888 44.9443C198.134 44.7616 198.257 44.4752 198.257 44.0853V43.1349H198.196C198.143 43.2202 198.068 43.3258 197.971 43.4517C197.875 43.5756 197.737 43.6862 197.556 43.7837C197.378 43.8792 197.136 43.9269 196.831 43.9269C196.454 43.9269 196.114 43.8375 195.814 43.6588C195.515 43.4801 195.279 43.2202 195.104 42.879C194.931 42.5378 194.845 42.1235 194.845 41.6361C194.845 41.1569 194.929 40.7395 195.098 40.3841C195.267 40.0267 195.501 39.7505 195.802 39.5556C196.102 39.3586 196.449 39.2601 196.843 39.2601C197.148 39.2601 197.39 39.3109 197.568 39.4124C197.749 39.5119 197.887 39.6256 197.983 39.7536C198.08 39.8795 198.155 39.9831 198.208 40.0643H198.281V39.321H198.976V44.134C198.976 44.5361 198.884 44.8631 198.702 45.1149C198.521 45.3688 198.277 45.5546 197.971 45.6724C197.666 45.7922 197.327 45.8521 196.953 45.8521ZM196.929 43.2811C197.217 43.2811 197.461 43.2151 197.66 43.0831C197.859 42.9511 198.01 42.7612 198.114 42.5134C198.217 42.2657 198.269 41.9692 198.269 41.624C198.269 41.2868 198.218 40.9893 198.117 40.7314C198.015 40.4735 197.865 40.2714 197.666 40.1252C197.467 39.979 197.221 39.9059 196.929 39.9059C196.624 39.9059 196.37 39.9831 196.167 40.1374C195.966 40.2917 195.815 40.4989 195.713 40.7588C195.614 41.0188 195.564 41.3072 195.564 41.624C195.564 41.9489 195.615 42.2362 195.716 42.486C195.82 42.7338 195.972 42.9287 196.173 43.0709C196.376 43.211 196.628 43.2811 196.929 43.2811ZM201.011 41.1853V44H200.292V39.321H200.986V40.0521H201.047C201.157 39.8145 201.323 39.6236 201.547 39.4794C201.77 39.3332 202.059 39.2601 202.412 39.2601C202.729 39.2601 203.006 39.3251 203.244 39.4551C203.481 39.583 203.666 39.778 203.798 40.0399C203.93 40.2999 203.996 40.6289 203.996 41.0269V44H203.277V41.0756C203.277 40.7081 203.182 40.4217 202.991 40.2166C202.8 40.0095 202.538 39.9059 202.205 39.9059C201.975 39.9059 201.77 39.9556 201.589 40.0552C201.411 40.1547 201.27 40.2999 201.166 40.4908C201.062 40.6817 201.011 40.9132 201.011 41.1853ZM205.31 44V39.321H206.029V44H205.31ZM205.675 38.5412C205.535 38.5412 205.414 38.4935 205.313 38.398C205.213 38.3026 205.163 38.1878 205.163 38.0538C205.163 37.9198 205.213 37.805 205.313 37.7096C205.414 37.6141 205.535 37.5664 205.675 37.5664C205.815 37.5664 205.935 37.6141 206.035 37.7096C206.136 37.805 206.187 37.9198 206.187 38.0538C206.187 38.1878 206.136 38.3026 206.035 38.398C205.935 38.4935 205.815 38.5412 205.675 38.5412ZM207.808 45.7546C207.686 45.7546 207.578 45.7445 207.482 45.7242C207.387 45.7059 207.321 45.6876 207.284 45.6693L207.467 45.0357C207.642 45.0804 207.796 45.0966 207.93 45.0845C208.064 45.0723 208.183 45.0124 208.287 44.9047C208.392 44.7991 208.489 44.6275 208.576 44.3899L208.71 44.0244L206.98 39.321H207.76L209.051 43.0496H209.1L210.391 39.321H211.171L209.185 44.6824C209.096 44.924 208.985 45.1241 208.853 45.2825C208.721 45.4429 208.568 45.5617 208.393 45.6389C208.221 45.716 208.026 45.7546 207.808 45.7546Z" fill="#246677"/>
<path d="M185.727 73.148C185.029 73.148 184.407 73.0282 183.861 72.7886C183.319 72.549 182.887 72.216 182.566 71.7897C182.249 71.3599 182.077 70.8613 182.049 70.294H183.38C183.409 70.6428 183.528 70.9441 183.74 71.1978C183.951 71.4479 184.228 71.6417 184.57 71.7791C184.911 71.9166 185.29 71.9853 185.706 71.9853C186.171 71.9853 186.583 71.9042 186.943 71.7421C187.302 71.5801 187.584 71.3546 187.788 71.0657C187.992 70.7767 188.095 70.442 188.095 70.0615C188.095 69.6633 187.996 69.3128 187.799 69.0098C187.601 68.7032 187.312 68.4636 186.932 68.291C186.551 68.1183 186.086 68.032 185.537 68.032H184.67V66.8693H185.537C185.967 66.8693 186.344 66.7918 186.668 66.6368C186.995 66.4817 187.251 66.2633 187.434 65.9814C187.621 65.6995 187.714 65.3683 187.714 64.9878C187.714 64.6214 187.633 64.3025 187.471 64.0312C187.309 63.7599 187.08 63.5485 186.784 63.397C186.492 63.2455 186.146 63.1697 185.748 63.1697C185.375 63.1697 185.022 63.2384 184.691 63.3759C184.363 63.5097 184.096 63.7053 183.888 63.9625C183.68 64.2162 183.567 64.5227 183.549 64.8821H182.281C182.302 64.3148 182.473 63.818 182.794 63.3917C183.114 62.9619 183.534 62.6271 184.052 62.3875C184.573 62.1479 185.146 62.0282 185.769 62.0282C186.439 62.0282 187.013 62.1638 187.492 62.4351C187.971 62.7029 188.34 63.057 188.597 63.4974C188.854 63.9378 188.983 64.4135 188.983 64.9244C188.983 65.5339 188.822 66.0536 188.502 66.4835C188.185 66.9133 187.753 67.2111 187.207 67.3767V67.4612C187.89 67.574 188.424 67.8647 188.808 68.3333C189.192 68.7984 189.384 69.3744 189.384 70.0615C189.384 70.6499 189.224 71.1784 188.903 71.647C188.586 72.1121 188.153 72.4785 187.603 72.7463C187.053 73.0141 186.428 73.148 185.727 73.148ZM191.292 70.7803V69.7021L196.049 62.1761H196.831V63.8462H196.302L192.709 69.533V69.6175H199.114V70.7803H191.292ZM196.387 73V70.4526V69.9505V62.1761H197.634V73H196.387Z" fill="white"/>
<path d="M369.48 1H456.12C458.882 1 461.12 3.23858 461.12 6V52H369.48V1Z" fill="white"/>
<path d="M388.664 14.3125V26H387.294L380.925 16.8235H380.811V26H379.396V14.3125H380.765L387.157 23.5118H387.271V14.3125H388.664ZM393.892 26.2054C393.337 26.2054 392.833 26.1008 392.38 25.8916C391.927 25.6785 391.568 25.3723 391.302 24.9728C391.035 24.5695 390.902 24.0825 390.902 23.5118C390.902 23.0096 391.001 22.6026 391.199 22.2906C391.397 21.9748 391.661 21.7275 391.992 21.5487C392.323 21.3699 392.688 21.2367 393.088 21.1492C393.491 21.0579 393.896 20.9856 394.303 20.9324C394.836 20.8639 395.268 20.8125 395.599 20.7783C395.934 20.7402 396.177 20.6775 396.329 20.59C396.485 20.5025 396.563 20.3503 396.563 20.1334V20.0878C396.563 19.5247 396.409 19.0872 396.101 18.7752C395.797 18.4632 395.334 18.3073 394.714 18.3073C394.071 18.3073 393.567 18.448 393.202 18.7296C392.837 19.0111 392.58 19.3116 392.431 19.6312L391.153 19.1747C391.381 18.642 391.686 18.2274 392.066 17.9306C392.451 17.63 392.869 17.4208 393.322 17.3029C393.778 17.1811 394.227 17.1202 394.669 17.1202C394.95 17.1202 395.273 17.1545 395.639 17.223C396.008 17.2876 396.363 17.4227 396.706 17.6281C397.052 17.8336 397.339 18.1437 397.568 18.5583C397.796 18.973 397.91 19.5285 397.91 20.2247V26H396.563V24.813H396.495C396.403 25.0032 396.251 25.2068 396.038 25.4236C395.825 25.6405 395.542 25.825 395.188 25.9772C394.834 26.1294 394.402 26.2054 393.892 26.2054ZM394.098 24.9956C394.63 24.9956 395.079 24.891 395.445 24.6817C395.814 24.4725 396.091 24.2024 396.278 23.8714C396.468 23.5404 396.563 23.1923 396.563 22.827V21.5944C396.506 21.6628 396.381 21.7256 396.187 21.7827C395.996 21.8359 395.776 21.8835 395.525 21.9254C395.277 21.9634 395.036 21.9976 394.8 22.0281C394.568 22.0547 394.379 22.0775 394.235 22.0966C393.885 22.1422 393.558 22.2164 393.253 22.3191C392.953 22.418 392.709 22.5683 392.523 22.77C392.34 22.9678 392.249 23.2379 392.249 23.5803C392.249 24.0483 392.422 24.4021 392.768 24.6418C393.118 24.8777 393.561 24.9956 394.098 24.9956Z" fill="#246677"/>
<path d="M402.457 17.5845V13.2635H403.317V17.5845H402.457ZM400.728 15.8523V14.9925H405.049V15.8523H400.728Z" fill="#246677"/>
<path d="M416.636 23.9545V16.4545H417.909V23.9545H416.636ZM413.523 20.8409V19.5682H421.023V20.8409H413.523ZM423.956 26V14.3636H425.365V20.1364H425.501L430.729 14.3636H432.57L427.683 19.6136L432.57 26H430.865L426.82 20.5909L425.365 22.2273V26H423.956Z" fill="#246677"/>
<path d="M383.403 38.0682V44H382.707L379.475 39.3426H379.417V44H378.699V38.0682H379.394L382.638 42.7372H382.696V38.0682H383.403ZM386.056 44.1043C385.774 44.1043 385.519 44.0512 385.289 43.945C385.059 43.8368 384.877 43.6814 384.741 43.4786C384.606 43.274 384.539 43.0268 384.539 42.7372C384.539 42.4823 384.589 42.2757 384.689 42.1173C384.79 41.9571 384.924 41.8316 385.092 41.7408C385.26 41.6501 385.445 41.5825 385.648 41.5381C385.853 41.4917 386.058 41.455 386.265 41.428C386.535 41.3932 386.754 41.3672 386.922 41.3498C387.092 41.3305 387.216 41.2986 387.293 41.2542C387.372 41.2098 387.412 41.1326 387.412 41.0225V40.9993C387.412 40.7136 387.334 40.4915 387.177 40.3332C387.023 40.1748 386.788 40.0957 386.473 40.0957C386.147 40.0957 385.891 40.1671 385.706 40.31C385.521 40.4529 385.39 40.6054 385.315 40.7676L384.666 40.5359C384.782 40.2656 384.936 40.0551 385.129 39.9045C385.325 39.752 385.537 39.6458 385.767 39.5859C385.998 39.5241 386.226 39.4932 386.45 39.4932C386.593 39.4932 386.757 39.5106 386.943 39.5453C387.13 39.5782 387.31 39.6467 387.484 39.751C387.66 39.8553 387.806 40.0126 387.922 40.2231C388.037 40.4336 388.095 40.7155 388.095 41.0688V44H387.412V43.3975H387.377C387.331 43.4941 387.254 43.5974 387.145 43.7075C387.037 43.8175 386.893 43.9112 386.714 43.9884C386.534 44.0657 386.315 44.1043 386.056 44.1043ZM386.161 43.4902C386.431 43.4902 386.659 43.4371 386.844 43.3309C387.031 43.2247 387.172 43.0876 387.267 42.9196C387.364 42.7517 387.412 42.575 387.412 42.3896V41.764C387.383 41.7987 387.319 41.8306 387.221 41.8596C387.124 41.8866 387.012 41.9107 386.885 41.932C386.759 41.9513 386.637 41.9687 386.517 41.9841C386.399 41.9976 386.304 42.0092 386.23 42.0189C386.052 42.042 385.886 42.0797 385.732 42.1318C385.579 42.182 385.456 42.2583 385.361 42.3606C385.269 42.461 385.222 42.5981 385.222 42.7719C385.222 43.0094 385.31 43.189 385.486 43.3107C385.663 43.4304 385.888 43.4902 386.161 43.4902ZM391.278 39.5511V40.1304H388.972V39.5511H391.278ZM389.644 38.4853H390.328V42.7256C390.328 42.9187 390.356 43.0635 390.412 43.16C390.47 43.2547 390.543 43.3184 390.632 43.3512C390.723 43.3821 390.818 43.3975 390.919 43.3975C390.994 43.3975 391.056 43.3937 391.104 43.386C391.152 43.3763 391.191 43.3686 391.22 43.3628L391.359 43.9768C391.313 43.9942 391.248 44.0116 391.165 44.029C391.082 44.0483 390.977 44.0579 390.849 44.0579C390.656 44.0579 390.467 44.0164 390.281 43.9334C390.098 43.8504 389.945 43.7239 389.824 43.554C389.704 43.384 389.644 43.1697 389.644 42.911V38.4853ZM392.306 44V39.5511H392.966V40.2231H393.013C393.094 40.003 393.241 39.8244 393.453 39.6873C393.665 39.5502 393.905 39.4816 394.171 39.4816C394.222 39.4816 394.284 39.4826 394.36 39.4845C394.435 39.4865 394.492 39.4893 394.53 39.4932V40.1883C394.507 40.1826 394.454 40.1739 394.371 40.1623C394.29 40.1488 394.204 40.142 394.113 40.142C393.897 40.142 393.704 40.1874 393.534 40.2781C393.366 40.367 393.233 40.4905 393.134 40.6489C393.038 40.8053 392.99 40.9839 392.99 41.1847V44H392.306ZM395.341 44V39.5511H396.024V44H395.341ZM395.688 38.8097C395.555 38.8097 395.44 38.7643 395.344 38.6735C395.249 38.5828 395.202 38.4737 395.202 38.3462C395.202 38.2188 395.249 38.1097 395.344 38.0189C395.44 37.9282 395.555 37.8828 395.688 37.8828C395.822 37.8828 395.935 37.9282 396.03 38.0189C396.127 38.1097 396.175 38.2188 396.175 38.3462C396.175 38.4737 396.127 38.5828 396.03 38.6735C395.935 38.7643 395.822 38.8097 395.688 38.8097ZM397.717 45.6683C397.601 45.6683 397.497 45.6587 397.407 45.6394C397.316 45.622 397.253 45.6046 397.218 45.5872L397.392 44.9848C397.558 45.0273 397.705 45.0427 397.832 45.0311C397.96 45.0195 398.073 44.9626 398.171 44.8602C398.272 44.7598 398.363 44.5967 398.446 44.3707L398.574 44.0232L396.929 39.5511H397.67L398.898 43.0963H398.945L400.173 39.5511H400.914L399.026 44.6488C398.941 44.8786 398.835 45.0688 398.71 45.2194C398.584 45.3719 398.439 45.4849 398.273 45.5583C398.108 45.6316 397.923 45.6683 397.717 45.6683ZM405.848 42.9573V39.1341H406.497V42.9573H405.848ZM404.261 41.3701V40.7213H408.084V41.3701H404.261ZM411.873 44V38.0682H412.592V41.0109H412.661L415.326 38.0682H416.264L413.773 40.7445L416.264 44H415.395L413.333 41.2426L412.592 42.0768V44H411.873ZM418.411 44.1043C418.129 44.1043 417.873 44.0512 417.643 43.945C417.413 43.8368 417.231 43.6814 417.096 43.4786C416.96 43.274 416.893 43.0268 416.893 42.7372C416.893 42.4823 416.943 42.2757 417.043 42.1173C417.144 41.9571 417.278 41.8316 417.446 41.7408C417.614 41.6501 417.799 41.5825 418.002 41.5381C418.207 41.4917 418.412 41.455 418.619 41.428C418.889 41.3932 419.109 41.3672 419.277 41.3498C419.446 41.3305 419.57 41.2986 419.647 41.2542C419.726 41.2098 419.766 41.1326 419.766 41.0225V40.9993C419.766 40.7136 419.688 40.4915 419.531 40.3332C419.377 40.1748 419.142 40.0957 418.828 40.0957C418.501 40.0957 418.245 40.1671 418.06 40.31C417.875 40.4529 417.744 40.6054 417.669 40.7676L417.02 40.5359C417.136 40.2656 417.291 40.0551 417.484 39.9045C417.679 39.752 417.891 39.6458 418.121 39.5859C418.353 39.5241 418.58 39.4932 418.804 39.4932C418.947 39.4932 419.111 39.5106 419.297 39.5453C419.484 39.5782 419.665 39.6467 419.838 39.751C420.014 39.8553 420.16 40.0126 420.276 40.2231C420.392 40.4336 420.45 40.7155 420.45 41.0688V44H419.766V43.3975H419.731C419.685 43.4941 419.608 43.5974 419.5 43.7075C419.391 43.8175 419.248 43.9112 419.068 43.9884C418.888 44.0657 418.669 44.1043 418.411 44.1043ZM418.515 43.4902C418.785 43.4902 419.013 43.4371 419.198 43.3309C419.386 43.2247 419.527 43.0876 419.621 42.9196C419.718 42.7517 419.766 42.575 419.766 42.3896V41.764C419.737 41.7987 419.673 41.8306 419.575 41.8596C419.478 41.8866 419.366 41.9107 419.239 41.932C419.113 41.9513 418.991 41.9687 418.871 41.9841C418.753 41.9976 418.658 42.0092 418.584 42.0189C418.407 42.042 418.241 42.0797 418.086 42.1318C417.934 42.182 417.81 42.2583 417.715 42.3606C417.623 42.461 417.576 42.5981 417.576 42.7719C417.576 43.0094 417.664 43.189 417.84 43.3107C418.018 43.4304 418.243 43.4902 418.515 43.4902ZM422.381 38.0682V44H421.697V38.0682H422.381ZM423.633 44V39.5511H424.316V44H423.633ZM423.98 38.8097C423.847 38.8097 423.732 38.7643 423.636 38.6735C423.541 38.5828 423.494 38.4737 423.494 38.3462C423.494 38.2188 423.541 38.1097 423.636 38.0189C423.732 37.9282 423.847 37.8828 423.98 37.8828C424.114 37.8828 424.227 37.9282 424.322 38.0189C424.419 38.1097 424.467 38.2188 424.467 38.3462C424.467 38.4737 424.419 38.5828 424.322 38.6735C424.227 38.7643 424.114 38.8097 423.98 38.8097ZM426.009 45.6683C425.893 45.6683 425.789 45.6587 425.699 45.6394C425.608 45.622 425.545 45.6046 425.51 45.5872L425.684 44.9848C425.85 45.0273 425.997 45.0427 426.124 45.0311C426.252 45.0195 426.365 44.9626 426.463 44.8602C426.564 44.7598 426.655 44.5967 426.738 44.3707L426.866 44.0232L425.221 39.5511H425.962L427.19 43.0963H427.237L428.465 39.5511H429.206L427.318 44.6488C427.233 44.8786 427.127 45.0688 427.002 45.2194C426.876 45.3719 426.731 45.4849 426.565 45.5583C426.4 45.6316 426.215 45.6683 426.009 45.6683Z" fill="#246677"/>
<path d="M437.266 17.5845V13.2635H438.125V17.5845H437.266ZM435.537 15.8523V14.9925H439.858V15.8523H435.537Z" fill="#246677"/>
<path d="M381.926 63.1761V74H380.615V64.5503H380.552L377.909 66.3049V64.9731L380.615 63.1761H381.926ZM388.569 74.148C387.773 74.148 387.095 73.9313 386.534 73.4979C385.974 73.061 385.546 72.4286 385.25 71.6006C384.954 70.769 384.806 69.7649 384.806 68.5881C384.806 67.4183 384.954 66.4194 385.25 65.5914C385.55 64.7599 385.979 64.1257 386.54 63.6888C387.103 63.2484 387.78 63.0282 388.569 63.0282C389.358 63.0282 390.033 63.2484 390.593 63.6888C391.157 64.1257 391.587 64.7599 391.883 65.5914C392.182 66.4194 392.332 67.4183 392.332 68.5881C392.332 69.7649 392.184 70.769 391.888 71.6006C391.592 72.4286 391.164 73.061 390.604 73.4979C390.044 73.9313 389.365 74.148 388.569 74.148ZM388.569 72.9853C389.358 72.9853 389.971 72.6047 390.408 71.8437C390.845 71.0826 391.064 69.9974 391.064 68.5881C391.064 67.6508 390.963 66.8528 390.762 66.1939C390.565 65.535 390.28 65.033 389.906 64.6877C389.536 64.3424 389.091 64.1697 388.569 64.1697C387.787 64.1697 387.176 64.5555 386.735 65.3272C386.295 66.0953 386.074 67.1822 386.074 68.5881C386.074 69.5253 386.173 70.3216 386.37 70.9769C386.568 71.6323 386.851 72.1308 387.221 72.4726C387.595 72.8144 388.044 72.9853 388.569 72.9853Z" fill="white"/>
</svg>
