<svg width="149" height="53" viewBox="0 0 149 53" fill="none" xmlns="http://www.w3.org/2000/svg">
<path d="M16.5978 51.9737V52.6304H12.9157H12.6172V45.6643H13.3139H16.548V46.3211H13.3139V48.7889H16.2993V49.4461H13.3139V51.9737H16.5978ZM17.0952 45.6643H17.8313L20.021 51.7646L22.2102 45.6643H22.9467L20.3791 52.6304H19.6627L17.0952 45.6643ZM27.8229 51.9737V52.6304H24.1407H23.8422V45.6643H24.5389H27.773V46.3211H24.5389V48.7889H27.5243V49.4461H24.5389V51.9737H27.8229ZM31.2657 49.8438H29.7135V52.6304H29.0169V45.6643H29.7135H31.5046C31.883 45.6643 32.2328 45.7572 32.5547 45.9431C32.8761 46.1289 33.1299 46.3823 33.3158 46.7042C33.5016 47.026 33.5945 47.3759 33.5945 47.7543C33.5945 48.2252 33.4502 48.6482 33.1615 49.0231C32.8729 49.3979 32.5065 49.645 32.0621 49.7643L34.5897 52.6304H33.7139L31.2657 49.8438ZM29.7135 49.1871H31.5046C31.7568 49.1871 31.9889 49.1226 32.2012 48.9929C32.4135 48.8636 32.5828 48.6898 32.7089 48.4707C32.8346 48.2517 32.8979 48.0129 32.8979 47.7543C32.8979 47.4953 32.8346 47.2566 32.7089 47.0375C32.5828 46.8188 32.4135 46.6445 32.2012 46.5152C31.9889 46.3859 31.7568 46.3211 31.5046 46.3211H29.7135V49.1871ZM37.2964 49.3864V52.6304H36.5997V49.3663L34.1915 45.6643H34.9775L36.958 48.6996L38.9285 45.6643H39.7145L37.2964 49.3864ZM45.9843 45.6643C46.6079 45.6643 47.1701 45.8201 47.671 46.132C48.172 46.444 48.5634 46.865 48.8452 47.396C49.1272 47.9267 49.2683 48.5106 49.2683 49.1472C49.2683 49.7842 49.1272 50.3682 48.8452 50.8987C48.5634 51.4297 48.172 51.8507 47.671 52.1626C47.1701 52.4746 46.6079 52.6304 45.9843 52.6304H43.397H43.0984V45.6643H43.7952H45.9843ZM45.9843 51.9737C46.4885 51.9737 46.9395 51.8476 47.3377 51.5954C47.7359 51.3435 48.0442 51.0018 48.2632 50.5705C48.4823 50.1392 48.5914 49.6648 48.5914 49.1472C48.5914 48.63 48.4823 48.1556 48.2632 47.7242C48.0442 47.2928 47.7359 46.9513 47.3377 46.6995C46.9395 46.4471 46.4885 46.3211 45.9843 46.3211H43.7952V51.9737H45.9843ZM52.7116 49.8438H51.1594V52.6304H50.4627V45.6643H51.1594H52.9504C53.3288 45.6643 53.6787 45.7572 54.0005 45.9431C54.322 46.1289 54.5758 46.3823 54.7616 46.7042C54.9475 47.026 55.0404 47.3759 55.0404 47.7543C55.0404 48.2252 54.896 48.6482 54.6074 49.0231C54.3188 49.3979 53.9523 49.645 53.5079 49.7643L56.0355 52.6304H55.1598L52.7116 49.8438ZM51.1594 49.1871H52.9504C53.2027 49.1871 53.4347 49.1226 53.6471 48.9929C53.8594 48.8636 54.0286 48.6898 54.1548 48.4707C54.2804 48.2517 54.3437 48.0129 54.3437 47.7543C54.3437 47.4953 54.2804 47.2566 54.1548 47.0375C54.0286 46.8188 53.8594 46.6445 53.6471 46.5152C53.4347 46.3859 53.2027 46.3211 52.9504 46.3211H51.1594V49.1871ZM59.6378 52.7499C58.9743 52.7499 58.3674 52.589 57.8167 52.2671C57.266 51.9452 56.8314 51.5091 56.5131 50.9584C56.1948 50.4081 56.0355 49.8043 56.0355 49.1472C56.0355 48.4904 56.1948 47.8867 56.5131 47.3364C56.8314 46.7856 57.266 46.3495 57.8167 46.0277C58.3674 45.7059 58.9743 45.5449 59.6378 45.5449C60.3012 45.5449 60.9084 45.7059 61.4589 46.0277C62.0096 46.3495 62.4441 46.7856 62.7628 47.3364C63.081 47.8867 63.2405 48.4904 63.2405 49.1472C63.2405 49.8043 63.081 50.4081 62.7628 50.9584C62.4441 51.5091 62.0096 51.9452 61.4589 52.2671C60.9084 52.589 60.3012 52.7499 59.6378 52.7499ZM59.6378 52.0729C60.1754 52.0729 60.6661 51.9421 61.1109 51.68C61.5553 51.4179 61.9052 51.0647 62.1606 50.6203C62.4161 50.1756 62.5437 49.6849 62.5437 49.1472C62.5437 48.6098 62.4161 48.1192 62.1606 47.6745C61.9052 47.2301 61.5553 46.877 61.1109 46.6148C60.6661 46.3527 60.1754 46.2218 59.6378 46.2218C59.1004 46.2218 58.6094 46.3527 58.165 46.6148C57.7206 46.877 57.3707 47.2301 57.1153 47.6745C56.8599 48.1192 56.7322 48.6098 56.7322 49.1472C56.7322 49.6849 56.8599 50.1756 57.1153 50.6203C57.3707 51.0647 57.7206 51.4179 58.165 51.68C58.6094 51.9421 59.1004 52.0729 59.6378 52.0729ZM66.9225 45.6643C67.3009 45.6643 67.6508 45.7572 67.9727 45.9431C68.294 46.1289 68.5479 46.3823 68.7338 46.7042C68.9196 47.026 69.0125 47.3759 69.0125 47.7543C69.0125 48.1323 68.9179 48.4806 68.7286 48.7992C68.5396 49.1176 68.2857 49.3714 67.9675 49.5604C67.6492 49.7494 67.3009 49.8438 66.9225 49.8438H65.1315V52.6304H64.4348V45.6643H65.1315H66.9225ZM66.9225 49.1871C67.1748 49.1871 67.4069 49.1226 67.6192 48.9929C67.8314 48.8636 68.0007 48.6898 68.1268 48.4707C68.2526 48.2517 68.3157 48.0129 68.3157 47.7543C68.3157 47.4953 68.2526 47.2566 68.1268 47.0375C68.0007 46.8188 67.8314 46.6445 67.6192 46.5152C67.4069 46.3859 67.1748 46.3211 66.9225 46.3211H65.1315V49.1871H66.9225ZM73.3915 45.6643V52.6304H72.695V45.6643H73.3915ZM77.0235 52.7499C76.5724 52.7499 76.1628 52.6652 75.7947 52.4959C75.4266 52.3267 75.1328 52.0813 74.9137 51.7598C74.6952 51.4379 74.5856 51.0548 74.5856 50.6101H75.2823C75.2823 51.0746 75.4432 51.4344 75.7646 51.6899C76.0865 51.9452 76.5064 52.0729 77.0235 52.0729C77.4616 52.0729 77.8281 51.9638 78.1234 51.7448C78.4184 51.5257 78.5663 51.234 78.5663 50.869C78.5663 50.5306 78.4334 50.2621 78.1681 50.0629C77.9028 49.864 77.5145 49.6683 77.0037 49.4757C76.4731 49.2769 76.0734 49.1108 75.8045 48.9784C75.5361 48.8456 75.2989 48.6482 75.0929 48.3861C74.8873 48.124 74.7845 47.7839 74.7845 47.366C74.7845 46.9943 74.8825 46.6709 75.0783 46.3958C75.274 46.1206 75.531 45.9098 75.8492 45.764C76.168 45.6181 76.5127 45.5449 76.8844 45.5449C77.2758 45.5449 77.6391 45.6229 77.974 45.7787C78.3093 45.9348 78.5745 46.1637 78.7702 46.4653C78.966 46.7675 79.0636 47.124 79.0636 47.5353H78.367C78.367 47.1174 78.2293 46.794 77.9542 46.565C77.6786 46.336 77.3224 46.2218 76.8844 46.2218C76.4862 46.2218 76.1529 46.3226 75.884 46.5251C75.6156 46.7274 75.4812 47.0078 75.4812 47.366C75.4812 47.6182 75.5476 47.8286 75.6804 47.9978C75.8128 48.1671 75.9837 48.3081 76.1928 48.4209C76.4016 48.5336 76.6756 48.6565 77.0137 48.7889C77.5445 48.9949 77.9459 49.1658 78.2179 49.3017C78.4899 49.4378 78.732 49.6335 78.9442 49.8889C79.1565 50.1443 79.2628 50.4708 79.2628 50.869C79.2628 51.247 79.1602 51.5788 78.9542 51.8641C78.7485 52.1492 78.4749 52.3683 78.1333 52.5209C77.7917 52.6736 77.4217 52.7499 77.0235 52.7499ZM86.8265 51.9737V52.6304H82.9453V45.6643H83.642V51.9737H86.8265ZM91.8022 51.9737V52.6304H88.1201H87.8215V45.6643H88.5181H91.7523V46.3211H88.5181V48.7889H91.5037V49.4461H88.5181V51.9737H91.8022ZM96.33 49.1176H99.4151V49.7743V52.6304H98.7184V51.5558C98.4598 51.9472 98.1017 52.2441 97.6437 52.4462C97.1859 52.6486 96.6886 52.7499 96.1509 52.7499C95.4676 52.7499 94.8525 52.589 94.3048 52.2671C93.7576 51.9452 93.3279 51.5091 93.0163 50.9584C92.7044 50.4081 92.5486 49.8043 92.5486 49.1472C92.5486 48.4904 92.7044 47.8867 93.0163 47.3364C93.3279 46.7856 93.7576 46.3495 94.3048 46.0277C94.8525 45.7059 95.4676 45.5449 96.1509 45.5449C96.6554 45.5449 97.1314 45.6426 97.579 45.8383C98.0269 46.034 98.41 46.308 98.7283 46.6595C99.0469 47.011 99.2759 47.4091 99.4151 47.8535H98.6587C98.4729 47.3692 98.1515 46.9763 97.6936 46.6745C97.2358 46.3724 96.7214 46.2218 96.1509 46.2218C95.5938 46.2218 95.0944 46.3511 94.6532 46.6097C94.2119 46.8687 93.8672 47.2217 93.6185 47.6697C93.3695 48.1172 93.2453 48.6098 93.2453 49.1472C93.2453 49.6849 93.3695 50.1775 93.6185 50.6251C93.8672 51.073 94.2119 51.4261 94.6532 51.6851C95.0944 51.9437 95.5938 52.0729 96.1509 52.0729C96.6221 52.0729 97.0515 51.9903 97.4398 51.8242C97.8277 51.6586 98.138 51.4146 98.3701 51.0928C98.6026 50.771 98.7184 50.3879 98.7184 49.9435V49.7743H96.33V49.1176ZM104.839 51.9737V52.6304H101.157H100.858V45.6643H101.555H104.789V46.3211H101.555V48.7889H104.54V49.4461H101.555V51.9737H104.839ZM110.71 45.6643V52.6304H110.113L106.729 47.0576V52.6304H106.033V45.6643H106.63L110.013 51.2371V45.6643H110.71ZM115.188 45.6643C115.812 45.6643 116.374 45.8201 116.875 46.132C117.376 46.444 117.767 46.865 118.049 47.396C118.331 47.9267 118.472 48.5106 118.472 49.1472C118.472 49.7842 118.331 50.3682 118.049 50.8987C117.767 51.4297 117.376 51.8507 116.875 52.1626C116.374 52.4746 115.812 52.6304 115.188 52.6304H112.601H112.302V45.6643H112.999H115.188ZM115.188 51.9737C115.692 51.9737 116.143 51.8476 116.541 51.5954C116.94 51.3435 117.248 51.0018 117.467 50.5705C117.686 50.1392 117.795 49.6648 117.795 49.1472C117.795 48.63 117.686 48.1556 117.467 47.7242C117.248 47.2928 116.94 46.9513 116.541 46.6995C116.143 46.4471 115.692 46.3211 115.188 46.3211H112.999V51.9737H115.188ZM123.408 50.9189H120.104L119.457 52.6304H118.721L121.398 45.6643H122.115L124.791 52.6304H124.055L123.408 50.9189ZM123.16 50.2621L121.756 46.5302L120.353 50.2621H123.16ZM127.936 49.8438H126.384V52.6304H125.687V45.6643H126.384H128.175C128.553 45.6643 128.903 45.7572 129.225 45.9431C129.546 46.1289 129.8 46.3823 129.986 46.7042C130.172 47.026 130.265 47.3759 130.265 47.7543C130.265 48.2252 130.121 48.6482 129.832 49.0231C129.543 49.3979 129.177 49.645 128.732 49.7643L131.26 52.6304H130.384L127.936 49.8438ZM126.384 49.1871H128.175C128.427 49.1871 128.659 49.1226 128.872 48.9929C129.084 48.8636 129.253 48.6898 129.379 48.4707C129.505 48.2517 129.568 48.0129 129.568 47.7543C129.568 47.4953 129.505 47.2566 129.379 47.0375C129.253 46.8188 129.084 46.6445 128.872 46.5152C128.659 46.3859 128.427 46.3211 128.175 46.3211H126.384V49.1871ZM133.967 49.3864V52.6304H133.27V49.3663L130.862 45.6643H131.648L133.628 48.6996L135.599 45.6643H136.385L133.967 49.3864Z" fill="#66C3D0"/>
<path d="M19.8073 33.4926C18.0559 34.5436 15.5721 35.2441 13.534 35.2441H6.46469V11.0742C6.46469 10.5961 6.78292 10.2458 7.26057 10.2458H7.29258V9.86393H0.0320146V10.2458H0.0956575C1.49686 10.2458 2.4204 11.2015 2.4204 12.6027V35.3394C2.4204 36.7406 1.49686 37.6642 0.0956575 37.6642H0V38.0782H18.5334L22.1638 32.0277L19.8073 33.4926ZM65.9403 3.82302V4.08865H63.9891H63.867V0.367094H64.1489H65.9138V0.632724H64.1489V2.079H65.781V2.34475H64.1489V3.82302H65.9403ZM67.6895 4.14728C67.4447 4.14728 67.2249 4.10371 67.0299 4.01672C66.8351 3.9301 66.6808 3.8052 66.5678 3.64188C66.4543 3.47907 66.3974 3.28411 66.3974 3.05715H66.6844C66.6844 3.31261 66.7757 3.5127 66.9584 3.65819C67.141 3.80318 67.3847 3.87601 67.6895 3.87601C67.9481 3.87601 68.1607 3.81035 68.3272 3.67954C68.494 3.54824 68.5771 3.37826 68.5771 3.16913C68.5771 3.02363 68.5376 2.90136 68.4576 2.80219C68.3778 2.70289 68.2777 2.62231 68.1572 2.56017C68.0366 2.49815 67.8753 2.43011 67.6736 2.35542C67.6593 2.34826 67.6424 2.34236 67.6231 2.33683C67.6032 2.33169 67.5846 2.32379 67.5673 2.31312C67.3332 2.2245 67.1462 2.14265 67.0062 2.06833C66.8662 1.99402 66.7472 1.8912 66.65 1.76002C66.5524 1.62909 66.5037 1.46061 66.5037 1.25512C66.5037 1.06732 66.5543 0.90163 66.6552 0.757643C66.7564 0.614159 66.8912 0.503425 67.0592 0.425594C67.2276 0.347638 67.413 0.308594 67.6151 0.308594C67.8206 0.308594 68.0101 0.350411 68.1837 0.433514C68.3577 0.516868 68.4956 0.634748 68.5984 0.786894C68.7013 0.939542 68.7526 1.11866 68.7526 1.32428H68.4712C68.4712 1.10083 68.3912 0.920942 68.2315 0.784613C68.0722 0.648159 67.8666 0.579764 67.6151 0.579764C67.3704 0.579764 67.1711 0.64265 67.0169 0.768309C66.8627 0.894469 66.7856 1.05652 66.7856 1.25512C66.7856 1.40726 66.8255 1.53306 66.905 1.63223C66.9848 1.73153 67.0834 1.81136 67.2004 1.87187C67.3174 1.932 67.4818 2.00117 67.6946 2.079C67.9745 2.18897 68.1857 2.27947 68.3272 2.35027C68.4691 2.42107 68.5941 2.523 68.702 2.65581C68.8103 2.78875 68.8645 2.95986 68.8645 3.16913C68.8645 3.36395 68.8111 3.53594 68.7048 3.68469C68.5984 3.8337 68.4557 3.94792 68.277 4.02738C68.0978 4.10722 67.9021 4.14728 67.6895 4.14728ZM71.5226 0.632724H70.4595V4.08865H70.1724V0.632724H69.1089V0.367094H70.4595H71.5226V0.632724ZM71.5016 3.66321H71.8579V4.08865H71.5016V3.66321ZM73.8937 3.83369L75.2601 2.44591C75.4479 2.25812 75.5949 2.07899 75.7013 1.90902C75.8077 1.73854 75.861 1.57058 75.861 1.40375C75.861 1.14515 75.784 0.943174 75.6297 0.797682C75.4755 0.652566 75.2778 0.579764 75.0367 0.579764C74.7852 0.579764 74.5796 0.650555 74.4199 0.792533C74.2606 0.934008 74.1806 1.13611 74.1806 1.3986H73.8937C73.8937 1.16812 73.9458 0.970404 74.0506 0.805454C74.155 0.641006 74.2941 0.516868 74.4677 0.433514C74.6417 0.350411 74.831 0.308594 75.0367 0.308594C75.2351 0.308594 75.4186 0.351274 75.587 0.43626C75.7554 0.521245 75.891 0.646167 75.9938 0.811118C76.0966 0.975942 76.1481 1.17364 76.1481 1.40375C76.1481 1.61288 76.0867 1.81688 75.9646 2.01535C75.8424 2.21382 75.6712 2.4246 75.4514 2.64792L74.2978 3.81751H76.2331V4.08865H73.8937V3.83369ZM78.0886 4.14728C77.7944 4.14728 77.5425 4.06731 77.3334 3.908C77.1243 3.74833 76.9657 3.52412 76.8578 3.23552C76.7494 2.94642 76.6957 2.61074 76.6957 2.22812C76.6957 1.84499 76.7494 1.50933 76.8578 1.22023C76.9657 0.931627 77.1243 0.707422 77.3334 0.547744C77.5425 0.388442 77.7944 0.308594 78.0886 0.308594C78.3827 0.308594 78.6342 0.388442 78.8433 0.547744C79.0525 0.707422 79.211 0.931627 79.3193 1.22023C79.4273 1.50933 79.4814 1.84499 79.4814 2.22812C79.4814 2.61074 79.4273 2.94642 79.3193 3.23552C79.211 3.52412 79.0525 3.74833 78.8433 3.908C78.6342 4.06731 78.3827 4.14728 78.0886 4.14728ZM78.0886 3.87601C78.4357 3.87601 78.7068 3.73163 78.9018 3.44265C79.0968 3.15405 79.1944 2.74883 79.1944 2.22812C79.1944 1.70691 79.0968 1.30207 78.9018 1.0131C78.7068 0.724121 78.4357 0.579764 78.0886 0.579764C77.741 0.579764 77.4697 0.724121 77.2749 1.0131C77.0799 1.30207 76.9827 1.70691 76.9827 2.22812C76.9827 2.74883 77.0799 3.15405 77.2749 3.44265C77.4697 3.73163 77.741 3.87601 78.0886 3.87601ZM79.9919 3.83369L81.3582 2.44591C81.546 2.25812 81.6932 2.07899 81.7995 1.90902C81.9059 1.73854 81.9593 1.57058 81.9593 1.40375C81.9593 1.14515 81.8822 0.943174 81.7279 0.797682C81.5738 0.652566 81.3761 0.579764 81.1349 0.579764C80.8835 0.579764 80.6778 0.650555 80.5182 0.792533C80.3587 0.934008 80.2789 1.13611 80.2789 1.3986H79.9919C79.9919 1.16812 80.044 0.970404 80.1489 0.805454C80.2532 0.641006 80.3924 0.516868 80.566 0.433514C80.74 0.350411 80.9293 0.308594 81.1349 0.308594C81.3334 0.308594 81.5168 0.351274 81.6852 0.43626C81.8537 0.521245 81.9893 0.646167 82.0921 0.811118C82.1949 0.975942 82.2463 1.17364 82.2463 1.40375C82.2463 1.61288 82.185 1.81688 82.0629 2.01535C81.9407 2.21382 81.7695 2.4246 81.5497 2.64792L80.3959 3.81751H82.3312V4.08865H79.9919V3.83369ZM84.1124 1.90902C84.4244 1.94065 84.6813 2.05413 84.8834 2.24908C85.0854 2.44391 85.1862 2.69937 85.1862 3.01483C85.1862 3.24493 85.1305 3.44617 85.019 3.61815C84.9072 3.79026 84.7577 3.92106 84.5699 4.01157C84.3817 4.1022 84.1746 4.14728 83.9476 4.14728C83.7206 4.14728 83.5135 4.1022 83.3257 4.01157C83.1379 3.92106 82.988 3.79026 82.8766 3.61815C82.7646 3.44617 82.7088 3.24493 82.7088 3.01483H82.9908C82.9908 3.27695 83.0802 3.4861 83.2592 3.64188C83.4383 3.79805 83.6677 3.87601 83.9476 3.87601C84.2275 3.87601 84.4573 3.79805 84.6363 3.64188C84.815 3.4861 84.9048 3.27695 84.9048 3.01483C84.9048 2.75234 84.815 2.54322 84.6363 2.38744C84.4573 2.23165 84.2275 2.15331 83.9476 2.15331V2.14817L83.9425 2.15331H83.7455V1.96752L84.6865 0.632724H82.8683V0.367094H85.0111V0.632724L84.1124 1.90902ZM148.208 5.16446C147.681 4.64538 147.035 4.38679 146.271 4.38679C145.507 4.38679 144.862 4.64538 144.335 5.16446C143.806 5.68279 143.543 6.33719 143.543 7.12792C143.543 7.9115 143.806 8.56075 144.335 9.07908C144.862 9.59665 145.507 9.85601 146.271 9.85601C147.035 9.85601 147.681 9.59665 148.208 9.07908C148.736 8.56075 149 7.9115 149 7.12792C149 6.33719 148.736 5.68279 148.208 5.16446ZM147.936 8.80631C147.481 9.25145 146.927 9.4749 146.271 9.4749C145.626 9.4749 145.076 9.24868 144.621 8.79952C144.166 8.34999 143.939 7.79212 143.939 7.12792C143.939 6.44553 144.166 5.88089 144.621 5.42948C145.076 4.97994 145.626 4.75486 146.271 4.75486C146.927 4.75486 147.481 4.97994 147.936 5.42948C148.39 5.88089 148.618 6.44553 148.618 7.12792C148.618 7.80166 148.39 8.36067 147.936 8.80631ZM147.24 7.13584C147.376 6.98483 147.445 6.80605 147.445 6.59578C147.445 6.34195 147.354 6.13987 147.172 5.98923C146.99 5.83984 146.744 5.76427 146.436 5.76427H145.302V8.34208H145.685V7.45531H146.244L147.103 8.34208H147.594L146.694 7.4292C146.922 7.383 147.103 7.28573 147.24 7.13584ZM145.685 7.10181V6.10547H146.436C146.626 6.10547 146.778 6.15054 146.892 6.2423C147.005 6.33319 147.063 6.45066 147.063 6.59578C147.063 6.75157 147.003 6.8741 146.885 6.96461C146.767 7.05637 146.612 7.10181 146.421 7.10181H145.685ZM42.5761 33.4926C40.8247 34.5436 38.3409 35.2441 36.3027 35.2441H29.2335V23.3658H37.1306C37.6723 23.3658 38.4045 23.9708 38.9458 24.1939L39.7101 24.5761L40.0924 18.9397L39.5828 19.449C39.1688 19.8629 38.5002 20.5318 37.9269 20.5318H29.2335V12.6663H36.3027C38.3409 12.6663 40.9203 13.2712 42.6718 14.2584L43.4997 14.7041L41.3022 9.86393H22.7687V10.2458H22.8644C24.2656 10.2458 25.1892 11.2015 25.1892 12.6027V35.3394C25.1892 36.7406 24.2656 37.6642 22.8644 37.6642H22.7687V38.0782H41.3022L44.9325 32.0277L42.5761 33.4926ZM60.8546 24.0028L58.0205 26.8368H65.5675V34.8938C64.1983 35.4987 62.5741 35.817 60.8546 35.817C54.4859 35.817 50.2507 31.5817 50.2507 24.0028C50.2507 16.4239 54.4859 12.1887 60.8546 12.1887C65.2492 12.1887 67.7329 13.9719 69.4208 17.6658V11.9657C67.0007 10.1505 64.517 9.38626 60.8546 9.38626C52.0659 9.38626 46.2064 15.2137 46.2064 24.0028C46.2064 32.792 52.0659 38.6514 59.4217 38.6514C62.5425 38.6514 64.8989 37.6005 65.5675 37.1865V38.0782H69.5801V24.0028H60.8546ZM92.4445 33.4926C90.6931 34.5436 88.2093 35.2441 86.1712 35.2441H79.1019V23.3658H86.9991C87.5407 23.3658 88.273 23.9708 88.8143 24.1939L89.5785 24.5761L89.9609 18.9397L89.4512 19.449C89.0372 19.8629 88.3686 20.5318 87.7953 20.5318H79.1019V12.6663H86.1712C88.2093 12.6663 90.7888 13.2712 92.5402 14.2584L93.3681 14.7041L91.1706 9.86393H72.6371V10.2458H72.7329C74.1341 10.2458 75.0576 11.2015 75.0576 12.6027V35.3394C75.0576 36.7406 74.1341 37.6642 72.7329 37.6642H72.6371V38.0782H91.1706L94.8009 32.0277L92.4445 33.4926ZM115.659 9.86393V10.2458H115.914C117.092 10.2458 117.856 11.0102 117.856 12.1887V31.5181L101.329 9.86393H94.8009C95.6609 10.3099 96.1065 10.5325 96.1701 10.5961C98.1766 11.6791 98.527 13.7809 98.527 15.2138V35.7533C98.527 36.8999 97.7307 37.6642 96.5841 37.6642H96.2979V38.0782H103.558V37.6642H103.272C102.093 37.6642 101.329 36.8999 101.329 35.7533V16.5193L117.792 38.0782H120.69V12.1887C120.69 11.0102 121.455 10.2458 122.633 10.2458H122.888V9.86393H115.659ZM134.829 9.86393H124.926V10.2458C126.104 10.2458 127.314 10.2143 127.314 11.8064L127.346 36.1357C127.346 37.0592 126.741 37.6642 125.817 37.6642H125.722V38.0782H134.065C143.013 38.0782 149 32.4733 149 23.8119C149 15.3731 143.3 9.86393 134.829 9.86393ZM134.192 35.0211H131.39V12.9209H133.301C141.007 12.9209 144.956 17.2199 144.956 23.8755C144.956 30.7859 140.72 35.0211 134.192 35.0211Z" fill="url(#paint0_linear_234_2534)"/>
<defs>
<linearGradient id="paint0_linear_234_2534" x1="149.794" y1="23.9005" x2="2.4204" y2="23.8989" gradientUnits="userSpaceOnUse">
<stop stop-color="#054A6B"/>
<stop offset="0.14902" stop-color="#075A7E"/>
<stop offset="0.34902" stop-color="#056C96"/>
<stop offset="0.509804" stop-color="#096289"/>
<stop offset="0.701961" stop-color="#05506F"/>
<stop offset="0.85098" stop-color="#023F59"/>
<stop offset="1" stop-color="#102F3F"/>
</linearGradient>
</defs>
</svg>
