<svg width="22" height="22" viewBox="0 0 22 22" fill="none" xmlns="http://www.w3.org/2000/svg">
<path fill-rule="evenodd" clip-rule="evenodd" d="M21.8271 10.9136C21.8271 16.941 16.941 21.8271 10.9136 21.8271C4.88617 21.8271 0 16.941 0 10.9136C0 4.88617 4.88617 0 10.9136 0C16.941 0 21.8271 4.88617 21.8271 10.9136ZM10.9117 9.31055C10.4938 9.31055 10.093 9.47532 9.79747 9.76861C9.50195 10.0619 9.33594 10.4597 9.33594 10.8745C9.33594 11.2893 9.50195 11.6871 9.79747 11.9804C10.093 12.2737 10.4938 12.4384 10.9117 12.4384C11.3296 12.4384 11.7304 12.2737 12.0259 11.9804C12.3214 11.6871 12.4874 11.2893 12.4874 10.8745C12.4874 10.4597 12.3214 10.0619 12.0259 9.76861C11.7304 9.47532 11.3296 9.31055 10.9117 9.31055ZM14.1979 5.31694C12.0131 5.07664 9.80813 5.07664 7.62327 5.31694C6.42964 5.44916 5.46733 6.38153 5.32716 7.57023C5.06803 9.76863 5.06803 11.9895 5.32716 14.1879C5.46733 15.376 6.42964 16.3084 7.62327 16.4412C9.80834 16.6816 12.0135 16.6816 14.1986 16.4412C15.3915 16.3084 16.3539 15.376 16.494 14.1873C16.7531 11.9891 16.7531 9.76842 16.494 7.57023C16.3539 6.38153 15.3915 5.44916 14.1979 5.31694ZM13.6089 7.31945C13.7268 7.20249 13.8867 7.13679 14.0534 7.13679C14.2201 7.13679 14.3799 7.20249 14.4978 7.31945C14.6157 7.43641 14.6819 7.59504 14.6819 7.76045C14.6819 7.92585 14.6157 8.08449 14.4978 8.20144C14.3799 8.3184 14.2201 8.38411 14.0534 8.38411C13.8867 8.38411 13.7268 8.3184 13.6089 8.20144C13.491 8.08449 13.4248 7.92585 13.4248 7.76045C13.4248 7.59504 13.491 7.43641 13.6089 7.31945ZM8.79944 8.78403C8.23953 9.33959 7.92497 10.0931 7.92497 10.8788C7.92497 11.6644 8.23953 12.4179 8.79944 12.9735C9.35935 13.529 10.1188 13.8412 10.9106 13.8412C11.7024 13.8412 12.4618 13.529 13.0218 12.9735C13.5817 12.4179 13.8962 11.6644 13.8962 10.8788C13.8962 10.0931 13.5817 9.33959 13.0218 8.78403C12.4618 8.22847 11.7024 7.91636 10.9106 7.91636C10.1188 7.91636 9.35935 8.22847 8.79944 8.78403Z" fill="#205D6D"/>
</svg>
