<svg width="23" height="22" viewBox="0 0 23 22" fill="none" xmlns="http://www.w3.org/2000/svg">
<path fill-rule="evenodd" clip-rule="evenodd" d="M11.8901 21.8271C17.9175 21.8271 22.8037 16.941 22.8037 10.9136C22.8037 4.88617 17.9175 0 11.8901 0C5.86273 0 0.976562 4.88617 0.976562 10.9136C0.976562 16.941 5.86273 21.8271 11.8901 21.8271ZM16.838 6.42805C16.6683 6.40651 16.4955 6.42797 16.3377 6.49019L5.41385 10.7974C4.65238 11.0978 4.61341 12.1291 5.41449 12.4402C6.00731 12.6705 6.73365 12.8595 7.51684 12.9816C7.94613 13.0486 8.30515 12.9816 8.99379 12.5891C9.77443 12.1441 12.1355 10.5629 13.6061 9.52322C14.1983 9.10446 14.427 9.36708 13.9255 9.82233C13.7516 9.98001 13.56 10.1523 13.3584 10.3337C12.0781 11.4851 10.3928 13.0007 10.2714 13.4488C10.1079 14.0554 11.4386 14.9079 11.873 15.1741C12.7417 15.7059 13.7076 16.2156 14.358 16.5464C15.1354 16.9419 16.0655 16.4866 16.2061 15.6928L17.6549 7.46291C17.6827 7.30465 17.6647 7.14229 17.6028 6.99276C17.5408 6.84322 17.4372 6.71196 17.3027 6.61264C17.1682 6.51333 17.0078 6.44958 16.838 6.42805Z" fill="#205D6D"/>
</svg>
