<svg width="781" height="302" viewBox="0 0 781 302" fill="none" xmlns="http://www.w3.org/2000/svg">
<mask id="mask0_234_2442" style="mask-type:alpha" maskUnits="userSpaceOnUse" x="0" y="0" width="781" height="152">
<path d="M1 0H781L780 150L585.5 151L488 152H430.5L414.375 150.469L390 150.5L0 152L1 0Z" fill="white" fill-opacity="0.6"/>
</mask>
<g mask="url(#mask0_234_2442)">
<path d="M104.557 127.932C95.3995 133.423 82.4145 137.083 71.7586 137.083H34.7986V10.8177C34.7986 8.32048 36.463 6.49018 38.9596 6.49018H39.1276V4.49528H1.16735V6.49018H1.50008C8.8258 6.49018 13.6543 11.4827 13.6543 18.8026V137.58C13.6543 144.9 8.8258 149.725 1.50008 149.725H1V151.888H97.8968L116.877 120.28L104.557 127.932ZM223.596 127.932C214.439 133.423 201.453 137.083 190.797 137.083H153.838V75.0299H195.126C197.958 75.0299 201.787 78.1901 204.616 79.3555L208.612 81.3523L210.611 51.9074L207.946 54.568C205.782 56.7301 202.287 60.2248 199.289 60.2248H153.838V19.1351H190.797C201.453 19.1351 214.939 22.2953 224.096 27.4525L228.425 29.7805L216.936 4.49528H120.039V6.49018H120.539C127.865 6.49018 132.694 11.4827 132.694 18.8026V137.58C132.694 144.9 127.865 149.725 120.539 149.725H120.039V151.888H216.936L235.916 120.28L223.596 127.932ZM319.16 78.3573L304.343 93.1624H343.799V135.252C336.641 138.412 328.149 140.075 319.16 140.075C285.863 140.075 263.72 117.95 263.72 78.3573C263.72 38.7648 285.863 16.6398 319.16 16.6398C342.135 16.6398 355.121 25.9553 363.945 45.2525V15.4751C351.292 5.99244 338.307 2 319.16 2C273.21 2 242.576 32.443 242.576 78.3573C242.576 124.272 273.21 154.883 311.668 154.883C327.984 154.883 340.304 149.392 343.799 147.23V151.888H364.778V78.3573H319.16ZM484.318 127.932C475.16 133.423 462.175 137.083 451.519 137.083H414.56V75.0299H455.848C458.68 75.0299 462.508 78.1901 465.338 79.3555L469.334 81.3523L471.332 51.9074L468.668 54.568C466.504 56.7301 463.008 60.2248 460.011 60.2248H414.56V19.1351H451.519C462.175 19.1351 475.66 22.2953 484.818 27.4525L489.146 29.7805L477.658 4.49528H380.761V6.49018H381.261C388.587 6.49018 393.416 11.4827 393.416 18.8026V137.58C393.416 144.9 388.587 149.725 381.261 149.725H380.761V151.888H477.658L496.637 120.28L484.318 127.932ZM605.689 4.49528V6.49018H607.02C613.18 6.49018 617.174 10.4826 617.174 16.6398V117.617L530.767 4.49528H496.637C501.134 6.82529 503.463 7.988 503.796 8.32048C514.286 13.978 516.118 24.9578 516.118 32.443V139.742C516.118 145.732 511.955 149.725 505.96 149.725H504.463V151.888H542.421V149.725H540.922C534.763 149.725 530.767 145.732 530.767 139.742V39.2625L616.84 151.888H631.992V16.6398C631.992 10.4826 635.988 6.49018 642.148 6.49018H643.479V4.49528H605.689ZM705.913 4.49528H654.135V6.49018C660.295 6.49018 666.622 6.32493 666.622 14.6429L666.787 141.74C666.787 146.565 663.625 149.725 658.796 149.725H658.296V151.888H701.918C748.7 151.888 780 122.608 780 77.3599C780 33.2752 750.198 4.49528 705.913 4.49528ZM702.583 135.917H687.932V20.465H697.922C738.211 20.465 758.856 42.9225 758.856 77.6924C758.856 113.792 736.713 135.917 702.583 135.917Z" fill="white" fill-opacity="0.3"/>
</g>
<mask id="mask1_234_2442" style="mask-type:alpha" maskUnits="userSpaceOnUse" x="1" y="147" width="780" height="155">
<path d="M104.689 175.005C95.5208 169.503 82.5184 165.836 71.8489 165.836H34.842V292.363C34.842 294.866 36.5079 296.7 39.0083 296.7H39.1759V298.699H1.16759V296.7H1.50076C8.83589 296.7 13.6706 291.697 13.6706 284.362V165.337C13.6706 158.002 8.83589 153.167 1.50076 153.167H1V151H98.0206L117.025 182.673L104.689 175.005ZM223.882 175.005C214.713 169.503 201.711 165.836 191.041 165.836H154.034V228.018H195.375C198.211 228.018 202.044 224.851 204.877 223.683L208.878 221.682L210.88 251.188L208.212 248.522C206.045 246.355 202.545 242.853 199.543 242.853H154.034V284.029H191.041C201.711 284.029 215.214 280.862 224.382 275.694L228.716 273.361L217.213 298.699H120.192V296.7H120.693C128.028 296.7 132.863 291.697 132.863 284.362V165.337C132.863 158.002 128.028 153.167 120.693 153.167H120.192V151H217.213L236.217 182.673L223.882 175.005ZM319.568 224.683L304.732 209.847H344.239V167.67C337.071 164.503 328.569 162.837 319.568 162.837C286.228 162.837 264.057 185.008 264.057 224.683C264.057 264.358 286.228 286.529 319.568 286.529C342.573 286.529 355.575 277.194 364.411 257.857V287.696C351.742 297.198 338.74 301.199 319.568 301.199C273.56 301.199 242.886 270.693 242.886 224.683C242.886 178.673 273.56 147.999 312.067 147.999C328.404 147.999 340.739 153.5 344.239 155.668V151H365.245V224.683H319.568ZM484.938 175.005C475.769 169.503 462.767 165.836 452.097 165.836H415.091V228.018H456.431C459.267 228.018 463.1 224.851 465.934 223.683L469.934 221.682L471.936 251.188L469.268 248.522C467.101 246.355 463.601 242.853 460.6 242.853H415.091V284.029H452.097C462.767 284.029 476.27 280.862 485.439 275.694L489.773 273.361L478.269 298.699H381.248V296.7H381.749C389.084 296.7 393.919 291.697 393.919 284.362V165.337C393.919 158.002 389.084 153.167 381.749 153.167H381.248V151H478.269L497.273 182.673L484.938 175.005ZM606.465 298.699V296.7H607.798C613.966 296.7 617.964 292.698 617.964 286.529V185.341L531.447 298.699H497.273C501.775 296.364 504.108 295.199 504.441 294.866C514.945 289.196 516.779 278.194 516.779 270.693V163.17C516.779 157.168 512.611 153.167 506.608 153.167H505.11V151H543.116V153.167H541.616C535.448 153.167 531.447 157.168 531.447 163.17V263.858L617.631 151H632.802V286.529C632.802 292.698 636.803 296.7 642.971 296.7H644.304V298.699H606.465ZM706.818 298.699H654.973V296.7C661.141 296.7 667.476 296.865 667.476 288.53L667.642 161.169C667.642 156.334 664.476 153.167 659.64 153.167H659.14V151H702.817C749.66 151 781 180.341 781 225.683C781 269.859 751.16 298.699 706.818 298.699ZM703.484 167.004H688.813V282.696H698.816C739.158 282.696 759.828 260.191 759.828 225.349C759.828 189.174 737.658 167.004 703.484 167.004Z" fill="url(#paint0_linear_234_2442)" fill-opacity="0.4"/>
</mask>
<g mask="url(#mask1_234_2442)">
<rect x="1" y="148.199" width="780" height="156" fill="url(#paint1_linear_234_2442)" fill-opacity="0.3"/>
</g>
<defs>
<linearGradient id="paint0_linear_234_2442" x1="785.156" y1="225.217" x2="13.6706" y2="225.226" gradientUnits="userSpaceOnUse">
<stop stop-color="#054A6B"/>
<stop offset="0.14902" stop-color="#075A7E"/>
<stop offset="0.34902" stop-color="#056C96"/>
<stop offset="0.509804" stop-color="#096289"/>
<stop offset="0.701961" stop-color="#05506F"/>
<stop offset="0.85098" stop-color="#023F59"/>
<stop offset="1" stop-color="#102F3F"/>
</linearGradient>
<linearGradient id="paint1_linear_234_2442" x1="785.156" y1="225.57" x2="13.6706" y2="225.562" gradientUnits="userSpaceOnUse">
<stop stop-color="#054A6B"/>
<stop offset="0.14902" stop-color="#075A7E"/>
<stop offset="0.34902" stop-color="#056C96"/>
<stop offset="0.509804" stop-color="#096289"/>
<stop offset="0.701961" stop-color="#05506F"/>
<stop offset="0.85098" stop-color="#023F59"/>
<stop offset="1" stop-color="#102F3F"/>
</linearGradient>
</defs>
</svg>
