<svg width="779" height="150" viewBox="0 0 779 150" fill="none" xmlns="http://www.w3.org/2000/svg">
<path d="M103.557 125.932C94.3995 131.423 81.4145 135.083 70.7586 135.083H33.7986V8.81773C33.7986 6.32048 35.463 4.49018 37.9596 4.49018H38.1276V2.49528H0.167346V4.49018H0.500083C7.8258 4.49018 12.6543 9.48268 12.6543 16.8026V135.58C12.6543 142.9 7.8258 147.725 0.500083 147.725H0V149.888H96.8968L115.877 118.28L103.557 125.932ZM222.596 125.932C213.439 131.423 200.453 135.083 189.797 135.083H152.838V73.0299H194.126C196.958 73.0299 200.787 76.1901 203.616 77.3555L207.612 79.3523L209.611 49.9074L206.946 52.568C204.782 54.7301 201.287 58.2248 198.289 58.2248H152.838V17.1351H189.797C200.453 17.1351 213.939 20.2953 223.096 25.4525L227.425 27.7805L215.936 2.49528H119.039V4.49018H119.539C126.865 4.49018 131.694 9.48268 131.694 16.8026V135.58C131.694 142.9 126.865 147.725 119.539 147.725H119.039V149.888H215.936L234.916 118.28L222.596 125.932ZM318.16 76.3573L303.343 91.1624H342.799V133.252C335.641 136.412 327.149 138.075 318.16 138.075C284.863 138.075 262.72 115.95 262.72 76.3573C262.72 36.7648 284.863 14.6398 318.16 14.6398C341.135 14.6398 354.121 23.9553 362.945 43.2525V13.4751C350.292 3.99244 337.307 0 318.16 0C272.21 0 241.576 30.443 241.576 76.3573C241.576 122.272 272.21 152.883 310.668 152.883C326.984 152.883 339.304 147.392 342.799 145.23V149.888H363.778V76.3573H318.16ZM483.318 125.932C474.16 131.423 461.175 135.083 450.519 135.083H413.56V73.0299H454.848C457.68 73.0299 461.508 76.1901 464.338 77.3555L468.334 79.3523L470.332 49.9074L467.668 52.568C465.504 54.7301 462.008 58.2248 459.011 58.2248H413.56V17.1351H450.519C461.175 17.1351 474.66 20.2953 483.818 25.4525L488.146 27.7805L476.658 2.49528H379.761V4.49018H380.261C387.587 4.49018 392.416 9.48268 392.416 16.8026V135.58C392.416 142.9 387.587 147.725 380.261 147.725H379.761V149.888H476.658L495.637 118.28L483.318 125.932ZM604.689 2.49528V4.49018H606.02C612.18 4.49018 616.174 8.48261 616.174 14.6398V115.617L529.767 2.49528H495.637C500.134 4.82529 502.463 5.988 502.796 6.32048C513.286 11.978 515.118 22.9578 515.118 30.443V137.742C515.118 143.732 510.955 147.725 504.96 147.725H503.463V149.888H541.421V147.725H539.922C533.763 147.725 529.767 143.732 529.767 137.742V37.2625L615.84 149.888H630.992V14.6398C630.992 8.48261 634.988 4.49018 641.148 4.49018H642.479V2.49528H604.689ZM704.913 2.49528H653.135V4.49018C659.295 4.49018 665.622 4.32493 665.622 12.6429L665.787 139.74C665.787 144.565 662.625 147.725 657.796 147.725H657.296V149.888H700.918C747.7 149.888 779 120.608 779 75.3599C779 31.2752 749.198 2.49528 704.913 2.49528ZM701.583 133.917H686.932V18.465H696.922C737.211 18.465 757.856 40.9225 757.856 75.6924C757.856 111.792 735.713 133.917 701.583 133.917Z" fill="white" fill-opacity="0.3"/>
</svg>
