<svg width="17" height="17" viewBox="0 0 17 17" fill="none" xmlns="http://www.w3.org/2000/svg">
<path fill-rule="evenodd" clip-rule="evenodd" d="M17 8.5C17 13.1944 13.1944 17 8.5 17C3.80558 17 0 13.1944 0 8.5C0 3.80558 3.80558 0 8.5 0C13.1944 0 17 3.80558 17 8.5ZM8.5 7.25035C8.17451 7.25035 7.86235 7.37869 7.63219 7.60712C7.40203 7.83555 7.27273 8.14537 7.27273 8.46842C7.27273 8.79148 7.40203 9.1013 7.63219 9.32973C7.86235 9.55816 8.17451 9.68649 8.5 9.68649C8.82549 9.68649 9.13765 9.55816 9.36781 9.32973C9.59797 9.1013 9.72727 8.79148 9.72727 8.46842C9.72727 8.14537 9.59797 7.83555 9.36781 7.60712C9.13765 7.37869 8.82549 7.25036 8.5 7.25035ZM11.0603 4.14037C9.35866 3.95321 7.64136 3.95321 5.93968 4.14037C5.01003 4.24334 4.26054 4.96952 4.15137 5.89534C3.94954 7.60755 3.94954 9.33728 4.15137 11.0495C4.26054 11.9748 5.01003 12.701 5.93968 12.8045C7.64152 12.9917 9.35899 12.9917 11.0608 12.8045C11.99 12.701 12.7395 11.9748 12.8487 11.049C13.0504 9.33695 13.0504 7.60739 12.8487 5.89534C12.7395 4.96952 11.99 4.24334 11.0603 4.14037ZM10.6016 5.70002C10.6934 5.60892 10.8179 5.55775 10.9477 5.55775C11.0776 5.55775 11.2021 5.60892 11.2939 5.70002C11.3857 5.79111 11.4373 5.91466 11.4373 6.04348C11.4373 6.17231 11.3857 6.29586 11.2939 6.38695C11.2021 6.47805 11.0776 6.52922 10.9477 6.52922C10.8179 6.52922 10.6934 6.47805 10.6016 6.38695C10.5098 6.29586 10.4582 6.17231 10.4582 6.04348C10.4582 5.91466 10.5098 5.79111 10.6016 5.70002ZM6.85574 6.8407C6.41966 7.27339 6.17467 7.86025 6.17467 8.47217C6.17467 9.08409 6.41966 9.67095 6.85574 10.1036C7.29183 10.5363 7.88329 10.7794 8.50001 10.7794C9.11673 10.7794 9.70819 10.5363 10.1443 10.1036C10.5804 9.67095 10.8254 9.08409 10.8254 8.47217C10.8254 7.86025 10.5804 7.27339 10.1443 6.8407C9.70819 6.408 9.11673 6.16492 8.50001 6.16492C7.88329 6.16492 7.29183 6.408 6.85574 6.8407Z" fill="white"/>
</svg>
