<svg width="319" height="63" viewBox="0 0 319 63" fill="none" xmlns="http://www.w3.org/2000/svg">
<path d="M42.3577 51.5098C38.612 53.7555 33.3008 55.2525 28.9423 55.2525H13.8246V3.6067C13.8246 2.58526 14.5054 1.83661 15.5265 1.83661H15.5953V1.02064H0.0684492V1.83661H0.204548C3.20097 1.83661 5.17596 3.87868 5.17596 6.87273V55.4561C5.17596 58.4502 3.20097 60.4236 0.204548 60.4236H0V61.3082H39.6335L47.3968 48.3798L42.3577 51.5098ZM91.0481 51.5098C87.3025 53.7555 81.9909 55.2525 77.6324 55.2525H62.515V29.8713H79.4031C80.5615 29.8713 82.1273 31.1639 83.2846 31.6406L84.9189 32.4573L85.7366 20.4135L84.6467 21.5018C83.7616 22.3862 82.3319 23.8156 81.1059 23.8156H62.515V7.00873H77.6324C81.9909 7.00873 87.507 8.30136 91.2527 10.4108L93.0231 11.363L88.3239 1.02064H48.6904V1.83661H48.895C51.8914 1.83661 53.8664 3.87868 53.8664 6.87273V55.4561C53.8664 58.4502 51.8914 60.4236 48.895 60.4236H48.6904V61.3082H88.3239L96.0872 48.3798L91.0481 51.5098ZM130.136 31.2323L124.076 37.288H140.215V54.5039C137.287 55.7965 133.813 56.4765 130.136 56.4765C116.517 56.4765 107.46 47.4268 107.46 31.2323C107.46 15.0378 116.517 5.98809 130.136 5.98809C139.534 5.98809 144.845 9.79838 148.455 17.6915V5.51171C143.279 1.63302 137.968 0 130.136 0C111.342 0 98.8114 12.452 98.8114 31.2323C98.8114 50.0128 111.342 62.5333 127.072 62.5333C133.745 62.5333 138.785 60.2876 140.215 59.4032V61.3082H148.796V31.2323H130.136ZM197.69 51.5098C193.945 53.7555 188.634 55.2525 184.275 55.2525H169.158V29.8713H186.045C187.204 29.8713 188.77 31.1639 189.927 31.6406L191.562 32.4573L192.379 20.4135L191.289 21.5018C190.404 22.3862 188.974 23.8156 187.748 23.8156H169.158V7.00873H184.275C188.634 7.00873 194.149 8.30136 197.895 10.4108L199.665 11.363L194.966 1.02064H155.333V1.83661H155.537C158.534 1.83661 160.509 3.87868 160.509 6.87273V55.4561C160.509 58.4502 158.534 60.4236 155.537 60.4236H155.333V61.3082H194.966L202.73 48.3798L197.69 51.5098ZM247.335 1.02064V1.83661H247.879C250.399 1.83661 252.032 3.46962 252.032 5.98809V47.2908L216.69 1.02064H202.73C204.569 1.97368 205.521 2.44926 205.658 2.58525C209.948 4.89932 210.698 9.39039 210.698 12.452V56.3405C210.698 58.7906 208.995 60.4236 206.543 60.4236H205.931V61.3082H221.457V60.4236H220.843C218.324 60.4236 216.69 58.7906 216.69 56.3405V15.2414L251.896 61.3082H258.094V5.98809C258.094 3.46962 259.728 1.83661 262.248 1.83661H262.792V1.02064H247.335ZM288.329 1.02064H267.151V1.83661C269.67 1.83661 272.258 1.76902 272.258 5.17132L272.326 57.1576C272.326 59.131 271.032 60.4236 269.057 60.4236H268.852V61.3082H286.695C305.83 61.3082 318.633 49.332 318.633 30.8243C318.633 12.7924 306.443 1.02064 288.329 1.02064ZM286.967 54.7759H280.974V7.55271H285.061C301.54 7.55271 309.984 16.7384 309.984 30.9603C309.984 45.7261 300.927 54.7759 286.967 54.7759Z" fill="white" fill-opacity="0.1"/>
</svg>
