<svg width="95" height="22" viewBox="0 0 95 22" fill="none" xmlns="http://www.w3.org/2000/svg">
<path d="M12.6289 18.6878C11.5121 19.3625 9.92859 19.8123 8.6291 19.8123H4.12178V4.2937C4.12178 3.98678 4.32475 3.76191 4.6293 3.76191H4.64971V3.51664H0.020408V3.76191H0.0609857C0.954366 3.76191 1.54329 4.37544 1.54329 5.27509V19.8735C1.54329 20.7731 0.954366 21.3662 0.0609857 21.3662H0V21.6319H11.8167L14.1313 17.7472L12.6289 18.6878ZM94.495 0.499395C94.1588 0.166035 93.7474 0 93.2598 0C92.7731 0 92.3616 0.166035 92.0254 0.499395C91.6886 0.832191 91.521 1.25228 91.521 1.75998C91.521 2.26316 91.6886 2.67994 92.0254 3.01274C92.3616 3.34505 92.7731 3.51156 93.2598 3.51156C93.7474 3.51156 94.1588 3.34505 94.495 3.01274C94.8314 2.67994 95 2.26316 95 1.75998C95 1.25228 94.8314 0.832191 94.495 0.499395ZM94.3214 2.83759C94.0312 3.12348 93.678 3.26687 93.2598 3.26687C92.8487 3.26687 92.4983 3.12171 92.2081 2.83332C91.9182 2.54469 91.773 2.18651 91.773 1.75998C91.773 1.32184 91.9182 0.959374 92.2081 0.669457C92.4983 0.38083 92.8487 0.236399 93.2598 0.236399C93.678 0.236399 94.0312 0.38083 94.3214 0.669457C94.6113 0.959374 94.7564 1.32184 94.7564 1.75998C94.7564 2.19256 94.6113 2.55154 94.3214 2.83759ZM93.8777 1.76505C93.965 1.66809 94.0088 1.5534 94.0088 1.41831C94.0088 1.25534 93.9505 1.12566 93.8349 1.02894C93.7187 0.932942 93.5616 0.884424 93.3652 0.884424H92.6425V2.53961H92.8863V1.97018H93.2429L93.7902 2.53961H94.1036L93.5295 1.95342C93.675 1.92376 93.7902 1.86129 93.8777 1.76505ZM92.8863 1.74321V1.10357H93.3652C93.4865 1.10357 93.5835 1.1325 93.6558 1.19134C93.7282 1.24977 93.765 1.32514 93.765 1.41831C93.765 1.51833 93.7267 1.597 93.6516 1.65511C93.5764 1.71403 93.4774 1.74321 93.3554 1.74321H92.8863ZM27.1459 18.6878C26.0291 19.3625 24.4456 19.8123 23.1461 19.8123H18.6388V12.1858H23.6739C24.0193 12.1858 24.4862 12.5742 24.8312 12.7173L25.3186 12.9628L25.5623 9.34384L25.2373 9.67083C24.9734 9.93665 24.5472 10.3662 24.1816 10.3662H18.6388V5.31595H23.1461C24.4456 5.31595 26.0901 5.70436 27.2069 6.33827L27.7347 6.62432L26.3337 3.51664H14.517V3.76191H14.578C15.4714 3.76191 16.0603 4.37544 16.0603 5.27509V19.8735C16.0603 20.7731 15.4714 21.3662 14.578 21.3662H14.517V21.6319H26.3337L28.6483 17.7472L27.1459 18.6878ZM38.7999 12.5947L36.993 14.4144H41.8048V19.5874C40.9318 19.9757 39.8963 20.1801 38.7999 20.1801C34.7394 20.1801 32.0391 17.4609 32.0391 12.5947C32.0391 7.72862 34.7394 5.00935 38.7999 5.00935C41.6019 5.00935 43.1854 6.15419 44.2616 8.526V4.86613C42.7186 3.70074 41.135 3.21005 38.7999 3.21005C33.1964 3.21005 29.4605 6.95156 29.4605 12.5947C29.4605 18.2379 33.1964 22 37.8864 22C39.8761 22 41.3785 21.3252 41.8048 21.0595V21.6319H44.3632V12.5947H38.7999ZM58.9412 18.6878C57.8244 19.3625 56.2409 19.8123 54.9414 19.8123H50.4341V12.1858H55.4692C55.8146 12.1858 56.2815 12.5742 56.6266 12.7173L57.1138 12.9628L57.3576 9.34384L57.0327 9.67083C56.7687 9.93665 56.3424 10.3662 55.9769 10.3662H50.4341V5.31595H54.9414C56.2409 5.31595 57.8855 5.70436 59.0022 6.33827L59.53 6.62432L58.129 3.51664H46.3123V3.76191H46.3733C47.2666 3.76191 47.8556 4.37544 47.8556 5.27509V19.8735C47.8556 20.7731 47.2666 21.3662 46.3733 21.3662H46.3123V21.6319H58.129L60.4436 17.7472L58.9412 18.6878ZM73.7425 3.51664V3.76191H73.9049C74.6561 3.76191 75.1431 4.2526 75.1431 5.00935V17.42L64.6058 3.51664H60.4436C60.9919 3.80301 61.276 3.94591 61.3165 3.98678C62.5959 4.68211 62.8193 6.0316 62.8193 6.95156V20.1393C62.8193 20.8754 62.3116 21.3662 61.5805 21.3662H61.398V21.6319H66.027V21.3662H65.8443C65.093 21.3662 64.6058 20.8754 64.6058 20.1393V7.7898L75.1025 21.6319H76.9503V5.00935C76.9503 4.2526 77.4376 3.76191 78.1888 3.76191H78.3511V3.51664H73.7425ZM85.965 3.51664H79.6506V3.76191C80.4018 3.76191 81.1734 3.7416 81.1734 4.76384L81.1936 20.3847C81.1936 20.9778 80.808 21.3662 80.219 21.3662H80.1581V21.6319H85.4778C91.1829 21.6319 95 18.0333 95 12.4721C95 7.05384 91.3657 3.51664 85.965 3.51664ZM85.5589 19.6691H83.7722V5.47949H84.9905C89.9038 5.47949 92.4214 8.23962 92.4214 12.513C92.4214 16.9499 89.7211 19.6691 85.5589 19.6691Z" fill="url(#paint0_linear_234_2635)"/>
<defs>
<linearGradient id="paint0_linear_234_2635" x1="47.5" y1="0" x2="47.5" y2="22" gradientUnits="userSpaceOnUse">
<stop stop-color="white"/>
</linearGradient>
</defs>
</svg>
