<svg width="9" height="13" viewBox="0 0 9 13" fill="none" xmlns="http://www.w3.org/2000/svg">
<path d="M4.5 0C2.01214 0 0 2.0345 0 4.55C0 7.9625 4.5 13 4.5 13C4.5 13 9 7.9625 9 4.55C9 2.0345 6.98786 0 4.5 0ZM4.5 6.175C4.07376 6.175 3.66498 6.0038 3.36358 5.69905C3.06218 5.3943 2.89286 4.98098 2.89286 4.55C2.89286 4.11902 3.06218 3.7057 3.36358 3.40095C3.66498 3.0962 4.07376 2.925 4.5 2.925C4.92624 2.925 5.33502 3.0962 5.63642 3.40095C5.93782 3.7057 6.10714 4.11902 6.10714 4.55C6.10714 4.98098 5.93782 5.3943 5.63642 5.69905C5.33502 6.0038 4.92624 6.175 4.5 6.175Z" fill="#508B9A"/>
</svg>
