<svg width="20" height="18" viewBox="0 0 20 18" fill="none" xmlns="http://www.w3.org/2000/svg">
<path d="M1.21994 9H16.9048C17.0855 9 17.2449 9.09541 17.3353 9.27913L19.5026 12.5813C19.6248 12.84 19.6038 13.1529 19.4281 13.4119L16.502 17C16.3797 17.1769 16.2203 17.2859 16.0391 17.2859H0.401492C0.0879574 17.2859 -0.0305004 16.6868 0.00652221 16.2918L0.597263 9.70761C0.634749 9.3061 0.90617 9 1.21994 9Z" fill="#00C0C9"/>
<path d="M11.5648 13.3704C11.5435 14.7345 12.5284 16 14.5415 16C15.2556 16 15.8624 15.8581 16.403 15.5195L16.5117 14.2318C16.0681 14.5048 15.3965 14.6901 14.8124 14.6901C14.0434 14.6901 13.3506 14.3516 13.1566 13.5661H16.9022C16.956 13.4241 16.9995 13.0856 16.9995 12.7584C16.9995 11.3184 16.2089 10.2702 14.585 10.2702C12.9611 10.2702 11.5865 11.2415 11.5648 13.369V13.3704ZM13.1668 12.6391C13.3187 11.9191 13.8374 11.4928 14.4764 11.4928C15.1153 11.4928 15.4616 11.8531 15.4616 12.4316C15.4616 12.4971 15.4616 12.5735 15.4513 12.6391H13.1668ZM4.14106 15.8694L4.6392 11.8757C4.97503 11.6465 5.35342 11.4612 5.67896 11.4612C6.10083 11.4612 6.30666 11.7781 6.2421 12.3232L5.80899 15.8699H7.33566L7.81228 11.9959L7.82257 11.8865C8.15839 11.6574 8.54802 11.4612 8.87266 11.4612C9.29459 11.4612 9.50028 11.7781 9.43567 12.3232L9.00267 15.8699H10.5293L11.006 11.9959C11.136 10.9157 10.5836 10.2612 9.59891 10.2612C8.91697 10.2612 8.19159 10.654 7.70469 11.0142C7.49889 10.5338 7.04427 10.2612 6.40534 10.2612C5.7664 10.2612 5.14949 10.5781 4.66256 10.9053L4.72759 10.4145H3.29916L2.61719 15.8708H4.14386H4.14198L4.14106 15.8694Z" fill="white"/>
<path d="M17.3152 0.155462L15.6305 4.02151L14.755 0.155462H13.0257L14.5663 5.7532L13.6689 7.58581H15.3757L19 0.155462H17.3152ZM1 7.58581H2.55166L2.80643 5.47464C3.05019 5.66437 3.50466 5.87679 4.08079 5.87679C5.87667 5.87679 6.97383 4.27882 6.97383 2.53649C6.97383 1.05051 6.2756 0.0115942 4.9677 0.0115942C4.34659 0.0115942 3.78147 0.212426 3.34949 0.570625L3.40457 0.157394H1.89746L1 7.58774V7.58581ZM2.93957 4.37876L3.28342 1.63033C3.61577 1.36239 3.99267 1.25039 4.32501 1.26149C4.98973 1.27211 5.35562 1.80896 5.35562 2.64704C5.35562 3.73086 4.79053 4.65827 3.83703 4.65827C3.53771 4.65827 3.19435 4.55787 2.93957 4.37876ZM7.27315 4.23391C7.26165 5.13865 7.9939 5.87679 9.11261 5.87679C9.89991 5.87679 10.4756 5.54176 10.8079 5.17291L10.7413 5.74259H12.2485L12.6143 2.71511C12.792 1.21803 12.304 0 10.3975 0C9.62167 0 8.67968 0.179113 8.16965 0.514151L8.01399 1.76549C8.42442 1.5415 9.22228 1.26922 9.95356 1.26922C10.829 1.26922 11.1398 1.70951 11.1063 2.17924H10.1753C8.82287 2.17924 7.28225 2.70401 7.27124 4.23489L7.27315 4.23391ZM8.83628 4.11032C8.83628 3.50687 9.53451 3.28334 10.2543 3.28334H10.9856L10.8745 4.18805C10.5641 4.43379 10.0101 4.69063 9.5441 4.69063C9.12314 4.69063 8.83483 4.456 8.83483 4.10937L8.83628 4.11032Z" fill="#040404"/>
</svg>
