<svg width="60" height="60" viewBox="0 0 60 60" fill="none" xmlns="http://www.w3.org/2000/svg">
<circle cx="30" cy="30" r="29.5" stroke="url(#paint0_linear_0_1)"/>
<path d="M37.9472 26.5932C37.9472 29.081 37.4757 31.1975 36.5325 32.9427C35.5968 34.6879 34.3195 36.0209 32.7006 36.9418C31.0891 37.8552 29.277 38.3119 27.2645 38.3119C25.2371 38.3119 23.4177 37.8515 21.8062 36.9306C20.1947 36.0098 18.9211 34.6767 17.9854 32.9316C17.0497 31.1864 16.5818 29.0736 16.5818 26.5932C16.5818 24.1054 17.0497 21.9889 17.9854 20.2437C18.9211 18.4986 20.1947 17.1693 21.8062 16.2558C23.4177 15.335 25.2371 14.8745 27.2645 14.8745C29.277 14.8745 31.0891 15.335 32.7006 16.2558C34.3195 17.1693 35.5968 18.4986 36.5325 20.2437C37.4757 21.9889 37.9472 24.1054 37.9472 26.5932ZM33.057 26.5932C33.057 24.9817 32.8157 23.6227 32.333 22.5162C31.8577 21.4097 31.1856 20.5705 30.3167 19.9987C29.4478 19.4269 28.4304 19.1409 27.2645 19.1409C26.0986 19.1409 25.0812 19.4269 24.2123 19.9987C23.3434 20.5705 22.6676 21.4097 22.1849 22.5162C21.7097 23.6227 21.472 24.9817 21.472 26.5932C21.472 28.2047 21.7097 29.5637 22.1849 30.6703C22.6676 31.7768 23.3434 32.6159 24.2123 33.1878C25.0812 33.7596 26.0986 34.0455 27.2645 34.0455C28.4304 34.0455 29.4478 33.7596 30.3167 33.1878C31.1856 32.6159 31.8577 31.7768 32.333 30.6703C32.8157 29.5637 33.057 28.2047 33.057 26.5932Z" fill="url(#paint1_linear_0_1)"/>
<path d="M40.8884 45.7175C40.0887 45.7175 39.3764 45.58 38.7516 45.3051C38.1304 45.0266 37.6394 44.6446 37.2788 44.159C36.9218 43.6699 36.7379 43.1058 36.7272 42.4667H39.0622C39.0765 42.7344 39.164 42.9701 39.3246 43.1736C39.4889 43.3735 39.7067 43.5288 39.978 43.6395C40.2493 43.7502 40.5546 43.8055 40.8938 43.8055C41.2473 43.8055 41.5597 43.7431 41.831 43.6181C42.1023 43.4931 42.3148 43.32 42.4683 43.0986C42.6218 42.8773 42.6986 42.622 42.6986 42.3328C42.6986 42.04 42.6165 41.7812 42.4522 41.5562C42.2916 41.3277 42.0595 41.1492 41.756 41.0207C41.4561 40.8922 41.0991 40.8279 40.6849 40.8279H39.662V39.1248H40.6849C41.0348 39.1248 41.3437 39.0641 41.6114 38.9428C41.8828 38.8214 42.0934 38.6536 42.2434 38.4393C42.3933 38.2215 42.4683 37.9681 42.4683 37.6789C42.4683 37.4039 42.4023 37.1629 42.2702 36.9559C42.1416 36.7452 41.9595 36.581 41.7239 36.4632C41.4918 36.3453 41.2205 36.2864 40.9099 36.2864C40.5957 36.2864 40.3083 36.3436 40.0476 36.4578C39.787 36.5685 39.5781 36.7274 39.421 36.9344C39.2639 37.1415 39.18 37.3843 39.1693 37.6628H36.9468C36.9575 37.0308 37.1378 36.4739 37.4877 35.9919C37.8376 35.5099 38.3089 35.1332 38.9015 34.8619C39.4978 34.5869 40.1708 34.4495 40.9206 34.4495C41.6775 34.4495 42.3398 34.5869 42.9075 34.8619C43.4751 35.1368 43.9161 35.5081 44.2303 35.9758C44.548 36.44 44.7051 36.9612 44.7016 37.5396C44.7051 38.1537 44.5141 38.6661 44.1285 39.0766C43.7465 39.4872 43.2484 39.7479 42.6343 39.8585V39.9442C43.4412 40.0478 44.0553 40.328 44.4766 40.785C44.9015 41.2385 45.1121 41.8062 45.1086 42.4881C45.1121 43.1129 44.9318 43.6681 44.5677 44.1537C44.2071 44.6392 43.709 45.0212 43.0735 45.2997C42.438 45.5782 41.7096 45.7175 40.8884 45.7175Z" fill="url(#paint2_linear_0_1)"/>
<defs>
<linearGradient id="paint0_linear_0_1" x1="30" y1="0" x2="30" y2="60" gradientUnits="userSpaceOnUse">
<stop stop-color="#78A9C2"/>
<stop offset="1" stop-color="#367384"/>
</linearGradient>
<linearGradient id="paint1_linear_0_1" x1="27.5" y1="0" x2="27.5" y2="53" gradientUnits="userSpaceOnUse">
<stop offset="0.28272" stop-color="#5AAABE"/>
<stop offset="0.935" stop-color="#216070"/>
</linearGradient>
<linearGradient id="paint2_linear_0_1" x1="40.9453" y1="12.5675" x2="40.9453" y2="67.5675" gradientUnits="userSpaceOnUse">
<stop offset="0.28272" stop-color="#5AAABE"/>
<stop offset="0.935" stop-color="#216070"/>
</linearGradient>
</defs>
</svg>
