<svg width="60" height="60" viewBox="0 0 60 60" fill="none" xmlns="http://www.w3.org/2000/svg">
<mask id="mask0_0_1" style="mask-type:alpha" maskUnits="userSpaceOnUse" x="8" y="8" width="44" height="44">
<circle cx="30" cy="30" r="21.5" fill="#D9D9D9" stroke="url(#paint0_linear_0_1)"/>
</mask>
<g mask="url(#mask0_0_1)">
<path d="M40.3214 16.1915C42.1071 19.0757 43 21.7381 43 24.8441C43 28.6158 41.75 32.1656 38.7143 36.1591C35.3214 40.5964 32.2857 45.4773 32.2857 50.3583C32.2857 51.2458 32.4643 52.1332 32.6429 53.2425C32.6429 53.4644 32.6429 53.6862 32.4643 53.9081C32.2857 54.13 32.1071 53.9081 32.1071 53.6862C30.3214 50.802 29.4286 48.1397 29.4286 45.0336C29.4286 41.2619 30.6786 37.7121 33.7143 33.7186C37.1071 29.2814 40.1429 24.4004 40.1429 19.5194C40.1429 18.632 39.9643 17.7445 39.7857 16.6352C39.7857 16.4134 39.7857 16.1915 39.9643 15.9696C40.1429 15.9696 40.1429 15.9696 40.3214 16.1915ZM26.3929 9.53562C27.6429 11.5324 28.1786 13.751 28.1786 15.7478C28.1786 18.632 27.1071 21.2943 24.9643 24.1785C22.4643 27.5065 20.1429 31.2781 20.1429 34.8279C20.1429 35.4935 20.3214 36.381 20.5 36.8247C20.5 37.0466 20.5 37.0466 20.3214 37.2684C20.1429 37.4903 19.9643 37.2684 19.9643 37.2684C18.5357 35.0498 18 32.8312 18 30.8344C18 27.9502 19.0714 25.2879 21.2143 22.4036C23.7143 19.0757 26.0357 15.304 26.0357 11.7542C26.0357 11.0887 25.8571 10.2012 25.6786 9.75749V9.31376C26.0357 9.31376 26.2143 9.31376 26.3929 9.53562ZM27.1071 26.8409C30.5 22.4036 33.5357 17.5227 33.5357 12.6417C33.5357 11.7542 33.3571 10.8668 33.1786 9.75749C33.1786 9.53562 33.1786 9.31376 33.3571 9.0919C33.5357 8.87004 33.7143 9.0919 33.7143 9.31376C35.5 12.198 36.3929 14.8603 36.3929 17.9664C36.3929 21.7381 35.1429 25.2879 32.1071 29.2814C28.7143 33.7186 25.6786 38.5996 25.6786 43.4806C25.6786 44.368 25.8571 45.2555 26.0357 46.3648C26.0357 46.5866 26.0357 46.8085 25.8571 47.0304C25.6786 47.2522 25.5 47.0304 25.5 46.8085C23.7143 43.9243 22.8214 41.2619 22.8214 38.1559C22.8214 34.3842 24.0714 30.8344 27.1071 26.8409Z" fill="url(#paint1_linear_0_1)"/>
</g>
<circle cx="30" cy="30" r="29.5" stroke="url(#paint2_linear_0_1)"/>
<defs>
<linearGradient id="paint0_linear_0_1" x1="30" y1="8" x2="30" y2="52" gradientUnits="userSpaceOnUse">
<stop stop-color="#78A9C2"/>
<stop offset="1" stop-color="#367384"/>
</linearGradient>
<linearGradient id="paint1_linear_0_1" x1="30.5" y1="9" x2="30.5" y2="54" gradientUnits="userSpaceOnUse">
<stop offset="0.28272" stop-color="#5AAABE"/>
<stop offset="0.935" stop-color="#216070"/>
</linearGradient>
<linearGradient id="paint2_linear_0_1" x1="30" y1="0" x2="30" y2="60" gradientUnits="userSpaceOnUse">
<stop stop-color="#78A9C2"/>
<stop offset="1" stop-color="#367384"/>
</linearGradient>
</defs>
</svg>
