<svg width="17" height="17" viewBox="0 0 17 17" fill="none" xmlns="http://www.w3.org/2000/svg">
<path fill-rule="evenodd" clip-rule="evenodd" d="M8.5 17C13.1944 17 17 13.1944 17 8.5C17 3.80558 13.1944 0 8.5 0C3.80558 0 0 3.80558 0 8.5C0 13.1944 3.80558 17 8.5 17ZM12.3539 5.00633C12.2217 4.98956 12.0871 5.00627 11.9642 5.05473L3.45619 8.40942C2.86312 8.64332 2.83277 9.44658 3.45669 9.68887C3.91841 9.86825 4.48411 10.0155 5.0941 10.1105C5.42845 10.1627 5.70807 10.1105 6.24442 9.80488C6.85242 9.45823 8.69133 8.22678 9.83668 7.41699C10.2979 7.09084 10.476 7.29539 10.0854 7.64996C9.95004 7.77277 9.80082 7.90697 9.64377 8.04821C8.64666 8.94496 7.33407 10.1254 7.23951 10.4744C7.11213 10.9469 8.14852 11.6108 8.48685 11.8182C9.1635 12.2324 9.91579 12.6293 10.4223 12.887C11.0278 13.195 11.7522 12.8404 11.8617 12.2221L12.9901 5.81233C13.0118 5.68907 12.9977 5.56262 12.9495 5.44615C12.9012 5.32968 12.8206 5.22745 12.7158 5.1501C12.6111 5.07275 12.4861 5.0231 12.3539 5.00633Z" fill="white"/>
</svg>
